<svg width="81" height="98" viewBox="0 0 81 98" fill="none" xmlns="http://www.w3.org/2000/svg">
<g clip-path="url(#clip0_1305_2659)">
<path d="M8.24805 59.0068C15.5072 68.13 26.7013 73.9862 39.2606 73.9862C53.9899 73.9862 66.8433 65.9353 73.6752 53.9951C70.09 52.356 67.5925 50.078 65.084 47.9722C60.1835 57.2343 50.4602 63.5406 39.2606 63.5406C30.292 63.5406 22.267 59.4901 16.9114 53.1228C15.0244 55.1063 12.3216 57.2232 8.24805 59.0068Z" fill="#4C3933"/>
<path fill-rule="evenodd" clip-rule="evenodd" d="M9.48993 50.9224C8.34111 36.1096 13.8022 23.7026 24.913 15.685C26.8277 14.3015 28.1541 13.5126 30.2242 12.5291C31.151 12.0902 32.0556 11.6679 33.21 11.2456C34.6585 10.7123 34.8194 10.8567 35.8961 10.0677C25.6677 8.7787 12.7033 13.8404 8.08027 20.0744C3.89014 25.7251 3.87904 41.4768 8.36886 49.4277L9.22909 50.6334C9.26794 50.5612 9.39558 50.8335 9.48993 50.9224Z" fill="#4C3933"/>
<path fill-rule="evenodd" clip-rule="evenodd" d="M70.989 47.2774C75.5399 36.654 73.4642 26.5362 69.102 17.2573C67.7035 20.491 73.2367 35.8261 55.1164 52.1446C51.8698 55.0672 48.945 55.8728 44.877 58.2009C54.3672 59.551 68.3695 53.3948 70.989 47.2774Z" fill="#4C3933"/>
<path fill-rule="evenodd" clip-rule="evenodd" d="M62.3685 42.1493C67.4578 36.3264 71.2095 20.019 65.7873 12.6126C61.5638 6.83416 50.8249 -0.399991 39.9805 0.0167229L40.5854 0.461218C40.6742 0.51678 41.0849 0.77792 41.207 0.850151C47.95 4.66169 53.1614 7.97874 57.5679 15.6741C62.0744 23.5472 63.9558 31.7592 62.3685 42.1493Z" fill="#4C3933"/>
<path fill-rule="evenodd" clip-rule="evenodd" d="M20.1465 49.3169C22.0612 54.2508 28.1716 60.746 32.1009 63.424C34.5483 65.0909 40.1204 68.119 42.8787 68.2968C46.9356 68.5635 55.3547 64.6408 58.224 62.8073C61.454 60.746 66.6153 55.8121 68.2525 52.2839C64.9393 53.6396 62.4419 56.1788 57.2971 57.6734C46.0365 60.946 34.4429 59.2958 24.7473 52.8506C23.0546 51.7283 21.6727 50.2614 20.1465 49.3169Z" fill="#4C3933"/>
<path fill-rule="evenodd" clip-rule="evenodd" d="M9.5625 17.1019C22.4992 8.4898 31.6953 6.17287 47.5123 12.0346C52.5128 13.8904 54.5828 16.224 57.8295 18.4687C56.2312 14.2849 51.708 9.08986 48.8554 6.9174C46.0971 4.8116 39.5761 -0.322314 34.4758 0.216636C23.5037 1.37788 12.7537 10.1233 9.5625 17.1019Z" fill="#4C3933"/>
<path fill-rule="evenodd" clip-rule="evenodd" d="M39.5425 68.5854C37.1949 66.9241 35.0415 66.9019 29.2808 62.4959C26.4337 60.3178 23.6144 56.9452 21.4555 53.7671C15.8668 45.5439 15.0732 39.0765 15.4173 27.6475C11.0218 35.115 6.98153 50 13.4637 57.0897C15.1786 58.9621 16.2831 60.0456 18.3698 61.6124C24.0917 65.9074 31.8226 68.9299 39.5425 68.5854Z" fill="#4C3933"/>
<path fill-rule="evenodd" clip-rule="evenodd" d="M52.713 42.2439C55.2937 42.0605 58.1407 38.1656 58.8955 36.9266C62.5307 41.3549 65.6996 44.2108 75.4618 50.3615C75.0178 51.3005 74.1909 53.0951 73.6803 53.9952C69.0961 51.9005 63.2577 48.3279 59.9389 45.8387L57.7467 47.1111L57.2084 45.372C55.4602 46.5388 53.0959 48.3168 51.3255 46.8611L44.8322 39.4769L41.136 43.2106L39.1825 38.5657C37.4953 40.4048 34.01 44.2885 32.7779 45.8332L29.781 49.5503C28.5212 51.1227 25.7685 48.2112 24.048 47.4611L22.7771 49.6947L20.6016 48.139C18.8867 50.7393 15.3736 56.2455 8.23651 59.0069C7.62603 58.2401 6.69366 56.89 6.13867 56.0788C13.2425 51.7394 16.5113 44.4108 20.4573 38.4601C22.1111 40.1714 26.5843 44.2441 28.1494 44.3774C33.0943 38.6157 36.9903 34.9653 40.7642 29.5146C42.5512 30.3092 49.6162 40.0936 52.713 42.2439Z" fill="url(#paint0_linear_1305_2659)"/>
<path d="M6.01048 91.8661C4.13464 91.8661 2.68058 91.4716 1.6483 90.6882C0.549435 89.8547 0 88.6324 0 87.0155C0 85.5431 0.532785 84.3652 1.59281 83.4818C2.65283 82.5984 4.12909 82.1594 6.01603 82.1594L5.93279 80.9648C6.43782 81.0204 6.90956 81.0482 7.348 81.0482C7.85303 81.0482 8.31922 81.0204 8.74656 80.9648L8.66331 82.1594C10.7501 82.1594 12.3151 82.665 13.364 83.6763C14.2409 84.5208 14.6793 85.632 14.6793 87.0155C14.6793 88.4657 14.141 89.638 13.0699 90.5326C11.9988 91.4271 10.5281 91.8716 8.66886 91.8716C8.66886 92.0717 8.67996 92.2772 8.69661 92.4773C8.71326 92.6773 8.73546 92.9106 8.75766 93.1662C8.54676 93.1329 8.26927 93.1107 7.94183 93.0996C7.60884 93.0884 7.42014 93.0829 7.37575 93.0829C6.87071 93.0829 6.39342 93.1107 5.94389 93.1662C5.96608 92.8606 5.98828 92.5773 6.00493 92.3161C6.00493 92.0494 6.01048 91.8994 6.01048 91.8661ZM8.65776 83.0317V90.9382C9.54574 90.9382 10.2561 90.5493 10.7945 89.777C11.2995 89.0491 11.5548 88.1268 11.5548 87.01C11.5548 85.9432 11.305 85.032 10.8111 84.2763C10.2617 83.4485 9.54019 83.0317 8.65776 83.0317ZM6.01048 90.9382V83.0317C5.14471 83.0317 4.44543 83.4262 3.91264 84.2208C3.37986 85.0153 3.11346 85.9432 3.11346 87.01C3.11346 88.1212 3.37431 89.0546 3.89599 89.8103C4.42323 90.5604 5.12251 90.9382 6.01048 90.9382Z" fill="url(#paint1_linear_1305_2659)"/>
<path d="M18.3357 88.8824C18.3357 90.1769 18.4856 91.1159 18.7797 91.7049C19.0794 92.2938 19.5733 92.5883 20.2726 92.5883C20.9664 92.5883 21.4658 92.2883 21.7711 91.6938C22.0763 91.0993 22.2262 90.1603 22.2262 88.8768C22.2262 87.5711 22.0763 86.6265 21.7822 86.0376C21.4825 85.4486 20.983 85.1541 20.2726 85.1541C19.5789 85.1541 19.0794 85.4486 18.7797 86.032C18.4856 86.6154 18.3357 87.5655 18.3357 88.8824ZM15.8105 88.8824C15.8105 87.4544 16.2046 86.3487 16.9871 85.5598C17.7752 84.7708 18.8741 84.3818 20.2893 84.3818C21.7156 84.3818 22.8145 84.7708 23.5914 85.5431C24.3684 86.321 24.7513 87.4322 24.7513 88.8824C24.7513 90.2992 24.3573 91.3993 23.5748 92.1883C22.7867 92.9773 21.6878 93.3662 20.2726 93.3662C18.8463 93.3662 17.7474 92.9773 16.9705 92.2049C16.199 91.4271 15.8105 90.3214 15.8105 88.8824Z" fill="url(#paint2_linear_1305_2659)"/>
<path d="M25.4785 84.5986C25.9281 84.5986 26.6606 84.6153 27.6818 84.6431C28.703 84.6709 29.3135 84.6875 29.5188 84.6875C30.1126 84.6875 30.9118 84.6709 31.9108 84.6431C32.9098 84.6153 33.4203 84.5986 33.4425 84.5986C33.3981 84.6986 33.3759 84.8931 33.3759 85.1709C33.3759 85.3709 33.3981 85.5765 33.4425 85.7766C33.2649 85.7766 32.8931 85.7488 32.3326 85.6988C31.772 85.6488 31.2393 85.621 30.7342 85.621C30.7342 86.1044 30.7287 86.4989 30.7176 86.7989C30.6732 88.0212 30.651 88.7213 30.651 88.888C30.651 89.3269 30.6732 90.0659 30.7176 91.1049C30.762 92.1439 30.7842 92.8274 30.7842 93.1552C30.379 93.1107 30.0849 93.0829 29.9017 93.0774C29.7186 93.0718 29.5688 93.0663 29.4578 93.0663C29.2913 93.0663 29.1303 93.0718 28.986 93.0774C28.8417 93.0829 28.5531 93.1107 28.1258 93.1552C28.1258 92.6607 28.148 91.9439 28.1924 90.9994C28.2368 90.0548 28.259 89.3547 28.259 88.8936C28.259 88.3657 28.2534 87.9435 28.2423 87.6268C28.1979 86.3655 28.1757 85.6988 28.1757 85.621C27.593 85.621 27.1657 85.6321 26.8937 85.6543C25.9614 85.7321 25.4896 85.771 25.4785 85.771C25.4896 85.7265 25.5007 85.6321 25.5118 85.4821C25.5229 85.3376 25.5285 85.232 25.5285 85.1598L25.4785 84.5986Z" fill="url(#paint3_linear_1305_2659)"/>
<path d="M36.8279 88.8824C36.8279 90.1769 36.9778 91.1159 37.2719 91.7049C37.5716 92.2938 38.0655 92.5883 38.7648 92.5883C39.4585 92.5883 39.958 92.2883 40.2633 91.6938C40.5685 91.0993 40.7184 90.1603 40.7184 88.8768C40.7184 87.5711 40.5685 86.6265 40.2744 86.0376C39.9747 85.4486 39.4752 85.1541 38.7648 85.1541C38.0711 85.1541 37.5716 85.4486 37.2719 86.032C36.9778 86.6154 36.8279 87.5655 36.8279 88.8824ZM34.3027 88.8824C34.3027 87.4544 34.6968 86.3487 35.4793 85.5598C36.2674 84.7708 37.3662 84.3818 38.7815 84.3818C40.2078 84.3818 41.3066 84.7708 42.0836 85.5431C42.8606 86.321 43.2435 87.4322 43.2435 88.8824C43.2435 90.2992 42.8495 91.3993 42.067 92.1883C41.2789 92.9773 40.18 93.3662 38.7648 93.3662C37.3385 93.3662 36.2396 92.9773 35.4627 92.2049C34.6912 91.4271 34.3027 90.3214 34.3027 88.8824Z" fill="url(#paint4_linear_1305_2659)"/>
<path d="M45.1149 86.8599L44.7098 85.7153C45.731 84.8263 46.791 84.3818 47.8954 84.3818C48.9055 84.3818 49.6713 84.5874 50.1875 85.0041C50.6481 85.3764 50.8757 85.882 50.8757 86.521C50.8757 87.3877 50.3651 87.9989 49.3439 88.3601C48.7723 88.549 48.2062 88.7379 47.6457 88.9157C47.2183 89.0824 46.9131 89.3435 46.7188 89.6935C46.5745 89.9547 46.5024 90.2381 46.5024 90.5548C46.5024 91.0048 46.68 91.3882 47.0352 91.7104C47.3904 92.0327 47.7899 92.1883 48.2395 92.1883C48.7778 92.1883 49.244 92.0994 49.638 91.916C50.0321 91.7382 50.5038 91.3882 51.0533 90.8715L51.1865 90.9381L51.0533 91.9494C50.7036 92.3772 50.2208 92.7217 49.6047 92.9773C48.9887 93.2384 48.3838 93.3662 47.7844 93.3662C46.5745 93.3662 45.6422 93.1162 44.9873 92.6217C44.3934 92.1716 44.0938 91.5938 44.0938 90.8826C44.0938 90.3214 44.2436 89.8658 44.5377 89.5269C44.8374 89.1824 45.3092 88.8768 45.9585 88.6101C46.5523 88.4101 47.1517 88.2045 47.7622 88.0045C48.4559 87.6989 48.8056 87.2822 48.8056 86.7377C48.8056 86.3543 48.6946 86.0598 48.467 85.8431C48.1951 85.582 47.7844 85.4542 47.2183 85.4542C46.7355 85.4542 46.3137 85.5875 45.953 85.8598C45.6644 86.0765 45.3813 86.4098 45.1149 86.8599Z" fill="url(#paint5_linear_1305_2659)"/>
<path d="M54.6443 88.8824C54.6443 90.1769 54.7942 91.1159 55.0883 91.7049C55.388 92.2938 55.8819 92.5883 56.5812 92.5883C57.2749 92.5883 57.7744 92.2883 58.0797 91.6938C58.3849 91.0993 58.5348 90.1603 58.5348 88.8768C58.5348 87.5711 58.3849 86.6265 58.0908 86.0376C57.7911 85.4486 57.2916 85.1541 56.5812 85.1541C55.8875 85.1541 55.388 85.4486 55.0883 86.032C54.7942 86.6154 54.6443 87.5655 54.6443 88.8824ZM52.1191 88.8824C52.1191 87.4544 52.5132 86.3487 53.2957 85.5598C54.0838 84.7708 55.1827 84.3818 56.5979 84.3818C58.0242 84.3818 59.123 84.7708 59.9 85.5431C60.677 86.321 61.0599 87.4322 61.0599 88.8824C61.0599 90.2992 60.6659 91.3993 59.8834 92.1883C59.0953 92.9773 57.9964 93.3662 56.5812 93.3662C55.1549 93.3662 54.056 92.9773 53.2791 92.2049C52.5076 91.4271 52.1191 90.3214 52.1191 88.8824Z" fill="url(#paint6_linear_1305_2659)"/>
<path d="M65.1714 88.9159C65.1714 90.0493 65.3101 90.8883 65.582 91.4273C65.8595 91.9662 66.298 92.2385 66.9029 92.2385C67.5189 92.2385 67.9685 91.9718 68.2515 91.4384C68.5346 90.905 68.6733 90.0604 68.6733 88.8992C68.6733 86.6712 68.0684 85.5599 66.853 85.5599C65.7319 85.5599 65.1714 86.6767 65.1714 88.9159ZM65.3045 84.5987C65.2712 84.7987 65.238 85.0099 65.2102 85.2321C65.1825 85.4488 65.1658 85.6099 65.1658 85.7099C65.8262 84.821 66.7031 84.3765 67.7909 84.3765C68.8121 84.3765 69.6334 84.7821 70.2606 85.5988C70.8821 86.4156 71.1929 87.5046 71.1929 88.877C71.1929 90.3049 70.8821 91.4106 70.2606 92.1885C69.639 92.9719 68.7621 93.3608 67.641 93.3608C67.025 93.3608 66.52 93.2608 66.1259 93.0663C65.7319 92.8719 65.4155 92.5496 65.1658 92.1162V93.7331C65.1658 94.172 65.188 94.911 65.2324 95.95C65.2768 96.989 65.299 97.6724 65.299 98.0002C64.8939 97.9558 64.5997 97.928 64.4166 97.9225C64.2334 97.9169 64.0836 97.9113 63.9726 97.9113C63.8061 97.9113 63.6451 97.9169 63.5008 97.9225C63.3566 97.928 63.068 97.9558 62.6406 98.0002C62.6406 97.5057 62.6628 96.789 62.7072 95.8444C62.7516 94.8999 62.7738 94.1998 62.7738 93.7386V88.8992C62.7738 88.3047 62.7627 87.7435 62.7405 87.2157C62.6739 85.6211 62.6406 84.7487 62.6406 84.6043C63.1235 84.6598 63.5674 84.6876 63.9726 84.6876C64.1391 84.6876 64.3056 84.6876 64.461 84.6765C64.6219 84.6709 64.8994 84.6432 65.3045 84.5987Z" fill="url(#paint7_linear_1305_2659)"/>
<path d="M77.2253 88.4766C76.4039 88.6322 75.8101 88.8822 75.4382 89.2267C75.0664 89.5712 74.8832 90.049 74.8832 90.6658C74.8832 91.677 75.2551 92.1826 75.9932 92.1826C76.8146 92.1826 77.2253 91.6381 77.2253 90.5491V88.4766ZM77.2919 92.0492C76.7868 92.9271 75.9821 93.3661 74.8832 93.3661C74.1285 93.3661 73.5402 93.1494 73.1128 92.7104C72.6855 92.2715 72.4746 91.6714 72.4746 90.9047C72.4746 89.8045 73.1017 89.0433 74.356 88.6266C74.911 88.4599 75.4715 88.2822 76.0321 88.0932C76.5981 87.9099 76.9922 87.7321 77.2197 87.5598V87.2543C77.2197 86.7153 77.0643 86.2819 76.7591 85.9486C76.4483 85.6152 76.0265 85.4485 75.4882 85.4485C74.7112 85.4485 74.0508 85.9208 73.5013 86.8653L73.0962 85.7208C74.1285 84.8207 75.1885 84.3706 76.2763 84.3706C78.4906 84.3706 79.5951 85.3429 79.5951 87.2876L79.5285 90.7602C79.5285 91.4214 79.5951 91.877 79.7227 92.1159C79.8504 92.3548 80.1112 92.4771 80.5052 92.4771C80.6162 92.4771 80.7217 92.4437 80.8271 92.3771L80.9936 92.816C80.6773 92.9827 80.3165 93.116 79.9059 93.2105C79.4952 93.3049 79.1622 93.355 78.9013 93.355C78.0467 93.3661 77.5083 92.9271 77.2919 92.0492Z" fill="url(#paint8_linear_1305_2659)"/>
</g>
<defs>
<linearGradient id="paint0_linear_1305_2659" x1="40.8002" y1="29.5146" x2="40.8002" y2="59.0069" gradientUnits="userSpaceOnUse">
<stop stop-color="#FF6760"/>
<stop offset="1" stop-color="#CF3C35"/>
</linearGradient>
<linearGradient id="paint1_linear_1305_2659" x1="7.33967" y1="80.9648" x2="7.33967" y2="93.1662" gradientUnits="userSpaceOnUse">
<stop stop-color="#FF6760"/>
<stop offset="1" stop-color="#CF3C35"/>
</linearGradient>
<linearGradient id="paint2_linear_1305_2659" x1="20.2809" y1="84.3818" x2="20.2809" y2="93.3662" gradientUnits="userSpaceOnUse">
<stop stop-color="#FF6760"/>
<stop offset="1" stop-color="#CF3C35"/>
</linearGradient>
<linearGradient id="paint3_linear_1305_2659" x1="29.4605" y1="84.5986" x2="29.4605" y2="93.1552" gradientUnits="userSpaceOnUse">
<stop stop-color="#FF6760"/>
<stop offset="1" stop-color="#CF3C35"/>
</linearGradient>
<linearGradient id="paint4_linear_1305_2659" x1="38.7731" y1="84.3818" x2="38.7731" y2="93.3662" gradientUnits="userSpaceOnUse">
<stop stop-color="#FF6760"/>
<stop offset="1" stop-color="#CF3C35"/>
</linearGradient>
<linearGradient id="paint5_linear_1305_2659" x1="47.6401" y1="84.3818" x2="47.6401" y2="93.3662" gradientUnits="userSpaceOnUse">
<stop stop-color="#FF6760"/>
<stop offset="1" stop-color="#CF3C35"/>
</linearGradient>
<linearGradient id="paint6_linear_1305_2659" x1="56.5895" y1="84.3818" x2="56.5895" y2="93.3662" gradientUnits="userSpaceOnUse">
<stop stop-color="#FF6760"/>
<stop offset="1" stop-color="#CF3C35"/>
</linearGradient>
<linearGradient id="paint7_linear_1305_2659" x1="66.9168" y1="84.3765" x2="66.9168" y2="98.0002" gradientUnits="userSpaceOnUse">
<stop stop-color="#FF6760"/>
<stop offset="1" stop-color="#CF3C35"/>
</linearGradient>
<linearGradient id="paint8_linear_1305_2659" x1="76.7341" y1="84.3706" x2="76.7341" y2="93.3661" gradientUnits="userSpaceOnUse">
<stop stop-color="#FF6760"/>
<stop offset="1" stop-color="#CF3C35"/>
</linearGradient>
<clipPath id="clip0_1305_2659">
<rect width="81" height="98" fill="white"/>
</clipPath>
</defs>
</svg>
