<svg width="214" height="47" viewBox="0 0 214 47" fill="none" xmlns="http://www.w3.org/2000/svg">
<path d="M2.05566 37.4843C6.60793 43.2799 13.6277 47 21.5037 47C30.7405 47 38.8009 41.8857 43.0852 34.3007C40.8369 33.2594 39.2708 31.8123 37.6976 30.4746C34.6245 36.3584 28.527 40.3644 21.5037 40.3644C15.8795 40.3644 10.847 37.7914 7.48845 33.7465C6.30514 35.0066 4.61022 36.3513 2.05566 37.4843Z" fill="#4C3933"/>
<path fill-rule="evenodd" clip-rule="evenodd" d="M2.83524 32.3488C2.11482 22.939 5.53945 15.0575 12.5071 9.96429C13.7078 9.08543 14.5396 8.58423 15.8377 7.9595C16.4189 7.68067 16.9862 7.41242 17.7101 7.14417C18.6185 6.80533 18.7194 6.8971 19.3946 6.39591C12.9804 5.57705 4.85035 8.79248 1.95124 12.7526C-0.676401 16.3422 -0.683362 26.3485 2.13222 31.3993L2.67167 32.1652C2.69603 32.1194 2.77608 32.2923 2.83524 32.3488Z" fill="#4C3933"/>
<path fill-rule="evenodd" clip-rule="evenodd" d="M41.4003 30.0334C44.2542 23.2848 42.9525 16.8575 40.217 10.9631C39.34 13.0173 42.8098 22.7589 31.4466 33.1253C29.4106 34.9818 27.5765 35.4936 25.0254 36.9725C30.9767 37.8302 39.7576 33.9194 41.4003 30.0334Z" fill="#4C3933"/>
<path fill-rule="evenodd" clip-rule="evenodd" d="M35.9957 26.7756C39.1871 23.0766 41.5398 12.7174 38.1396 8.01245C35.491 4.34171 28.7566 -0.253784 21.9561 0.0109334L22.3354 0.293298C22.3911 0.328594 22.6486 0.494483 22.7252 0.540368C26.9538 2.96165 30.2218 5.0688 32.9852 9.95724C35.8112 14.9586 36.991 20.1753 35.9957 26.7756Z" fill="#4C3933"/>
<path fill-rule="evenodd" clip-rule="evenodd" d="M9.51758 31.3286C10.7183 34.4629 14.5501 38.5889 17.0142 40.2902C18.549 41.349 22.0433 43.2727 23.773 43.3856C26.3171 43.555 31.5967 41.0631 33.3961 39.8984C35.4216 38.5889 38.6583 35.4547 39.685 33.2134C37.6073 34.0746 36.0411 35.6876 32.8149 36.6371C25.7533 38.716 18.4829 37.6677 12.4028 33.5734C11.3413 32.8604 10.4747 31.9286 9.51758 31.3286Z" fill="#4C3933"/>
<path fill-rule="evenodd" clip-rule="evenodd" d="M2.88086 10.8642C10.9935 5.39333 16.7604 3.92151 26.6793 7.6452C29.8151 8.82407 31.1132 10.3065 33.1492 11.7324C32.1469 9.07467 29.3104 5.77453 27.5215 4.39447C25.7918 3.05676 21.7024 -0.204552 18.504 0.137815C11.6234 0.875494 4.88205 6.43103 2.88086 10.8642Z" fill="#4C3933"/>
<path fill-rule="evenodd" clip-rule="evenodd" d="M21.6808 43.5693C20.2086 42.514 18.8582 42.4998 15.2457 39.7009C13.4603 38.3173 11.6923 36.1749 10.3384 34.156C6.83373 28.9322 6.33605 24.8238 6.55183 17.5635C3.79541 22.3072 1.26174 31.7629 5.32675 36.2666C6.40217 37.4561 7.09476 38.1444 8.40336 39.1397C11.9916 41.868 16.8397 43.7881 21.6808 43.5693Z" fill="#4C3933"/>
<path fill-rule="evenodd" clip-rule="evenodd" d="M29.9403 26.8357C31.5586 26.7193 33.344 24.245 33.8173 23.4579C36.097 26.271 38.0842 28.0852 44.2061 31.9924C43.9277 32.5889 43.4091 33.729 43.0889 34.3008C40.2142 32.9701 36.5529 30.7006 34.4716 29.1194L33.0969 29.9276L32.7593 28.8229C31.663 29.5641 30.1804 30.6936 29.0702 29.7688L24.9982 25.078L22.6803 27.4499L21.4552 24.4992C20.3972 25.6675 18.2116 28.1346 17.4389 29.1158L15.5596 31.4771C14.7695 32.476 13.0433 30.6265 11.9644 30.15L11.1674 31.5689L9.80312 30.5806C8.7277 32.2324 6.52465 35.7302 2.04896 37.4844C1.66612 36.9974 1.08143 36.1397 0.733398 35.6244C5.18821 32.8678 7.23812 28.2123 9.71263 24.4321C10.7498 25.5192 13.5549 28.1064 14.5364 28.1911C17.6373 24.5309 20.0805 22.212 22.4471 18.7495C23.5678 19.2542 27.9982 25.4698 29.9403 26.8357Z" fill="url(#paint0_linear_1305_969)"/>
<path d="M64.915 34.2653C61.1854 34.2653 58.2944 33.4707 56.242 31.8929C54.0572 30.2143 52.9648 27.7524 52.9648 24.496C52.9648 21.5305 54.0241 19.1581 56.1317 17.3788C58.2393 15.5996 61.1744 14.7155 64.9261 14.7155L64.7606 12.3096C65.7647 12.4215 66.7026 12.4774 67.5743 12.4774C68.5784 12.4774 69.5053 12.4215 70.355 12.3096L70.1895 14.7155C74.3384 14.7155 77.4501 15.7339 79.5356 17.7705C81.279 19.4715 82.1507 21.7096 82.1507 24.496C82.1507 27.4167 81.0804 29.7779 78.9507 31.5796C76.8211 33.3812 73.897 34.2765 70.2005 34.2765C70.2005 34.6793 70.2226 35.0934 70.2557 35.4962C70.2888 35.8991 70.3329 36.3691 70.377 36.8838C69.9577 36.8167 69.406 36.7719 68.755 36.7495C68.0929 36.7272 67.7178 36.716 67.6295 36.716C66.6254 36.716 65.6764 36.7719 64.7826 36.8838C64.8268 36.2683 64.8709 35.6976 64.904 35.1717C64.904 34.6345 64.915 34.3324 64.915 34.2653ZM70.1784 16.4724V32.3965C71.9439 32.3965 73.3563 31.6131 74.4267 30.0576C75.4308 28.5917 75.9384 26.7341 75.9384 24.4848C75.9384 22.3362 75.4418 20.501 74.4598 18.9791C73.3674 17.3117 71.9329 16.4724 70.1784 16.4724ZM64.915 32.3965V16.4724C63.1937 16.4724 61.8034 17.2669 60.7441 18.8672C59.6848 20.4674 59.1551 22.3362 59.1551 24.4848C59.1551 26.7229 59.6737 28.6029 60.711 30.1248C61.7592 31.6355 63.1495 32.3965 64.915 32.3965Z" fill="url(#paint1_linear_1305_969)"/>
<path d="M89.4223 28.2562C89.4223 30.8635 89.7202 32.7547 90.3051 33.9409C90.9009 35.1271 91.883 35.7202 93.2733 35.7202C94.6526 35.7202 95.6457 35.1159 96.2526 33.9185C96.8595 32.7211 97.1574 30.83 97.1574 28.245C97.1574 25.6152 96.8595 23.7128 96.2747 22.5266C95.6788 21.3405 94.6857 20.7473 93.2733 20.7473C91.894 20.7473 90.9009 21.3404 90.3051 22.5154C89.7202 23.6904 89.4223 25.604 89.4223 28.2562ZM84.4017 28.2562C84.4017 25.3802 85.1851 23.1533 86.741 21.5643C88.3079 19.9752 90.4927 19.1919 93.3064 19.1919C96.1422 19.1919 98.327 19.9752 99.8718 21.5307C101.417 23.0974 102.178 25.3354 102.178 28.2562C102.178 31.1097 101.395 33.3254 99.8387 34.9145C98.2719 36.5035 96.0871 37.2868 93.2733 37.2868C90.4375 37.2868 88.2527 36.5035 86.7079 34.948C85.1741 33.3814 84.4017 31.1545 84.4017 28.2562Z" fill="url(#paint2_linear_1305_969)"/>
<path d="M103.623 19.6282C104.517 19.6282 105.974 19.6618 108.004 19.7177C110.034 19.7737 111.248 19.8072 111.656 19.8072C112.837 19.8072 114.426 19.7737 116.412 19.7177C118.398 19.6618 119.414 19.6282 119.458 19.6282C119.369 19.8296 119.325 20.2213 119.325 20.7808C119.325 21.1837 119.369 21.5977 119.458 22.0006C119.105 22.0006 118.365 21.9446 117.251 21.8439C116.136 21.7432 115.077 21.6872 114.073 21.6872C114.073 22.6608 114.062 23.4553 114.04 24.0596C113.952 26.5215 113.907 27.9315 113.907 28.2672C113.907 29.1513 113.952 30.6396 114.04 32.7322C114.128 34.8248 114.172 36.2013 114.172 36.8615C113.367 36.772 112.782 36.716 112.418 36.7048C112.054 36.6936 111.756 36.6825 111.535 36.6825C111.204 36.6825 110.884 36.6936 110.597 36.7048C110.31 36.716 109.736 36.772 108.887 36.8615C108.887 35.8656 108.931 34.422 109.019 32.5196C109.108 30.6172 109.152 29.2072 109.152 28.2784C109.152 27.2153 109.141 26.3649 109.119 25.727C109.03 23.1868 108.986 21.8439 108.986 21.6872C107.828 21.6872 106.978 21.7096 106.437 21.7544C104.583 21.911 103.646 21.9894 103.623 21.9894C103.646 21.8998 103.668 21.7096 103.69 21.4075C103.712 21.1165 103.723 20.9039 103.723 20.7584L103.623 19.6282Z" fill="url(#paint3_linear_1305_969)"/>
<path d="M126.189 28.2562C126.189 30.8635 126.487 32.7547 127.072 33.9409C127.667 35.1271 128.65 35.7202 130.04 35.7202C131.419 35.7202 132.412 35.1159 133.019 33.9185C133.626 32.7211 133.924 30.83 133.924 28.245C133.924 25.6152 133.626 23.7128 133.041 22.5266C132.445 21.3405 131.452 20.7473 130.04 20.7473C128.661 20.7473 127.667 21.3404 127.072 22.5154C126.487 23.6904 126.189 25.604 126.189 28.2562ZM121.168 28.2562C121.168 25.3802 121.952 23.1533 123.507 21.5643C125.074 19.9752 127.259 19.1919 130.073 19.1919C132.909 19.1919 135.094 19.9752 136.638 21.5307C138.183 23.0974 138.945 25.3354 138.945 28.2562C138.945 31.1097 138.161 33.3254 136.605 34.9145C135.038 36.5035 132.854 37.2868 130.04 37.2868C127.204 37.2868 125.019 36.5035 123.474 34.948C121.941 33.3814 121.168 31.1545 121.168 28.2562Z" fill="url(#paint4_linear_1305_969)"/>
<path d="M142.663 24.1828L141.858 21.8776C143.888 20.0871 145.995 19.1919 148.191 19.1919C150.199 19.1919 151.722 19.6059 152.748 20.4452C153.664 21.195 154.117 22.2133 154.117 23.5002C154.117 25.2459 153.102 26.4769 151.071 27.2042C149.935 27.5847 148.809 27.9652 147.695 28.3233C146.845 28.659 146.238 29.185 145.852 29.89C145.565 30.4159 145.422 30.9866 145.422 31.6245C145.422 32.5309 145.775 33.303 146.481 33.9521C147.187 34.6011 147.982 34.9145 148.875 34.9145C149.946 34.9145 150.873 34.7354 151.656 34.3661C152.439 34.008 153.377 33.3031 154.47 32.2623L154.735 32.3966L154.47 34.4333C153.775 35.295 152.815 35.9888 151.59 36.5035C150.365 37.0295 149.162 37.2868 147.971 37.2868C145.565 37.2868 143.711 36.7833 142.409 35.7873C141.229 34.8809 140.633 33.7171 140.633 32.2847C140.633 31.1545 140.931 30.2369 141.515 29.5543C142.111 28.8604 143.049 28.245 144.34 27.7078C145.521 27.305 146.713 26.8909 147.926 26.4881C149.306 25.8726 150.001 25.0333 150.001 23.9366C150.001 23.1645 149.78 22.5714 149.328 22.135C148.787 21.609 147.971 21.3516 146.845 21.3516C145.885 21.3516 145.046 21.6202 144.329 22.1685C143.755 22.605 143.193 23.2764 142.663 24.1828Z" fill="url(#paint5_linear_1305_969)"/>
<path d="M161.609 28.2562C161.609 30.8635 161.907 32.7547 162.492 33.9409C163.088 35.1271 164.07 35.7202 165.46 35.7202C166.839 35.7202 167.833 35.1159 168.439 33.9185C169.046 32.7211 169.344 30.83 169.344 28.245C169.344 25.6152 169.046 23.7128 168.462 22.5266C167.866 21.3405 166.873 20.7473 165.46 20.7473C164.081 20.7473 163.088 21.3404 162.492 22.5154C161.907 23.6904 161.609 25.604 161.609 28.2562ZM156.589 28.2562C156.589 25.3802 157.372 23.1533 158.928 21.5643C160.495 19.9752 162.68 19.1919 165.493 19.1919C168.329 19.1919 170.514 19.9752 172.059 21.5307C173.604 23.0974 174.365 25.3354 174.365 28.2562C174.365 31.1097 173.581 33.3254 172.026 34.9145C170.459 36.5035 168.274 37.2868 165.46 37.2868C162.624 37.2868 160.44 36.5035 158.895 34.948C157.361 33.3814 156.589 31.1545 156.589 28.2562Z" fill="url(#paint6_linear_1305_969)"/>
<path d="M182.541 28.323C182.541 30.6059 182.817 32.2956 183.358 33.3811C183.91 34.4666 184.781 35.0149 185.984 35.0149C187.209 35.0149 188.103 34.4778 188.665 33.4035C189.228 32.3292 189.504 30.6282 189.504 28.2894C189.504 23.8021 188.301 21.564 185.885 21.564C183.656 21.564 182.541 23.8132 182.541 28.323ZM182.806 19.628C182.74 20.0309 182.674 20.4561 182.619 20.9037C182.563 21.3401 182.53 21.6647 182.53 21.8661C183.843 20.0756 185.587 19.1804 187.75 19.1804C189.78 19.1804 191.413 19.9973 192.66 21.6423C193.896 23.2873 194.514 25.4806 194.514 28.2447C194.514 31.1206 193.896 33.3475 192.66 34.9142C191.424 36.492 189.681 37.2754 187.452 37.2754C186.227 37.2754 185.223 37.0739 184.439 36.6823C183.656 36.2906 183.027 35.6416 182.53 34.7687V38.0251C182.53 38.9092 182.574 40.3975 182.663 42.4901C182.751 44.5828 182.795 45.9592 182.795 46.6194C181.99 46.5299 181.405 46.4739 181.041 46.4628C180.677 46.4516 180.379 46.4404 180.158 46.4404C179.827 46.4404 179.507 46.4516 179.22 46.4628C178.933 46.4739 178.359 46.5299 177.51 46.6194C177.51 45.6235 177.554 44.1799 177.642 42.2775C177.73 40.3751 177.774 38.9651 177.774 38.0363V28.2894C177.774 27.0921 177.752 25.9618 177.708 24.8987C177.576 21.6871 177.51 19.9302 177.51 19.6392C178.47 19.7511 179.352 19.8071 180.158 19.8071C180.489 19.8071 180.82 19.8071 181.129 19.7847C181.449 19.7735 182.001 19.7175 182.806 19.628Z" fill="url(#paint7_linear_1305_969)"/>
<path d="M206.508 27.4392C204.875 27.7526 203.694 28.2561 202.955 28.9499C202.215 29.6437 201.851 30.6061 201.851 31.8482C201.851 33.8849 202.59 34.9033 204.058 34.9033C205.691 34.9033 206.508 33.8066 206.508 31.6133V27.4392ZM206.64 34.6347C205.636 36.4028 204.036 37.2868 201.851 37.2868C200.35 37.2868 199.181 36.8504 198.331 35.9663C197.482 35.0823 197.062 33.8737 197.062 32.3294C197.062 30.1137 198.309 28.5806 200.803 27.7414C201.906 27.4056 203.021 27.0476 204.135 26.6671C205.261 26.2978 206.044 25.9397 206.497 25.5928V24.9773C206.497 23.8918 206.188 23.019 205.581 22.3476C204.963 21.6761 204.124 21.3404 203.054 21.3404C201.509 21.3404 200.196 22.2916 199.104 24.194L198.298 21.8887C200.35 20.0759 202.458 19.1695 204.621 19.1695C209.023 19.1695 211.219 21.1278 211.219 25.0445L211.087 32.0385C211.087 33.3702 211.219 34.2878 211.473 34.769C211.727 35.2502 212.245 35.4964 213.029 35.4964C213.25 35.4964 213.459 35.4292 213.669 35.2949L214 36.179C213.371 36.5147 212.654 36.7832 211.837 36.9735C211.021 37.1637 210.359 37.2644 209.84 37.2644C208.141 37.2868 207.07 36.4028 206.64 34.6347Z" fill="url(#paint8_linear_1305_969)"/>
<defs>
<linearGradient id="paint0_linear_1305_969" x1="22.4698" y1="18.7495" x2="22.4698" y2="37.4844" gradientUnits="userSpaceOnUse">
<stop stop-color="#FF6760"/>
<stop offset="1" stop-color="#CF3C35"/>
</linearGradient>
<linearGradient id="paint1_linear_1305_969" x1="133.482" y1="12.3096" x2="133.482" y2="46.6194" gradientUnits="userSpaceOnUse">
<stop stop-color="#FF6760"/>
<stop offset="1" stop-color="#CF3C35"/>
</linearGradient>
<linearGradient id="paint2_linear_1305_969" x1="133.482" y1="12.3096" x2="133.482" y2="46.6194" gradientUnits="userSpaceOnUse">
<stop stop-color="#FF6760"/>
<stop offset="1" stop-color="#CF3C35"/>
</linearGradient>
<linearGradient id="paint3_linear_1305_969" x1="133.482" y1="12.3096" x2="133.482" y2="46.6194" gradientUnits="userSpaceOnUse">
<stop stop-color="#FF6760"/>
<stop offset="1" stop-color="#CF3C35"/>
</linearGradient>
<linearGradient id="paint4_linear_1305_969" x1="133.482" y1="12.3096" x2="133.482" y2="46.6194" gradientUnits="userSpaceOnUse">
<stop stop-color="#FF6760"/>
<stop offset="1" stop-color="#CF3C35"/>
</linearGradient>
<linearGradient id="paint5_linear_1305_969" x1="133.482" y1="12.3096" x2="133.482" y2="46.6194" gradientUnits="userSpaceOnUse">
<stop stop-color="#FF6760"/>
<stop offset="1" stop-color="#CF3C35"/>
</linearGradient>
<linearGradient id="paint6_linear_1305_969" x1="133.482" y1="12.3096" x2="133.482" y2="46.6194" gradientUnits="userSpaceOnUse">
<stop stop-color="#FF6760"/>
<stop offset="1" stop-color="#CF3C35"/>
</linearGradient>
<linearGradient id="paint7_linear_1305_969" x1="133.482" y1="12.3096" x2="133.482" y2="46.6194" gradientUnits="userSpaceOnUse">
<stop stop-color="#FF6760"/>
<stop offset="1" stop-color="#CF3C35"/>
</linearGradient>
<linearGradient id="paint8_linear_1305_969" x1="133.482" y1="12.3096" x2="133.482" y2="46.6194" gradientUnits="userSpaceOnUse">
<stop stop-color="#FF6760"/>
<stop offset="1" stop-color="#CF3C35"/>
</linearGradient>
</defs>
</svg>
