<svg width="24" height="24" viewBox="0 0 24 24" fill="none" xmlns="http://www.w3.org/2000/svg">
<path d="M8.82517 12.3521C8.16464 11.153 7.80005 9.72895 7.80005 8.14864L9.10892 7.82138C9.45784 7.73415 9.81756 7.91808 9.95114 8.25202L10.5237 9.68349C10.6186 9.92072 10.5805 10.1905 10.4237 10.3922L8.82517 12.3521ZM8.82517 12.3521C9.56128 13.6885 10.6649 14.7455 12.0411 15.4281M12.0411 15.4281C13.1767 15.9914 14.498 16.2998 15.9514 16.2998L16.2785 14.9909C16.3657 14.642 16.1818 14.2823 15.8478 14.1487L14.4737 13.5991C14.2065 13.4922 13.9014 13.5548 13.698 13.7583L12.0411 15.4281ZM8.8 20H15.2C16.8802 20 17.7202 20 18.362 19.673C18.9265 19.3854 19.3854 18.9265 19.673 18.362C20 17.7202 20 16.8802 20 15.2V8.8C20 7.11984 20 6.27976 19.673 5.63803C19.3854 5.07354 18.9265 4.6146 18.362 4.32698C17.7202 4 16.8802 4 15.2 4H8.8C7.11984 4 6.27976 4 5.63803 4.32698C5.07354 4.6146 4.6146 5.07354 4.32698 5.63803C4 6.27976 4 7.11984 4 8.8V15.2C4 16.8802 4 17.7202 4.32698 18.362C4.6146 18.9265 5.07354 19.3854 5.63803 19.673C6.27976 20 7.11984 20 8.8 20Z" stroke="#CF3C35" stroke-width="2" stroke-linecap="round" stroke-linejoin="round"/>
</svg>
