<svg width="44" height="55" viewBox="0 0 44 55" fill="none" xmlns="http://www.w3.org/2000/svg">
<path d="M37.1618 16.4286C38.6022 16.8567 37.7782 18.6996 36.601 18.0875C36.5875 18.0803 36.5726 18.0763 36.5573 18.0757C36.542 18.0751 36.5267 18.078 36.5126 18.0841C36.4984 18.0903 36.4858 18.0995 36.4755 18.1112C36.4653 18.1229 36.4577 18.1367 36.4533 18.1517C36.2029 19.0185 36.0102 20.6196 34.6853 20.215C33.5466 19.8683 32.4008 19.5465 31.2478 19.2497C31.1722 19.2312 31.1208 19.2583 31.0937 19.331C30.687 20.459 30.244 21.5442 30.244 22.7728C30.2497 29.0399 30.2497 35.3063 30.244 41.572C30.244 41.6433 30.2704 41.7026 30.3232 41.7497C35.4972 46.2274 39.7388 49.8689 43.0479 52.6743C43.2705 52.8626 43.4631 53.041 43.6258 53.2094C44.3086 53.9114 43.8034 54.7184 42.8895 54.7933C42.8096 54.8004 42.7561 54.7919 42.7289 54.7676L35.2183 48.3442C35.1823 48.314 35.1381 48.2952 35.0916 48.2903C35.0451 48.2853 34.9982 48.2944 34.9571 48.3164L30.4152 50.7158C30.3654 50.7418 30.3236 50.781 30.2942 50.8292C30.2648 50.8775 30.2489 50.9329 30.2482 50.9898C30.244 51.7304 30.428 53.7188 30.1241 54.3181C29.8608 54.8382 29.0239 54.9174 28.6579 54.4465C28.247 53.9179 28.4289 51.6383 28.4696 50.9191C28.4738 50.8449 28.4432 50.7907 28.3775 50.7565L23.7307 48.2864C23.6622 48.2508 23.598 48.2579 23.5381 48.3078C21.195 50.3141 18.857 52.3168 16.524 54.316C15.1862 55.4632 14.1695 53.9114 15.1926 53.0403C19.5633 49.3174 23.9291 45.5881 28.2898 41.8524C28.4068 41.7525 28.4646 41.5791 28.4631 41.3323C28.4075 35.0366 28.4018 28.741 28.446 22.4453C28.446 22.3811 28.4161 22.339 28.3561 22.319L15.9632 18.2951C15.9032 18.2751 15.869 18.2958 15.8604 18.3572C15.645 19.7912 15.8512 21.0512 16.479 22.1371C16.9884 23.0168 17.5942 23.8216 16.2992 24.331C12.3887 25.87 10.9889 30.4055 13.4931 33.858C13.9876 34.5386 13.0586 35.322 12.226 35.0395C-2.3908 30.0737 -4.35141 10.2835 8.7864 2.52244C13.1899 -0.0788692 17.9752 -0.668194 23.1421 0.754462C23.7799 0.929975 24.3343 1.34949 24.0732 2.05155C23.9105 2.48605 23.3454 2.61019 22.9751 2.77928C19.4178 4.39743 18.2299 8.60547 20.3232 11.8653C20.7384 12.5139 20.6763 13.1859 19.9208 13.4663C18.3583 14.0442 17.206 15.0245 16.464 16.4072C16.4198 16.4872 16.4412 16.5414 16.5282 16.5699L28.6258 20.5061C28.7243 20.5375 28.7885 20.5047 28.8185 20.4077L29.3236 18.8152C29.3493 18.7353 29.3222 18.6846 29.2423 18.6632C28.0008 18.3165 26.7658 17.9583 25.5372 17.5888C25.0856 17.4539 25.0128 16.846 25.1412 16.4115C25.6592 14.6692 26.2179 12.9405 26.8172 11.2253C27.0526 10.5532 27.4143 10.1466 28.1506 10.4141C31.0573 11.4658 33.9583 12.5317 36.8535 13.6119C38.1506 14.0977 37.3415 15.4376 37.0933 16.3024C37.0733 16.368 37.0961 16.4101 37.1618 16.4286ZM8.6965 11.3559C7.10832 11.2553 4.0561 11.3923 2.91527 12.4646C1.20936 14.0699 5.48161 17.2078 6.61175 17.9441C9.01328 19.5023 11.5661 20.773 14.2701 21.7561C14.3358 21.7804 14.3579 21.759 14.3365 21.6919C13.3283 18.4299 14.4221 14.9582 17.1425 12.9077C17.1579 12.8958 17.1697 12.8798 17.1766 12.8615C17.1834 12.8433 17.185 12.8235 17.1812 12.8044C17.1775 12.7853 17.1684 12.7676 17.1552 12.7533C17.1419 12.7391 17.1249 12.7288 17.1062 12.7236C15.9304 12.4225 14.7531 12.1486 13.5745 11.9017C12.0377 11.5785 12.5128 9.87901 13.7093 10.1038C14.7011 10.2921 16.0502 10.6032 17.7568 11.037C17.8396 11.0584 17.8703 11.0277 17.8489 10.9449C16.9199 7.36475 17.8325 4.41456 20.5865 2.09436C20.5954 2.08735 20.6021 2.07787 20.6056 2.06709C20.6092 2.05632 20.6095 2.04473 20.6066 2.03377C20.6036 2.02281 20.5975 2.01296 20.589 2.00547C20.5804 1.99797 20.5699 1.99315 20.5586 1.99162C13.8806 1.03485 7.41654 3.94795 3.98119 9.83192C3.94409 9.89471 3.96193 9.91968 4.0347 9.90683C6.04668 9.52798 7.79967 9.5922 9.8245 9.59005C10.625 9.58791 11.0467 10.6217 10.488 11.1247C10.0621 11.51 9.25943 11.3923 8.6965 11.3559ZM35.55 15.1337C35.5556 15.1169 35.5545 15.0987 35.5469 15.0827C35.5393 15.0668 35.5259 15.0544 35.5094 15.0481L28.3882 12.4175C28.3797 12.4145 28.3706 12.4132 28.3615 12.4137C28.3524 12.4142 28.3436 12.4166 28.3354 12.4206C28.3272 12.4245 28.3199 12.4301 28.3139 12.4369C28.3079 12.4438 28.3034 12.4517 28.3005 12.4603L27.119 16.099C27.116 16.1079 27.1149 16.1172 27.1157 16.1265C27.1165 16.1358 27.1192 16.1448 27.1236 16.1531C27.128 16.1613 27.134 16.1685 27.1413 16.1743C27.1487 16.1801 27.1571 16.1844 27.1661 16.1868L34.4627 18.263C34.48 18.2683 34.4987 18.2666 34.5148 18.2582C34.5308 18.2498 34.5429 18.2353 34.5483 18.218L35.55 15.1337ZM13.7821 23.5198C9.56337 21.9766 4.94865 19.6971 1.9264 16.3045C1.92064 16.2977 1.91298 16.2927 1.90438 16.2903C1.89579 16.2878 1.88667 16.288 1.87817 16.2907C1.86967 16.2935 1.86218 16.2987 1.85667 16.3057C1.85115 16.3128 1.84786 16.3213 1.8472 16.3302C1.20722 23.0746 4.60833 29.2368 10.6122 32.4218C10.6949 32.466 10.7263 32.4417 10.7063 32.349C9.91725 28.7288 10.9461 25.8122 13.7928 23.599C13.7992 23.5938 13.8042 23.5869 13.8073 23.5793C13.8103 23.5716 13.8114 23.5633 13.8103 23.5552C13.8092 23.5472 13.806 23.5397 13.8011 23.5335C13.7961 23.5272 13.7896 23.5225 13.7821 23.5198ZM25.199 46.9016C25.1904 46.9093 25.1837 46.919 25.1796 46.9298C25.1754 46.9406 25.1739 46.9523 25.1752 46.9638C25.1764 46.9753 25.1804 46.9863 25.1868 46.996C25.1932 47.0057 25.2018 47.0137 25.2119 47.0193L28.3133 48.6803C28.3242 48.6861 28.3365 48.6891 28.3489 48.6889C28.3613 48.6886 28.3734 48.6853 28.3841 48.679C28.3948 48.6728 28.4038 48.664 28.4101 48.6533C28.4165 48.6427 28.42 48.6306 28.4203 48.6182L28.4439 44.2646C28.4443 44.2503 28.4405 44.2362 28.4329 44.2241C28.4253 44.2119 28.4144 44.2023 28.4013 44.1963C28.3883 44.1904 28.3738 44.1884 28.3597 44.1907C28.3456 44.1929 28.3324 44.1993 28.3219 44.209L25.199 46.9016ZM33.4696 46.8438C32.4407 45.962 31.4033 45.0766 30.3574 44.1876C30.2832 44.1248 30.2461 44.1419 30.2461 44.2389V48.6032C30.2461 48.716 30.2953 48.7459 30.3938 48.6931L33.5509 47.0108C33.618 46.9751 33.6222 46.933 33.5637 46.8845C33.5366 46.8617 33.5052 46.8481 33.4696 46.8438Z" fill="#CF3C35"/>
<path d="M24.6232 9.27539L24.5825 9.26202C24.1244 9.11138 23.6308 9.36068 23.4802 9.81885L21.6484 15.3902C21.4978 15.8483 21.7471 16.3419 22.2053 16.4925L22.2459 16.5059C22.7041 16.6565 23.1976 16.4072 23.3483 15.9491L25.18 10.3777C25.3307 9.91957 25.0814 9.42603 24.6232 9.27539Z" fill="#CF3C35"/>
</svg>
