<svg width="52" height="52" viewBox="0 0 52 52" fill="none" xmlns="http://www.w3.org/2000/svg">
<path d="M23.521 48.7457V51.2285C23.521 51.3355 23.4675 51.3891 23.3605 51.3891H21.9692C21.8622 51.3891 21.8087 51.3355 21.8087 51.2285V39.5098C21.8087 39.4385 21.8444 39.4028 21.9157 39.4028H23.414C23.4854 39.4028 23.521 39.4385 23.521 39.5098V46.7722C23.521 46.79 23.5249 46.8075 23.5325 46.8235C23.5401 46.8396 23.5511 46.8538 23.5648 46.865C23.5786 46.8763 23.5946 46.8844 23.6119 46.8887C23.6291 46.893 23.647 46.8934 23.6644 46.8899L30.3361 45.5564C30.3575 45.5519 30.3765 45.5392 30.3891 45.521C30.4018 45.5028 30.4073 45.4803 30.4046 45.458C30.1249 43.3647 29.8345 41.2692 29.5334 39.1716C28.9213 34.9058 27.1212 32.881 22.9966 31.7123C21.0746 31.1672 19.1446 30.6557 17.2068 30.1776C15.3554 29.7217 12.8854 29.9957 10.9547 29.9807C10.3682 29.9764 9.79961 30.0435 9.24882 30.1819C6.80019 30.7969 4.3637 31.4547 1.93933 32.1554C1.78237 32.201 1.45489 32.3608 0.956886 32.6348C0.881259 32.6776 0.821326 32.6612 0.777091 32.5856L0.0193876 31.2949C-0.0162859 31.235 -0.00272943 31.1886 0.0600558 31.1558C0.830602 30.752 1.44561 30.4887 1.90509 30.366C4.21815 29.7424 6.53336 29.1267 8.8507 28.5188C8.92776 28.4988 8.96628 28.4489 8.96628 28.369V25.3874C8.96628 25.3132 8.93846 25.2511 8.88281 25.2012C7.24611 23.7514 6.19232 21.9556 5.72143 19.8138C5.71523 19.7858 5.69985 19.7607 5.67775 19.7425C5.65564 19.7243 5.62807 19.7139 5.59942 19.7132C3.9984 19.6939 2.28822 19.9358 1.53694 18.247C1.07461 17.2089 1.2544 15.2012 1.26724 13.8763C1.27295 13.0872 1.53694 12.4044 2.0592 11.8279C2.10771 11.7737 2.13125 11.7102 2.12983 11.6374C2.05491 9.19952 2.11056 6.98848 3.32203 4.8759C4.81746 2.27031 7.04705 0.702823 10.0108 0.173429C11.3914 -0.0748576 13.1551 0.0150391 14.6897 0.0193199C17.8661 0.0278816 20.3754 1.17514 22.2175 3.46109C24.2167 5.94182 24.4799 8.40757 24.3579 11.5668C24.3551 11.6382 24.3743 11.7038 24.4157 11.7637C24.7325 12.2218 25.0964 12.6349 25.1456 13.2149C25.2626 14.5805 25.289 15.8533 25.2248 17.0334C25.075 19.8288 23.018 19.6768 20.9076 19.7132C20.8405 19.7146 20.7992 19.7482 20.7835 19.8138C20.3069 21.9528 19.2509 23.7479 17.6157 25.1991C17.5572 25.2518 17.5279 25.3168 17.5279 25.3938V28.324C17.528 28.3688 17.543 28.4122 17.5705 28.4475C17.598 28.4828 17.6365 28.5079 17.6799 28.5188C19.8717 29.071 22.0506 29.6497 24.2167 30.2547C24.8217 30.4245 25.3782 30.6278 25.8862 30.8647C25.9081 30.8748 25.9321 30.8792 25.9561 30.8775C25.9801 30.8758 26.0033 30.8681 26.0236 30.8551C26.0439 30.8421 26.0605 30.8242 26.072 30.803C26.0836 30.7819 26.0896 30.7582 26.0895 30.7341C26.0881 29.0204 26.0888 27.3095 26.0917 25.6014C26.1002 21.509 29.2145 22.271 32.1383 22.2795C32.2139 22.281 32.2589 22.2439 32.2732 22.1682C32.5985 20.3382 32.7205 18.6516 34.5313 18.0993C34.6112 18.0751 34.6511 18.0208 34.6511 17.9367V16.3956C34.6511 16.3214 34.614 16.2843 34.5398 16.2843C32.3638 16.2914 30.1891 16.2885 28.0159 16.2757C27.3181 16.2714 26.9678 15.9368 26.965 15.2718C26.9464 11.3321 26.9421 7.39373 26.9521 3.45681C26.9535 2.88889 27.2725 2.60422 27.9089 2.60279C34.116 2.58995 40.3232 2.58495 46.5304 2.58781C47.4251 2.58995 47.5 3.28558 47.4957 3.97907C47.49 5.47593 47.49 6.97278 47.4957 8.46964C47.4972 8.54527 47.535 8.58308 47.6092 8.58308C48.6465 8.58165 49.6789 8.57737 50.7063 8.57024C51.4312 8.56453 51.7929 8.92911 51.7915 9.66399C51.7858 17.5749 51.7787 25.4859 51.7701 33.3968C51.768 34.6382 49.4349 34.2701 48.6366 34.2637C48.4725 34.2622 48.3904 34.3436 48.3904 34.5077C48.3833 36.611 47.3709 37.6633 45.3532 37.6648C44.1132 37.6648 42.8732 37.679 41.6331 37.7076C41.5589 37.709 41.5197 37.7468 41.5154 37.821C41.4662 38.6772 41.3399 39.7559 41.8065 40.5115C43.8499 43.8234 45.9475 47.236 48.0993 50.7491C48.1707 50.8647 48.1485 50.9603 48.033 51.0359L46.9307 51.7486C46.9114 51.7611 46.8898 51.7695 46.8671 51.7734C46.8445 51.7773 46.8212 51.7767 46.7987 51.7715C46.7762 51.7663 46.7549 51.7567 46.736 51.7432C46.7172 51.7298 46.7011 51.7127 46.6888 51.693L40.1927 41.1815C40.1678 41.1409 40.1305 41.1096 40.0862 41.0922C40.042 41.0748 39.9933 41.0724 39.9475 41.0852C39.9017 41.098 39.8614 41.1255 39.8326 41.1633C39.8039 41.2012 39.7882 41.2474 39.7881 41.2949V44.1031C39.7881 44.1616 39.8038 44.2158 39.8352 44.2658L43.8549 50.8133C43.8727 50.8418 43.8786 50.8761 43.8714 50.9089C43.8642 50.9417 43.8445 50.9704 43.8164 50.9888L42.6284 51.7572C42.6113 51.768 42.5921 51.7754 42.5722 51.7789C42.5522 51.7824 42.5318 51.782 42.5121 51.7776C42.4924 51.7732 42.4738 51.765 42.4574 51.7534C42.441 51.7418 42.4271 51.7271 42.4165 51.7101L39.9037 47.6241C39.8968 47.6123 39.8861 47.6031 39.8735 47.598C39.8608 47.5929 39.8468 47.5921 39.8336 47.5957C39.8204 47.5994 39.8088 47.6073 39.8006 47.6182C39.7924 47.6292 39.788 47.6425 39.7881 47.6562V51.2478C39.7881 51.3405 39.7417 51.3869 39.649 51.3869L38.2106 51.3891C38.1207 51.3891 38.0758 51.3448 38.0758 51.2563V41.2756C38.0758 41.1686 38.0223 41.1151 37.9153 41.1151H36.524C36.417 41.1151 36.3635 41.1686 36.3635 41.2756V51.2285C36.3635 51.3355 36.31 51.3891 36.2029 51.3891H34.786C34.6961 51.3891 34.6511 51.3448 34.6511 51.2563V47.9023C34.6511 47.5898 34.5698 47.567 34.4071 47.8338L32.8639 50.3638C32.8211 50.4351 32.8083 50.5108 32.8254 50.5907L32.9431 51.1622C32.9617 51.2478 32.9274 51.2956 32.8404 51.3056L31.3635 51.4747C31.2822 51.4847 31.2365 51.449 31.2265 51.3676L30.685 47.4357C30.6664 47.3059 30.5922 47.2538 30.4624 47.2795L23.6045 48.6451C23.5489 48.655 23.521 48.6886 23.521 48.7457ZM22.6306 11.0274C23.0544 6.08523 20.1157 1.74235 14.8524 1.73379C13.2471 1.73164 11.3871 1.60108 9.94659 1.93284C6.71886 2.67485 4.71044 4.76389 3.92135 8.19995C3.8343 8.58094 3.80862 9.51773 3.84429 11.0103C3.84715 11.0973 3.89281 11.1416 3.98128 11.143L5.37468 11.1516C5.47171 11.153 5.52166 11.1052 5.52451 11.0082C5.56446 9.93653 5.62154 9.2516 5.69574 8.95337C7.72913 0.710673 21.1709 1.798 20.9547 10.869C20.9504 11.056 21.0417 11.1494 21.2287 11.1494H22.4979C22.5793 11.1494 22.6235 11.1088 22.6306 11.0274ZM45.7813 4.35578C45.7813 4.34102 45.7754 4.32687 45.765 4.31643C45.7545 4.30599 45.7404 4.30013 45.7256 4.30013H28.7137C28.6989 4.30013 28.6847 4.30599 28.6743 4.31643C28.6639 4.32687 28.658 4.34102 28.658 4.35578V14.5184C28.658 14.5332 28.6639 14.5473 28.6743 14.5578C28.6847 14.5682 28.6989 14.5741 28.7137 14.5741H45.7256C45.7404 14.5741 45.7545 14.5682 45.765 14.5578C45.7754 14.5473 45.7813 14.5332 45.7813 14.5184V4.35578ZM18.9556 8.83993C17.301 3.77787 9.10969 3.86563 7.54505 8.87204C7.34956 9.49989 7.25111 10.6364 7.24968 12.2817C7.24968 16.4555 6.45987 20.7962 10.0408 23.9148C10.0993 23.9662 10.1678 23.9919 10.2462 23.9919H16.188C16.3338 23.9919 16.4744 23.9368 16.5818 23.8378C18.3413 22.2153 19.226 20.1969 19.2359 17.7825C19.2431 15.7905 19.2438 13.7978 19.2381 11.8044C19.2324 10.3889 19.1382 9.40072 18.9556 8.83993ZM47.4829 15.1434C47.4786 15.7406 47.3009 16.2885 46.6353 16.2864C44.395 16.2807 42.1497 16.2821 39.8994 16.2907C39.8252 16.2907 39.7881 16.3285 39.7881 16.4041V17.9367C39.7881 18.0151 39.8259 18.0665 39.9016 18.0908C41.8429 18.6901 41.8301 20.5265 42.1768 22.1725C42.1911 22.2439 42.2346 22.2795 42.3074 22.2795H44.8181C44.8894 22.2795 44.9251 22.2439 44.9251 22.1725V21.5839C44.9251 21.4769 44.9786 21.4234 45.0856 21.4234H46.4769C46.5839 21.4234 46.6374 21.4769 46.6374 21.5839V22.2774C46.6374 22.3559 46.6702 22.4158 46.7359 22.4572C47.6712 23.0458 48.3005 23.5167 48.3134 24.8095C48.3433 27.3537 48.3562 29.8987 48.3519 32.4443C48.3519 32.5171 48.3876 32.5535 48.4589 32.5535H49.955C50.0264 32.5535 50.0621 32.5178 50.0621 32.4465V10.4538C50.0621 10.3468 50.0086 10.2933 49.9015 10.2933H47.6027C47.5285 10.2933 47.4922 10.3304 47.4936 10.4046C47.4964 11.9856 47.4929 13.5652 47.4829 15.1434ZM5.47314 12.8917C4.39438 12.7868 3.03094 12.4915 2.99027 14.0411C2.96316 15.0699 2.97671 16.0988 3.03094 17.1276C3.09301 18.3519 4.71758 17.9987 5.41963 18.0009C5.50097 18.0009 5.54163 17.9602 5.54163 17.8789V12.9688C5.54163 12.9217 5.5188 12.896 5.47314 12.8917ZM23.3284 13.2385C22.9945 12.7269 21.6011 12.8232 21.0724 12.8874C20.9925 12.8974 20.9526 12.9424 20.9526 13.0223V17.8403C20.9526 17.9231 20.9946 17.968 21.0788 17.9752C22.7805 18.1015 23.4654 18.2813 23.5125 16.4234C23.5296 15.7256 23.6859 13.7821 23.3284 13.2385ZM38.0732 16.4119C38.0732 16.395 38.0698 16.3783 38.0633 16.3627C38.0568 16.3472 38.0473 16.3331 38.0353 16.3212C38.0233 16.3093 38.0092 16.2999 37.9936 16.2935C37.978 16.2871 37.9612 16.2838 37.9444 16.2839L36.4889 16.2889C36.4721 16.289 36.4554 16.2924 36.4398 16.2989C36.4243 16.3054 36.4101 16.3149 36.3982 16.3269C36.3864 16.3388 36.3769 16.353 36.3705 16.3686C36.3642 16.3842 36.3609 16.401 36.3609 16.4178L36.366 17.8733C36.3661 17.8901 36.3695 17.9068 36.376 17.9224C36.3825 17.938 36.392 17.9521 36.4039 17.964C36.4159 17.9758 36.4301 17.9853 36.4457 17.9916C36.4613 17.998 36.478 18.0013 36.4949 18.0013L37.9504 17.9962C37.9672 17.9961 37.9839 17.9927 37.9995 17.9862C38.015 17.9797 38.0291 17.9702 38.041 17.9582C38.0529 17.9463 38.0623 17.9321 38.0687 17.9165C38.0751 17.9009 38.0784 17.8842 38.0783 17.8673L38.0732 16.4119ZM28.3712 32.6091C29.3272 33.5523 30.05 34.6447 30.5394 35.8861C30.5623 35.9446 30.6051 35.9739 30.6679 35.9739C35.6407 35.9796 40.6072 35.9838 45.5672 35.9867C46.2892 35.9881 46.6495 35.6285 46.6481 34.9079C46.6424 31.6773 46.6388 28.446 46.6374 25.214C46.6374 24.4799 46.4533 24.0218 45.6571 24.0111C44.3943 23.9969 43.13 23.989 41.8643 23.9876C41.1002 23.9876 40.7706 23.8656 40.6207 23.095C40.4937 22.4386 40.3603 21.7823 40.2205 21.1259C40.0343 20.2504 40.0278 19.7367 39.0411 19.7218C37.8125 19.7032 36.5797 19.7068 35.3425 19.7325C34.4371 19.7496 34.4178 20.2183 34.2659 20.9247C34.1182 21.6096 33.9256 23.9812 33.033 23.9854C31.6731 23.9911 30.3133 23.994 28.9534 23.994C28.2556 23.994 27.8104 24.2059 27.8083 24.955C27.7997 27.2924 27.7983 29.629 27.804 31.9649C27.804 32.226 28.2385 32.4786 28.3712 32.6091ZM15.8156 25.8433C15.8156 25.8064 15.8009 25.771 15.7748 25.7449C15.7487 25.7188 15.7134 25.7042 15.6765 25.7042H10.8177C10.7808 25.7042 10.7454 25.7188 10.7194 25.7449C10.6933 25.771 10.6786 25.8064 10.6786 25.8433V28.1335C10.6786 28.1704 10.6933 28.2058 10.7194 28.2319C10.7454 28.258 10.7808 28.2727 10.8177 28.2727H15.6765C15.7134 28.2727 15.7487 28.258 15.7748 28.2319C15.8009 28.2058 15.8156 28.1704 15.8156 28.1335V25.8433ZM31.7723 41.9092C32.1148 41.3727 32.4365 40.844 32.7376 40.3232C33.0994 39.696 32.9388 38.5295 32.9367 37.8018C32.9367 37.7276 32.8996 37.6905 32.8254 37.6905H31.2351C31.1323 37.6905 31.0881 37.7418 31.1024 37.8446L31.6674 41.8878C31.6686 41.8994 31.6734 41.9102 31.6812 41.9187C31.689 41.9272 31.6993 41.9331 31.7109 41.9354C31.7224 41.9378 31.7345 41.9365 31.7455 41.9318C31.7565 41.9271 31.7659 41.9192 31.7723 41.9092ZM39.7881 37.8189C39.7881 37.802 39.7848 37.7853 39.7783 37.7697C39.7719 37.7542 39.7624 37.74 39.7505 37.7281C39.7386 37.7161 39.7244 37.7067 39.7088 37.7002C39.6933 37.6938 39.6766 37.6905 39.6597 37.6905H34.7796C34.7455 37.6905 34.7128 37.704 34.6888 37.7281C34.6647 37.7522 34.6511 37.7848 34.6511 37.8189V39.2744C34.6511 39.3084 34.6647 39.3411 34.6888 39.3652C34.7128 39.3892 34.7455 39.4028 34.7796 39.4028H39.6597C39.6766 39.4028 39.6933 39.3995 39.7088 39.393C39.7244 39.3866 39.7386 39.3771 39.7505 39.3652C39.7624 39.3532 39.7719 39.3391 39.7783 39.3235C39.7848 39.3079 39.7881 39.2912 39.7881 39.2744V37.8189ZM34.4392 41.0916C34.0433 41.2414 32.4337 44.1117 32.0934 44.6618C32.0577 44.7217 32.0441 44.7859 32.0527 44.8544L32.4444 47.577C32.4587 47.6797 32.4936 47.6869 32.5493 47.5984L34.5934 44.2979C34.6319 44.2351 34.6511 44.1673 34.6511 44.0946V41.235C34.6512 41.2099 34.6451 41.1853 34.6334 41.1632C34.6216 41.1411 34.6046 41.1221 34.5837 41.108C34.5628 41.0939 34.5388 41.085 34.5136 41.0822C34.4885 41.0793 34.4629 41.0825 34.4392 41.0916Z" fill="#CF3C35"/>
<path d="M36.8441 5.51824L35.8815 6.48083C35.8121 6.5502 35.8121 6.66269 35.8815 6.73207L42.4712 13.3218C42.5406 13.3912 42.6531 13.3912 42.7225 13.3218L43.6851 12.3592C43.7544 12.2899 43.7544 12.1774 43.6851 12.108L37.0953 5.51824C37.0259 5.44886 36.9134 5.44886 36.8441 5.51824Z" fill="#CF3C35"/>
<path d="M44.5568 8.66447L41.3881 5.50679C41.3178 5.4367 41.2039 5.4369 41.1338 5.50724L40.1608 6.48363C40.0908 6.55397 40.0909 6.6678 40.1613 6.7379L43.33 9.89558C43.4003 9.96567 43.5142 9.96547 43.5843 9.89513L44.5573 8.91874C44.6274 8.8484 44.6272 8.73457 44.5568 8.66447Z" fill="#CF3C35"/>
<path d="M38.7955 21.4266L35.6448 21.4211C35.5691 21.421 35.5077 21.4822 35.5076 21.5579L35.5051 22.9962C35.5049 23.0719 35.5662 23.1333 35.6418 23.1335L38.7925 23.139C38.8681 23.1391 38.9296 23.0779 38.9297 23.0022L38.9322 21.5639C38.9323 21.4882 38.8711 21.4268 38.7955 21.4266Z" fill="#CF3C35"/>
<path d="M41.5045 33.3691C41.505 33.6035 41.4122 33.8285 41.2467 33.9946C41.0812 34.1606 40.8566 34.2542 40.6221 34.2546L30.4081 34.2724C30.292 34.2726 30.177 34.25 30.0697 34.2057C29.9624 34.1615 29.8648 34.0965 29.7826 34.0146C29.7004 33.9326 29.6351 33.8353 29.5905 33.7281C29.5458 33.621 29.5228 33.5061 29.5226 33.39L29.5107 26.6006C29.5103 26.3662 29.6031 26.1412 29.7686 25.9751C29.934 25.809 30.1587 25.7155 30.3932 25.7151L40.6072 25.6973C40.7233 25.6971 40.8383 25.7197 40.9456 25.764C41.0529 25.8082 41.1505 25.8731 41.2327 25.9551C41.3149 26.037 41.3802 26.1344 41.4248 26.2415C41.4694 26.3487 41.4925 26.4636 41.4927 26.5797L41.5045 33.3691ZM39.7885 27.4827C39.7885 27.4651 39.7815 27.4482 39.769 27.4358C39.7566 27.4233 39.7397 27.4164 39.7221 27.4164H31.2932C31.2756 27.4164 31.2587 27.4233 31.2463 27.4358C31.2338 27.4482 31.2268 27.4651 31.2268 27.4827V32.487C31.2268 32.5046 31.2338 32.5215 31.2463 32.5339C31.2587 32.5463 31.2756 32.5533 31.2932 32.5533H39.7221C39.7397 32.5533 39.7566 32.5463 39.769 32.5339C39.7815 32.5215 39.7885 32.5046 39.7885 32.487V27.4827Z" fill="#CF3C35"/>
<path d="M44.7306 25.7068L43.425 25.6977C43.3127 25.6969 43.221 25.7873 43.2203 25.8996L43.2111 27.2052C43.2104 27.3175 43.3008 27.4092 43.4131 27.41L44.7187 27.4191C44.831 27.4199 44.9226 27.3295 44.9234 27.2172L44.9325 25.9116C44.9333 25.7993 44.8429 25.7076 44.7306 25.7068Z" fill="#CF3C35"/>
<path d="M44.7469 29.1238L43.3814 29.1309C43.2856 29.1314 43.2084 29.2095 43.2089 29.3052L43.2161 30.6708C43.2166 30.7665 43.2946 30.8437 43.3903 30.8432L44.7559 30.8361C44.8517 30.8356 44.9289 30.7576 44.9284 30.6618L44.9212 29.2962C44.9207 29.2005 44.8427 29.1233 44.7469 29.1238Z" fill="#CF3C35"/>
<path d="M44.7545 32.5537L43.3933 32.5442C43.2964 32.5435 43.2172 32.6215 43.2165 32.7185L43.207 34.0797C43.2064 34.1767 43.2844 34.2558 43.3813 34.2565L44.7426 34.266C44.8395 34.2667 44.9187 34.1886 44.9193 34.0917L44.9288 32.7304C44.9295 32.6335 44.8515 32.5544 44.7545 32.5537Z" fill="#CF3C35"/>
<path d="M2.97329 46.7984V39.5039C2.97329 39.4907 2.97589 39.4776 2.98095 39.4654C2.98601 39.4532 2.99342 39.4421 3.00276 39.4328C3.0121 39.4234 3.02319 39.416 3.03539 39.411C3.0476 39.4059 3.06068 39.4033 3.07389 39.4033H4.58502C4.59823 39.4033 4.61131 39.4059 4.62352 39.411C4.63572 39.416 4.64681 39.4234 4.65615 39.4328C4.66549 39.4421 4.6729 39.4532 4.67796 39.4654C4.68302 39.4776 4.68562 39.4907 4.68562 39.5039V51.289C4.68562 51.3157 4.67502 51.3413 4.65615 51.3601C4.63729 51.379 4.6117 51.3896 4.58502 51.3896H3.07389C3.04721 51.3896 3.02162 51.379 3.00276 51.3601C2.98389 51.3413 2.97329 51.3157 2.97329 51.289V48.7355C2.97323 48.7122 2.96509 48.6897 2.95025 48.6717C2.93542 48.6537 2.91482 48.6415 2.89196 48.637L0.342734 48.149C0.316657 48.1438 0.293689 48.1286 0.27885 48.1065C0.26401 48.0844 0.258505 48.0574 0.263539 48.0313L0.552495 46.5437C0.55767 46.5176 0.572958 46.4947 0.595017 46.4798C0.617075 46.465 0.644111 46.4595 0.670216 46.4645L2.85343 46.8969C2.86798 46.8997 2.88297 46.8993 2.89734 46.8957C2.91171 46.892 2.9251 46.8853 2.93655 46.8759C2.948 46.8665 2.95723 46.8547 2.96358 46.8413C2.96994 46.8279 2.97325 46.8132 2.97329 46.7984Z" fill="#CF3C35"/>
</svg>
