<svg width="54" height="54" viewBox="0 0 54 54" fill="none" xmlns="http://www.w3.org/2000/svg">
<path d="M48.3058 23.9669L48.3573 24.0537C48.3647 24.067 48.3685 24.0811 48.3685 24.096V47.7837C48.3685 47.8578 48.3983 47.9186 48.458 47.9661C50.1617 49.3255 52.0334 50.5914 53.6207 52.0687C53.6759 52.1206 53.7088 52.1851 53.7192 52.2622C53.8222 53.121 53.2759 53.3969 52.4901 53.3969C35.3811 53.3969 18.2729 53.3969 1.16548 53.3969C-0.0322816 53.3969 -0.370342 52.3846 0.587867 51.6348C2.13264 50.4275 3.66772 49.2469 5.19309 48.0929C5.2523 48.0479 5.30026 47.9901 5.33327 47.9242C5.36627 47.8582 5.38342 47.7857 5.38339 47.7125V23.978C5.38339 23.8994 5.35727 23.8297 5.30503 23.7689C4.63936 23.0065 4.29085 22.1159 4.25951 21.0969C4.25652 21.0138 4.21623 20.9567 4.13861 20.9256C3.17443 20.5503 2.21622 20.1714 1.26399 19.7887C0.390851 19.4394 -0.327805 19.0857 0.155778 18.0667C0.966225 16.3491 1.461 14.6605 1.97817 13.7528C2.20503 13.3538 2.56249 13.2477 3.05055 13.4346C4.23712 13.887 5.41697 14.3542 6.59011 14.8362C6.6707 14.8704 6.73563 14.8518 6.78488 14.7806C7.30578 14.0464 7.99682 13.5414 8.85802 13.2655C8.92966 13.2433 8.96548 13.1951 8.96548 13.1209V10.8026C8.96548 10.73 8.92891 10.6929 8.85577 10.6914C7.70801 10.6691 6.56921 10.6677 5.43936 10.6869C5.13637 10.6929 4.88488 10.5527 4.68488 10.2665C3.58488 8.68683 2.50279 7.09459 1.43861 5.48975C1.39682 5.42597 1.33787 5.38964 1.26175 5.38074C0.666224 5.30954 0.097568 5.21388 0.0572695 4.54643C0.0244337 3.99912 0.0124943 2.83628 0.0214495 1.0579C0.0236883 0.0990042 0.608016 0.00333724 1.44981 0.00333724C18.5394 -0.00111241 35.6297 -0.00111241 52.7207 0.00333724C53.3968 0.00333724 53.7386 0.348926 53.7461 1.0401C53.7565 2.05314 53.755 3.06395 53.7416 4.07254C53.7192 5.79455 52.7409 4.8668 52.2617 5.58987C51.1692 7.23327 50.0737 8.84553 48.9752 10.4266C48.9206 10.505 48.8478 10.5689 48.7632 10.6131C48.6786 10.6573 48.5846 10.6803 48.4894 10.6803H44.9252C44.8326 10.6803 44.7864 10.727 44.7864 10.8204V13.0809C44.7864 13.1698 44.8289 13.2284 44.914 13.2566C45.7632 13.5414 46.4476 14.0501 46.967 14.7828C47.0162 14.8526 47.0811 14.8711 47.1617 14.8385C48.2931 14.3713 49.4177 13.9248 50.5356 13.4991C51.3147 13.2032 51.6192 13.3879 51.9438 14.1332C52.5244 15.4696 53.0737 16.8171 53.5916 18.1757C53.8349 18.8179 53.6617 19.2651 53.0722 19.5173C51.9289 20.0052 50.7767 20.4762 49.6155 20.93C49.5379 20.9597 49.4976 21.0161 49.4946 21.0991C49.4558 22.1878 49.0617 23.1237 48.3125 23.9068C48.2946 23.9246 48.2923 23.9447 48.3058 23.9669ZM51.9506 1.90779C51.9506 1.87415 51.9371 1.8419 51.9132 1.81811C51.8892 1.79433 51.8568 1.78097 51.8229 1.78097H1.92891C1.89507 1.78097 1.86261 1.79433 1.83868 1.81811C1.81474 1.8419 1.8013 1.87415 1.8013 1.90779V3.43402C1.8013 3.46765 1.81474 3.49991 1.83868 3.52369C1.86261 3.54747 1.89507 3.56083 1.92891 3.56083H51.8229C51.8568 3.56083 51.8892 3.54747 51.9132 3.52369C51.9371 3.49991 51.9506 3.46765 51.9506 3.43402V1.90779ZM5.32294 8.09502C5.32905 8.10479 5.33752 8.11288 5.34758 8.11856C5.35764 8.12424 5.36897 8.12733 5.38054 8.12756C5.39211 8.12778 5.40355 8.12512 5.41383 8.11983C5.4241 8.11453 5.43288 8.10677 5.43936 8.09725L7.2304 5.44748C7.23728 5.43707 7.24118 5.425 7.24171 5.41256C7.24224 5.40011 7.23936 5.38776 7.23339 5.37681C7.22742 5.36586 7.21858 5.35672 7.20781 5.35036C7.19703 5.344 7.18473 5.34066 7.17219 5.34069H3.60354C3.59101 5.34066 3.5787 5.344 3.56793 5.35036C3.55715 5.35672 3.54831 5.36586 3.54234 5.37681C3.53637 5.38776 3.5335 5.40011 3.53402 5.41256C3.53455 5.425 3.53846 5.43707 3.54533 5.44748L5.32294 8.09502ZM12.4894 8.09502C12.4958 8.10513 12.5048 8.11345 12.5153 8.11922C12.5259 8.12498 12.5378 8.128 12.5498 8.128C12.5619 8.128 12.5737 8.12498 12.5843 8.11922C12.5949 8.11345 12.6038 8.10513 12.6103 8.09502L14.3946 5.45193C14.402 5.44115 14.4062 5.42855 14.4069 5.41552C14.4076 5.40249 14.4046 5.38953 14.3984 5.37805C14.3922 5.36657 14.3829 5.35701 14.3715 5.35042C14.3602 5.34383 14.3473 5.34047 14.3341 5.34069H10.7722C10.7591 5.34047 10.7461 5.34383 10.7348 5.35042C10.7235 5.35701 10.7142 5.36657 10.7079 5.37805C10.7017 5.38953 10.6988 5.40249 10.6994 5.41552C10.7001 5.42855 10.7044 5.44115 10.7117 5.45193L12.4894 8.09502ZM19.6535 8.09725C19.66 8.10735 19.6689 8.11568 19.6795 8.12144C19.6901 8.12721 19.7019 8.13023 19.714 8.13023C19.726 8.13023 19.7379 8.12721 19.7485 8.12144C19.759 8.11568 19.768 8.10735 19.7744 8.09725L21.5588 5.45193C21.5661 5.44115 21.5704 5.42855 21.5711 5.41552C21.5718 5.40249 21.5688 5.38953 21.5626 5.37805C21.5563 5.36657 21.547 5.35701 21.5357 5.35042C21.5244 5.34383 21.5114 5.34047 21.4983 5.34069H17.9364C17.9232 5.34047 17.9103 5.34383 17.899 5.35042C17.8876 5.35701 17.8784 5.36657 17.8721 5.37805C17.8659 5.38953 17.8629 5.40249 17.8636 5.41552C17.8643 5.42855 17.8685 5.44115 17.8759 5.45193L19.6535 8.09725ZM26.8177 8.09725C26.8242 8.10735 26.8331 8.11568 26.8437 8.12144C26.8542 8.12721 26.8661 8.13023 26.8782 8.13023C26.8902 8.13023 26.9021 8.12721 26.9126 8.12144C26.9232 8.11568 26.9321 8.10735 26.9386 8.09725L28.7229 5.45193C28.7303 5.44115 28.7346 5.42855 28.7353 5.41552C28.7359 5.40249 28.733 5.38953 28.7268 5.37805C28.7205 5.36657 28.7112 5.35701 28.6999 5.35042C28.6886 5.34383 28.6756 5.34047 28.6625 5.34069H25.1006C25.0874 5.34047 25.0745 5.34383 25.0632 5.35042C25.0518 5.35701 25.0425 5.36657 25.0363 5.37805C25.0301 5.38953 25.0271 5.40249 25.0278 5.41552C25.0285 5.42855 25.0327 5.44115 25.0401 5.45193L26.8177 8.09725ZM33.9819 8.09725C33.9884 8.10735 33.9973 8.11568 34.0079 8.12144C34.0184 8.12721 34.0303 8.13023 34.0423 8.13023C34.0544 8.13023 34.0663 8.12721 34.0768 8.12144C34.0874 8.11568 34.0963 8.10735 34.1028 8.09725L35.8871 5.45193C35.8945 5.44115 35.8988 5.42855 35.8994 5.41552C35.9001 5.40249 35.8972 5.38953 35.8909 5.37805C35.8847 5.36657 35.8754 5.35701 35.8641 5.35042C35.8527 5.34383 35.8398 5.34047 35.8267 5.34069H32.2647C32.2516 5.34047 32.2387 5.34383 32.2273 5.35042C32.216 5.35701 32.2067 5.36657 32.2005 5.37805C32.1942 5.38953 32.1913 5.40249 32.192 5.41552C32.1926 5.42855 32.1969 5.44115 32.2043 5.45193L33.9819 8.09725ZM43.0513 5.44748C43.0577 5.43745 43.0612 5.4259 43.0616 5.41404C43.062 5.40218 43.0592 5.39043 43.0535 5.38001C43.0478 5.36958 43.0394 5.36085 43.0292 5.35473C43.019 5.3486 43.0073 5.34529 42.9953 5.34514L39.4244 5.33846C39.4121 5.33835 39.4001 5.34159 39.3895 5.34783C39.3789 5.35407 39.3703 5.36308 39.3645 5.37386C39.3587 5.38465 39.356 5.3968 39.3567 5.409C39.3574 5.4212 39.3615 5.43297 39.3685 5.44303L41.1506 8.09947C41.1567 8.10865 41.165 8.11618 41.1748 8.12139C41.1845 8.1266 41.1954 8.12932 41.2065 8.12932C41.2176 8.12932 41.2285 8.1266 41.2383 8.12139C41.248 8.11618 41.2564 8.10865 41.2625 8.09947L43.0513 5.44748ZM48.3058 8.09057C48.3122 8.10068 48.3212 8.109 48.3317 8.11477C48.3423 8.12053 48.3542 8.12355 48.3662 8.12355C48.3783 8.12355 48.3901 8.12053 48.4007 8.11477C48.4113 8.109 48.4202 8.10068 48.4267 8.09057L50.2132 5.45193C50.2205 5.4413 50.2248 5.42891 50.2255 5.41608C50.2263 5.40324 50.2235 5.39044 50.2176 5.37903C50.2116 5.36762 50.2026 5.35804 50.1916 5.35129C50.1806 5.34453 50.168 5.34087 50.155 5.34069H46.5931C46.58 5.34047 46.567 5.34383 46.5557 5.35042C46.5444 5.35701 46.5351 5.36657 46.5288 5.37805C46.5226 5.38953 46.5196 5.40249 46.5203 5.41552C46.521 5.42855 46.5253 5.44115 46.5326 5.45193L48.3058 8.09057ZM7.13637 8.78694C7.12857 8.79845 7.12409 8.81187 7.12345 8.82573C7.1228 8.8396 7.126 8.85337 7.13271 8.86555C7.13941 8.87772 7.14936 8.88783 7.16145 8.89476C7.17355 8.9017 7.18734 8.90519 7.2013 8.90486L10.7431 8.89819C10.7569 8.89811 10.7704 8.89431 10.7821 8.88722C10.7939 8.88012 10.8035 8.86998 10.81 8.85787C10.8164 8.84577 10.8194 8.83217 10.8187 8.8185C10.8179 8.80483 10.8135 8.79162 10.8058 8.78027L9.0304 6.1305C9.02349 6.11994 9.01403 6.11127 9.00289 6.10526C8.99175 6.09925 8.97927 6.09611 8.9666 6.09611C8.95392 6.09611 8.94144 6.09925 8.9303 6.10526C8.91916 6.11127 8.9097 6.11994 8.90279 6.1305L7.13637 8.78694ZM14.2938 8.78694C14.2865 8.79808 14.2824 8.81097 14.2819 8.82424C14.2814 8.83752 14.2846 8.85068 14.291 8.86233C14.2974 8.87397 14.3069 8.88366 14.3185 8.89037C14.33 8.89708 14.3432 8.90055 14.3565 8.90041H17.9117C17.9251 8.90055 17.9383 8.89708 17.9498 8.89037C17.9614 8.88366 17.9708 8.87397 17.9773 8.86233C17.9837 8.85068 17.9868 8.83752 17.9863 8.82424C17.9858 8.81097 17.9817 8.79808 17.9744 8.78694L16.1946 6.12828C16.1878 6.11864 16.1787 6.11077 16.1682 6.10534C16.1577 6.09991 16.146 6.09707 16.1341 6.09707C16.1223 6.09707 16.1106 6.09991 16.1001 6.10534C16.0896 6.11077 16.0805 6.11864 16.0737 6.12828L14.2938 8.78694ZM21.458 8.78694C21.4507 8.79808 21.4466 8.81097 21.4461 8.82424C21.4456 8.83752 21.4487 8.85068 21.4552 8.86233C21.4616 8.87397 21.4711 8.88366 21.4826 8.89037C21.4942 8.89708 21.5073 8.90055 21.5207 8.90041H25.0759C25.0893 8.90055 25.1024 8.89708 25.114 8.89037C25.1255 8.88366 25.135 8.87397 25.1415 8.86233C25.1479 8.85068 25.151 8.83752 25.1505 8.82424C25.15 8.81097 25.1459 8.79808 25.1386 8.78694L23.3588 6.12828C23.3519 6.11864 23.3429 6.11077 23.3324 6.10534C23.3219 6.09991 23.3102 6.09707 23.2983 6.09707C23.2865 6.09707 23.2748 6.09991 23.2643 6.10534C23.2537 6.11077 23.2447 6.11864 23.2379 6.12828L21.458 8.78694ZM28.6222 8.78694C28.6149 8.79808 28.6108 8.81097 28.6103 8.82424C28.6098 8.83752 28.6129 8.85068 28.6194 8.86233C28.6258 8.87397 28.6353 8.88366 28.6468 8.89037C28.6584 8.89708 28.6715 8.90055 28.6849 8.90041H32.2401C32.2535 8.90055 32.2666 8.89708 32.2782 8.89037C32.2897 8.88366 32.2992 8.87397 32.3056 8.86233C32.3121 8.85068 32.3152 8.83752 32.3147 8.82424C32.3142 8.81097 32.3101 8.79808 32.3028 8.78694L30.5229 6.12828C30.5161 6.11864 30.5071 6.11077 30.4966 6.10534C30.486 6.09991 30.4743 6.09707 30.4625 6.09707C30.4506 6.09707 30.439 6.09991 30.4284 6.10534C30.4179 6.11077 30.4089 6.11864 30.402 6.12828L28.6222 8.78694ZM35.7864 8.78694C35.7791 8.79808 35.775 8.81097 35.7745 8.82424C35.774 8.83752 35.7771 8.85068 35.7835 8.86233C35.79 8.87397 35.7995 8.88366 35.811 8.89037C35.8225 8.89708 35.8357 8.90055 35.8491 8.90041H39.4043C39.4176 8.90055 39.4308 8.89708 39.4423 8.89037C39.4539 8.88366 39.4634 8.87397 39.4698 8.86233C39.4762 8.85068 39.4794 8.83752 39.4789 8.82424C39.4784 8.81097 39.4743 8.79808 39.467 8.78694L37.6871 6.12828C37.6803 6.11864 37.6712 6.11077 37.6607 6.10534C37.6502 6.09991 37.6385 6.09707 37.6267 6.09707C37.6148 6.09707 37.6031 6.09991 37.5926 6.10534C37.5821 6.11077 37.573 6.11864 37.5662 6.12828L35.7864 8.78694ZM42.9416 8.79362C42.9342 8.8044 42.9299 8.817 42.9293 8.83003C42.9286 8.84306 42.9315 8.85602 42.9378 8.8675C42.944 8.87898 42.9533 8.88854 42.9647 8.89513C42.976 8.90171 42.9889 8.90508 43.002 8.90486L46.5752 8.89819C46.5881 8.898 46.6008 8.89434 46.6118 8.88759C46.6228 8.88084 46.6318 8.87125 46.6377 8.85984C46.6437 8.84844 46.6464 8.83564 46.6457 8.8228C46.6449 8.80997 46.6407 8.79757 46.6334 8.78694L44.8423 6.12383C44.8358 6.11419 44.8269 6.1063 44.8166 6.10085C44.8063 6.09539 44.7947 6.09254 44.783 6.09254C44.7713 6.09254 44.7598 6.09539 44.7494 6.10085C44.7391 6.1063 44.7303 6.11419 44.7237 6.12383L42.9416 8.79362ZM10.911 13.0987C12.355 13.4168 13.8237 14.2978 15.308 15.0676C15.8588 15.3524 16.3468 15.7595 16.0558 16.3914C14.605 19.521 13.17 22.6587 11.7506 25.8046C11.5356 26.2793 11.2371 26.5937 10.855 26.7479C10.7879 26.7746 10.7543 26.8243 10.7543 26.897C10.7588 32.7216 10.7573 38.5469 10.7498 44.373C10.7476 46.1707 9.39309 47.2408 7.98936 48.0907C7.97128 48.1018 7.95612 48.117 7.94511 48.1351C7.9341 48.1531 7.92756 48.1736 7.92603 48.1946C7.9245 48.2157 7.92802 48.2368 7.93631 48.2563C7.94459 48.2757 7.9574 48.2929 7.97369 48.3065L11.858 51.5258C11.9289 51.5847 12.0177 51.617 12.1088 51.617H41.6498C41.7394 51.617 41.8258 51.5854 41.8938 51.528L45.7468 48.3265C45.8259 48.2613 45.8252 48.1967 45.7446 48.133C43.2774 46.2196 43.0088 45.9593 43.002 42.8023C42.9931 37.4894 42.9916 32.1758 42.9976 26.8614C42.9976 26.7843 42.961 26.7324 42.8879 26.7057C42.5177 26.5766 42.2819 26.4016 42.1804 26.1806C40.7177 22.9887 39.2595 19.7954 37.8058 16.6005C37.5931 16.1333 37.4923 15.655 37.9692 15.3591C39.3856 14.4795 41.0244 13.709 42.8856 13.0475C42.9588 13.0223 42.9953 12.9704 42.9953 12.8917L42.9931 10.7693C42.9931 10.7457 42.9837 10.723 42.9669 10.7063C42.9501 10.6896 42.9273 10.6803 42.9035 10.6803H10.8953C10.8028 10.6803 10.7565 10.727 10.7565 10.8204V12.9073C10.7565 13.0126 10.808 13.0764 10.911 13.0987ZM13.9289 16.378C11.9229 15.3457 9.42667 13.468 7.9401 16.4871C6.93264 18.5383 4.44981 21.7532 7.6804 23.315C8.52518 23.7229 9.37369 24.1278 10.2259 24.5298C10.2991 24.5639 10.352 24.5446 10.3849 24.472L13.9894 16.5494C14.0033 16.5189 14.0048 16.4842 13.9935 16.4523C13.9823 16.4205 13.9592 16.3939 13.9289 16.378ZM46.6222 22.9546C49.0356 21.6687 46.6894 18.2513 45.9461 16.7474C45.5431 15.9331 45.1588 15.4051 44.7931 15.1633C43.3804 14.2333 41.1506 15.6639 39.814 16.3936C39.7453 16.4322 39.7274 16.4878 39.7603 16.5605L43.4073 24.5298C43.4341 24.5906 43.4774 24.6054 43.5371 24.5743C44.5625 24.0448 45.5909 23.5049 46.6222 22.9546ZM5.89831 16.5627C5.90316 16.5534 5.90601 16.5433 5.9067 16.5328C5.90739 16.5224 5.9059 16.512 5.90233 16.5021C5.89875 16.4923 5.89317 16.4833 5.88593 16.4758C5.87869 16.4682 5.86994 16.4622 5.86025 16.4581L3.26996 15.4191C3.26057 15.4152 3.25047 15.4131 3.24027 15.4131C3.23007 15.4131 3.21997 15.4151 3.21057 15.4191C3.20117 15.423 3.19267 15.4288 3.18556 15.4361C3.17846 15.4433 3.1729 15.452 3.16921 15.4614L2.11025 18.109C2.1029 18.1275 2.10325 18.1483 2.11122 18.1666C2.11919 18.185 2.13413 18.1994 2.15279 18.2069L4.49906 19.1724C4.51668 19.1795 4.53633 19.1798 4.55415 19.1732C4.57196 19.1666 4.58665 19.1536 4.59533 19.1368L5.89831 16.5627ZM50.5219 15.4428C50.5156 15.4282 50.5037 15.4166 50.4888 15.4107C50.474 15.4048 50.4573 15.405 50.4426 15.4112L47.9774 16.4612C47.9701 16.4643 47.9635 16.4688 47.9579 16.4745C47.9524 16.4801 47.948 16.4868 47.9451 16.4941C47.9421 16.5015 47.9406 16.5093 47.9407 16.5172C47.9408 16.5251 47.9425 16.5329 47.9456 16.5401L49.0851 19.1821C49.0914 19.1968 49.1034 19.2083 49.1182 19.2143C49.1331 19.2202 49.1498 19.22 49.1645 19.2137L51.6297 18.1637C51.637 18.1606 51.6436 18.1561 51.6491 18.1505C51.6547 18.1448 51.6591 18.1381 51.662 18.1308C51.665 18.1235 51.6664 18.1156 51.6663 18.1078C51.6662 18.0999 51.6646 18.0921 51.6615 18.0848L50.5219 15.4428ZM8.88488 25.8803L7.33115 25.0704C7.22667 25.0156 7.17443 25.0474 7.17443 25.1661V46.2864C7.17443 46.3887 7.2207 46.4161 7.31324 46.3687C8.50876 45.7613 8.9207 45.194 8.92518 43.8302C8.95205 37.8676 8.96772 31.9318 8.97219 26.0227C8.97219 25.9589 8.94309 25.9114 8.88488 25.8803ZM44.7617 44.1483C44.7595 45.234 45.5812 45.8481 46.3826 46.3687C46.4016 46.3812 46.4236 46.3883 46.4463 46.3894C46.469 46.3904 46.4916 46.3853 46.5116 46.3745C46.5317 46.3638 46.5483 46.3478 46.5599 46.3284C46.5715 46.3089 46.5776 46.2867 46.5774 46.2641V25.244C46.5774 25.1016 46.5132 25.0623 46.3849 25.1261L44.9207 25.8558C44.8356 25.8973 44.7931 25.9648 44.7931 26.0583C44.7841 32.0949 44.7737 38.125 44.7617 44.1483ZM44.755 51.468C44.7434 51.4772 44.735 51.4898 44.7309 51.5039C44.7268 51.5181 44.7272 51.5332 44.7322 51.5472C44.7371 51.5611 44.7462 51.5732 44.7583 51.5817C44.7705 51.5902 44.785 51.5948 44.7998 51.5948L46.5125 51.6237C46.5315 51.6237 46.5497 51.6162 46.5632 51.6029C46.5766 51.5895 46.5841 51.5714 46.5841 51.5525L46.5617 50.0975C46.5617 50.0839 46.5577 50.0705 46.5502 50.0591C46.5428 50.0476 46.5322 50.0386 46.5197 50.0329C46.5072 50.0273 46.4933 50.0254 46.4797 50.0274C46.4662 50.0293 46.4534 50.0351 46.4431 50.0441L44.755 51.468ZM8.98787 51.617C9.00284 51.6168 9.01739 51.612 9.02958 51.6034C9.04177 51.5947 9.05104 51.5826 9.05614 51.5686C9.06123 51.5546 9.06193 51.5394 9.05814 51.525C9.05434 51.5106 9.04623 51.4977 9.03488 51.488L7.311 50.0752C7.30026 50.0664 7.28723 50.0608 7.27342 50.059C7.25961 50.0573 7.24558 50.0594 7.23294 50.0652C7.2203 50.071 7.20958 50.0803 7.202 50.0919C7.19442 50.1035 7.1903 50.117 7.1901 50.1309L7.16772 51.5414C7.16742 51.5512 7.16911 51.561 7.17268 51.5702C7.17626 51.5793 7.18166 51.5877 7.18855 51.5948C7.19544 51.6018 7.20369 51.6074 7.2128 51.6112C7.22191 51.6151 7.2317 51.617 7.2416 51.617H8.98787ZM3.69085 51.4791C3.67957 51.4875 3.67124 51.4992 3.66704 51.5126C3.66284 51.526 3.66298 51.5403 3.66743 51.5536C3.67189 51.5669 3.68044 51.5784 3.69188 51.5866C3.70331 51.5948 3.71705 51.5992 3.73115 51.5992L5.31622 51.5926C5.33404 51.5926 5.35112 51.5855 5.36372 51.573C5.37631 51.5605 5.38339 51.5435 5.38339 51.5258V50.3111C5.38339 50.2987 5.37992 50.2865 5.37336 50.276C5.3668 50.2654 5.35742 50.2569 5.34626 50.2514C5.33511 50.2458 5.32262 50.2435 5.31019 50.2446C5.29777 50.2457 5.2859 50.2502 5.27593 50.2577L3.69085 51.4791ZM48.3662 51.5125C48.3659 51.5243 48.368 51.5362 48.3724 51.5472C48.3768 51.5583 48.3833 51.5683 48.3917 51.5768C48.4 51.5853 48.41 51.5921 48.421 51.5967C48.432 51.6013 48.4438 51.6037 48.4558 51.6037L49.9759 51.6215C49.9944 51.6214 50.0123 51.6156 50.0273 51.6049C50.0423 51.5943 50.0537 51.5793 50.0598 51.5621C50.0659 51.5448 50.0665 51.526 50.0615 51.5084C50.0565 51.4908 50.0462 51.4751 50.0319 51.4635L48.514 50.2821C48.5007 50.2722 48.4849 50.2662 48.4683 50.2647C48.4517 50.2632 48.4351 50.2663 48.4202 50.2737C48.4053 50.2811 48.3928 50.2925 48.3841 50.3065C48.3753 50.3206 48.3707 50.3368 48.3707 50.3533L48.3662 51.5125Z" fill="#CF3C35"/>
<path d="M13.4401 44.3435C13.4387 43.5321 13.4387 42.0808 13.4401 39.9895C13.4401 39.2983 13.72 38.6798 14.2797 38.134C14.3349 38.0806 14.361 38.0161 14.3581 37.9404C14.2909 36.3986 14.1073 34.1271 14.8081 32.7499C15.8984 30.6052 17.6312 30.2603 20.0513 30.2603C24.8827 30.2588 29.7125 30.2603 34.5409 30.2648C36.6528 30.2663 38.1252 31.1139 38.9581 32.8077C39.6319 34.1827 39.4551 36.4209 39.3969 37.9493C39.3939 38.0264 39.4193 38.0917 39.473 38.1451C40.767 39.4066 40.3148 42.5592 40.3058 44.2545C40.3053 44.3222 40.3272 44.3882 40.3681 44.4422C40.409 44.4961 40.4666 44.5349 40.5319 44.5526C41.5707 44.8285 41.3603 46.2457 40.2521 46.2501C31.4043 46.2798 22.5566 46.2865 13.7088 46.2702C12.3655 46.2679 12.1439 44.7751 13.3081 44.5103C13.3976 44.4896 13.4416 44.4339 13.4401 44.3435ZM37.6036 37.2351C37.7043 35.175 37.9081 32.0268 34.823 32.0268C29.7737 32.0298 24.7245 32.0342 19.6752 32.0402C15.8625 32.0469 16.0864 34.2205 16.1334 37.2062C16.1349 37.2937 16.1797 37.3412 16.2678 37.3486C16.8745 37.4042 17.8327 37.273 18.3051 37.4688C19.0327 37.7713 18.8334 39.4355 18.8066 39.9094C18.8021 40.0013 18.8454 40.0473 18.9364 40.0473H34.7715C34.8506 40.0473 34.8939 40.008 34.9013 39.9294C34.9864 39.1396 34.6103 37.3219 35.8864 37.3731C36.4013 37.3953 36.9297 37.3924 37.4715 37.3642C37.5551 37.3597 37.5991 37.3167 37.6036 37.2351ZM38.479 40.0073C38.4588 39.1351 37.5051 39.0506 36.8424 39.1885C36.7693 39.2034 36.7319 39.2479 36.7304 39.322C36.717 40.1853 37.0663 41.8272 35.7207 41.8294C29.861 41.8324 24.0013 41.8302 18.1416 41.8227C16.6976 41.8205 17.0267 40.5123 17.02 39.2976C17.0185 39.2219 16.9797 39.1789 16.9036 39.1685C16.4513 39.1092 16.0185 39.1618 15.6051 39.3265C15.529 39.3561 15.4722 39.4073 15.4349 39.48C14.9692 40.4011 15.229 43.2488 15.2401 44.3902C15.2416 44.4614 15.2782 44.497 15.3498 44.497H38.4051C38.435 44.497 38.4637 44.4853 38.485 44.4645C38.5064 44.4437 38.5187 44.4154 38.5193 44.3857C38.5252 42.9233 38.5118 41.4638 38.479 40.0073Z" fill="#CF3C35"/>
</svg>
