<svg width="48" height="48" viewBox="0 0 48 48" fill="none" xmlns="http://www.w3.org/2000/svg">
<path d="M6.4935 11.1355L6.53183 35.2412C6.53183 35.316 6.55287 35.3841 6.59496 35.4455C7.99434 37.5093 9.39447 39.5709 10.7954 41.6302C11.704 42.9681 10.1054 43.8908 9.37719 42.8132C8.04845 40.8512 7.14133 39.5132 6.65583 38.7994C6.57316 38.6766 6.52807 38.6886 6.52056 38.8353C6.45292 40.061 6.44465 41.1483 6.49575 42.0971C6.57692 43.6079 4.67175 43.6775 4.64469 42.2071C4.62215 41.0368 4.62966 39.8747 4.66724 38.7208C4.66726 38.7097 4.66372 38.699 4.65715 38.6901C4.65057 38.6812 4.64131 38.6746 4.63072 38.6714C4.62012 38.6681 4.60876 38.6683 4.59829 38.672C4.58782 38.6756 4.57879 38.6825 4.57254 38.6916C3.579 40.1433 2.58696 41.5845 1.59642 43.0153C0.965118 43.929 -0.671753 43.0153 0.302252 41.6594C1.48519 40.0161 2.90862 37.9224 4.57254 35.3781C4.61012 35.3213 4.62891 35.2592 4.62891 35.1918L4.63117 10.7C4.63117 10.5907 4.58006 10.5159 4.47785 10.4755C2.00902 9.49671 -0.559021 9.03426 0.518698 5.50753C0.885453 4.30875 1.69111 3.65698 2.93567 3.55222C4.76795 3.39657 6.84823 3.61732 9.17652 4.21447C9.25318 4.23392 9.32458 4.22419 9.39071 4.18528C11.6874 2.86678 13.9849 1.55426 16.2832 0.247731C17.2639 -0.311249 18.0959 0.110793 17.8389 1.30957C16.6559 6.80807 15.4707 12.3058 14.2833 17.8028C14.1007 18.6447 12.9869 18.4583 12.5585 17.8702C10.9953 15.7211 9.4328 13.5697 7.87108 11.4161C7.82148 11.3502 7.7561 11.3083 7.67493 11.2904L6.59947 11.0502C6.52882 11.0337 6.4935 11.0622 6.4935 11.1355ZM10.3377 5.75671C10.329 5.76169 10.3214 5.76848 10.3156 5.77661C10.3098 5.78475 10.3057 5.79404 10.3038 5.80385L9.34562 10.2645C9.34372 10.2737 9.34374 10.2833 9.34568 10.2926C9.34762 10.3018 9.35144 10.3106 9.35689 10.3183L12.8538 15.1539C12.8615 15.1652 12.8724 15.174 12.8851 15.1792C12.8978 15.1844 12.9117 15.1857 12.9252 15.1831C12.9386 15.1805 12.951 15.174 12.9608 15.1644C12.9706 15.1548 12.9773 15.1425 12.9801 15.1292L15.6068 2.88324C15.6091 2.87038 15.6078 2.85712 15.603 2.84497C15.5981 2.83282 15.5899 2.82227 15.5794 2.81454C15.5688 2.8068 15.5562 2.8022 15.5431 2.80125C15.53 2.8003 15.5169 2.80304 15.5053 2.80916L10.3377 5.75671ZM5.35941 5.44916L2.98979 5.33691C2.90862 5.33242 2.83647 5.35413 2.77334 5.40202C2.24801 5.79487 2.07891 6.49977 2.12626 7.12834C2.17361 7.75467 3.7496 8.23508 4.74841 8.56508C4.82657 8.59052 4.87392 8.56358 4.89045 8.48426L5.50371 5.63549C5.52926 5.51725 5.48116 5.45515 5.35941 5.44916ZM8.32697 5.99918C8.32995 5.98534 8.33017 5.97106 8.3276 5.95714C8.32504 5.94322 8.31974 5.92993 8.31202 5.91805C8.3043 5.90617 8.2943 5.89592 8.2826 5.88788C8.2709 5.87985 8.25772 5.87419 8.24382 5.87122L7.54279 5.7216C7.52889 5.71863 7.51454 5.71842 7.50056 5.72097C7.48658 5.72353 7.47325 5.7288 7.46131 5.73648C7.44938 5.74417 7.43908 5.75412 7.43101 5.76577C7.42294 5.77742 7.41725 5.79053 7.41427 5.80437L6.70724 9.08812C6.70426 9.10195 6.70405 9.11624 6.70661 9.13016C6.70918 9.14408 6.71447 9.15736 6.7222 9.16925C6.72992 9.18113 6.73991 9.19138 6.75161 9.19942C6.76331 9.20745 6.77649 9.21311 6.79039 9.21607L7.49143 9.3657C7.50532 9.36867 7.51967 9.36888 7.53365 9.36633C7.54763 9.36377 7.56097 9.3585 7.5729 9.35082C7.58484 9.34313 7.59513 9.33318 7.6032 9.32153C7.61127 9.30988 7.61696 9.29677 7.61994 9.28293L8.32697 5.99918Z" fill="#CF3C35"/>
<path d="M41.3227 11.0571L40.2337 11.2995C40.1661 11.3145 40.1119 11.3496 40.0714 11.405C38.5382 13.5137 37.002 15.6224 35.4629 17.7311C34.3536 19.2509 33.6434 17.9781 33.4021 16.8511C32.3154 11.7358 31.2309 6.61964 30.1487 1.50277C29.8691 0.189503 30.4981 -0.405395 31.7314 0.299503C34.0071 1.60005 36.2873 2.8946 38.572 4.18318C38.6382 4.22059 38.708 4.22957 38.7817 4.21011C40.611 3.7327 42.4643 3.50746 44.3417 3.5344C46.4137 3.56583 47.4756 4.46603 47.6267 6.56726C47.8296 9.38909 45.3247 9.73032 43.4127 10.4868C43.3346 10.5183 43.2955 10.5751 43.2955 10.6575C43.294 18.7541 43.2947 26.8462 43.2978 34.9338C43.2978 35.3985 43.539 35.6566 43.7802 36.0113C45.1045 37.9524 46.4219 39.8973 47.7326 41.8458C47.9806 42.2162 47.9671 42.5417 47.8611 42.9369C47.8401 43.0177 47.7943 43.0805 47.7236 43.1254C47.1164 43.5071 46.5903 43.3783 46.1454 42.7393C45.221 41.4133 44.2913 40.0656 43.3564 38.6962C43.3503 38.6876 43.3415 38.6811 43.3315 38.6778C43.3214 38.6744 43.3105 38.6744 43.3004 38.6777C43.2904 38.6809 43.2816 38.6873 43.2754 38.6959C43.2693 38.7045 43.266 38.7149 43.2662 38.7254C43.3233 39.9886 43.3158 41.2637 43.2436 42.5507C43.2301 42.8246 42.8852 43.1636 42.5943 43.2264C41.6428 43.4352 41.4287 42.6832 41.4377 41.8997C41.4527 40.8626 41.4474 39.8247 41.4219 38.786C41.4189 38.6738 41.3851 38.6633 41.3204 38.7546C40.3539 40.1195 39.4138 41.4919 38.4999 42.8717C37.8235 43.8909 36.2114 42.9032 37.1358 41.5832C38.5653 39.5448 39.9684 37.4892 41.3452 35.4164C41.3813 35.3626 41.3993 35.3034 41.3993 35.2391L41.4151 11.1311C41.4151 11.0668 41.3843 11.0421 41.3227 11.0571ZM37.6161 5.80175C37.6139 5.79113 37.6096 5.78106 37.6034 5.77218C37.5972 5.7633 37.5892 5.75578 37.58 5.75011L32.4281 2.80256C32.4148 2.79468 32.3995 2.79086 32.384 2.79158C32.3686 2.79231 32.3537 2.79754 32.3412 2.80663C32.3287 2.81572 32.3192 2.82827 32.3138 2.84271C32.3084 2.85716 32.3074 2.87286 32.3109 2.88787L34.9398 15.0934C34.9432 15.1079 34.9508 15.1211 34.9615 15.1315C34.9722 15.1419 34.9857 15.1491 35.0004 15.1522C35.015 15.1552 35.0303 15.1541 35.0443 15.1488C35.0583 15.1436 35.0706 15.1345 35.0796 15.1226L38.5698 10.332C38.5763 10.323 38.5809 10.3128 38.5833 10.302C38.5856 10.2911 38.5856 10.2799 38.5833 10.2691L37.6161 5.80175ZM45.6967 7.43828C45.8748 6.83889 45.7869 5.36848 44.8715 5.34154C44.2958 5.32358 43.5164 5.36923 42.5334 5.47848C42.4387 5.48896 42.4012 5.54059 42.4207 5.63338L43.0294 8.49562C43.049 8.58991 43.1046 8.61909 43.1963 8.58318L45.4577 7.69869C45.5147 7.67628 45.5658 7.64119 45.6072 7.59607C45.6486 7.55096 45.6792 7.497 45.6967 7.43828ZM40.5153 5.83313C40.5077 5.79762 40.4862 5.76659 40.4555 5.74686C40.4249 5.72713 40.3877 5.72032 40.352 5.72794L39.7083 5.86535C39.6726 5.87296 39.6415 5.89436 39.6216 5.92486C39.6018 5.95535 39.595 5.99243 39.6026 6.02794L40.2993 9.26343C40.3069 9.29894 40.3284 9.32997 40.359 9.3497C40.3897 9.36943 40.4269 9.37623 40.4626 9.36862L41.1063 9.23121C41.142 9.2236 41.1731 9.20219 41.193 9.1717C41.2128 9.14121 41.2196 9.10412 41.212 9.06861L40.5153 5.83313Z" fill="#CF3C35"/>
<path d="M22.8552 42.2496C21.6302 43.7746 20.3698 45.3064 19.0742 46.8449C18.5827 47.4285 17.9897 47.8618 17.3719 47.1367C17.0766 46.7887 17.1622 46.3083 17.4553 45.9514C19.2951 43.7035 21.1394 41.4579 22.9882 39.2145C23.0363 39.1561 23.0604 39.0895 23.0604 39.0147V30.9891C23.0604 30.9158 23.0236 30.8791 22.9499 30.8791C21.3085 30.8732 19.6739 30.8657 18.0461 30.8567C16.1973 30.8455 15.6719 29.75 15.6764 28.0596C15.6794 26.1649 15.6779 24.2724 15.6719 22.3822C15.6652 20.5167 16.4227 19.3112 18.524 19.5694C18.6127 19.5813 18.6698 19.5447 18.6954 19.4594C19.1351 18.0563 19.2117 15.5689 21.3401 15.4477C23.0266 15.3519 24.7145 15.346 26.404 15.4298C28.6023 15.5375 28.7466 17.5871 29.1366 19.2124C29.1908 19.4369 29.3335 19.5439 29.565 19.5334C31.6325 19.4436 32.2548 20.5706 32.2503 22.4338C32.2458 24.1983 32.2458 25.9621 32.2503 27.7251C32.2548 29.3953 31.964 30.85 30.034 30.8634C28.3505 30.8724 26.6648 30.8762 24.9768 30.8747C24.9017 30.8747 24.8641 30.9121 24.8641 30.9869V39.0147C24.8641 39.088 24.8874 39.1531 24.934 39.21C26.7542 41.41 28.5677 43.6122 30.3744 45.8167C31.3958 47.0649 29.8514 48.1424 28.9405 47.0132C27.6283 45.3879 26.3048 43.7626 24.9701 42.1373C24.9632 42.1298 24.9543 42.1244 24.9444 42.1219C24.9345 42.1194 24.9241 42.1199 24.9145 42.1232C24.9049 42.1266 24.8965 42.1327 24.8903 42.1408C24.8841 42.1489 24.8805 42.1586 24.8799 42.1687C24.8679 43.5441 24.8611 44.9202 24.8596 46.2971C24.8573 47.9426 23.0604 47.9134 23.0626 46.3555C23.0656 45.0415 23.0604 43.6945 23.0469 42.3147C23.0472 42.2926 23.0405 42.2711 23.0278 42.2532C23.0151 42.2352 22.9969 42.2217 22.9758 42.2146C22.9547 42.2074 22.9317 42.2069 22.9101 42.2132C22.8885 42.2195 22.8693 42.2322 22.8552 42.2496ZM26.395 17.2504C24.7957 17.2115 23.2009 17.2272 21.6106 17.2975C20.9839 17.3245 20.7065 19.181 20.6479 19.41C20.6359 19.4579 20.6547 19.4818 20.7043 19.4818H27.2112C27.2743 19.4818 27.2976 19.4519 27.2811 19.392L26.7715 17.5445C26.7189 17.3544 26.5934 17.2564 26.395 17.2504ZM30.3817 21.628C30.3816 21.5953 30.3751 21.5629 30.3625 21.5327C30.3498 21.5025 30.3314 21.475 30.3081 21.4519C30.2848 21.4288 30.2572 21.4105 30.2268 21.398C30.1964 21.3856 30.1638 21.3792 30.131 21.3792L17.7801 21.4007C17.7472 21.4008 17.7147 21.4073 17.6843 21.4198C17.654 21.4324 17.6264 21.4508 17.6032 21.474C17.58 21.4972 17.5616 21.5247 17.5491 21.5549C17.5366 21.5852 17.5302 21.6176 17.5302 21.6503L17.5428 28.816C17.5429 28.8487 17.5494 28.8811 17.562 28.9113C17.5746 28.9416 17.5931 28.969 17.6164 28.9921C17.6397 29.0152 17.6673 29.0335 17.6977 29.046C17.7281 29.0584 17.7606 29.0648 17.7935 29.0648L30.1444 29.0433C30.1773 29.0433 30.2098 29.0368 30.2402 29.0242C30.2705 29.0116 30.2981 28.9932 30.3213 28.97C30.3445 28.9468 30.3628 28.9193 30.3754 28.8891C30.3879 28.8588 30.3943 28.8264 30.3942 28.7937L30.3817 21.628Z" fill="#CF3C35"/>
<path d="M25.8425 27.4847C25.8425 27.5996 25.8198 27.7135 25.7756 27.8197C25.7314 27.9259 25.6667 28.0225 25.585 28.1038C25.5034 28.1851 25.4064 28.2495 25.2997 28.2935C25.193 28.3375 25.0787 28.3602 24.9632 28.3602H19.2094C18.9762 28.3602 18.7525 28.2679 18.5876 28.1038C18.4227 27.9396 18.3301 27.7169 18.3301 27.4847V23.0532C18.3301 22.821 18.4227 22.5984 18.5876 22.4342C18.7525 22.27 18.9762 22.1777 19.2094 22.1777H24.9632C25.1964 22.1777 25.4201 22.27 25.585 22.4342C25.7499 22.5984 25.8425 22.821 25.8425 23.0532V27.4847ZM24.0165 24.0624C24.0165 24.05 24.014 24.0377 24.0092 24.0263C24.0044 24.0149 23.9974 24.0045 23.9886 23.9957C23.9798 23.987 23.9694 23.9801 23.9579 23.9754C23.9464 23.9706 23.9341 23.9682 23.9216 23.9682L20.2736 23.9746C20.2612 23.9746 20.2489 23.9771 20.2374 23.9818C20.2259 23.9866 20.2155 23.9935 20.2067 24.0023C20.1979 24.0111 20.191 24.0215 20.1862 24.0329C20.1815 24.0444 20.1791 24.0567 20.1791 24.069L20.1832 26.4037C20.1832 26.4161 20.1857 26.4283 20.1905 26.4398C20.1952 26.4512 20.2022 26.4616 20.211 26.4703C20.2198 26.4791 20.2303 26.486 20.2418 26.4907C20.2533 26.4954 20.2656 26.4979 20.278 26.4978L23.9261 26.4915C23.9385 26.4915 23.9508 26.489 23.9623 26.4843C23.9738 26.4795 23.9842 26.4725 23.993 26.4638C24.0018 26.455 24.0087 26.4446 24.0135 26.4331C24.0182 26.4217 24.0206 26.4094 24.0206 26.397L24.0165 24.0624Z" fill="#CF3C35"/>
<path d="M28.4054 22.8528L27.3908 22.8511C26.9263 22.8503 26.5491 23.2245 26.5483 23.687L26.5481 23.8037C26.5473 24.2661 26.9232 24.6417 27.3876 24.6425L28.4022 24.6443C28.8667 24.6451 29.2439 24.2708 29.2447 23.8084L29.2449 23.6916C29.2457 23.2292 28.8698 22.8536 28.4054 22.8528Z" fill="#CF3C35"/>
<path d="M28.3892 25.7594L27.3702 25.7683C26.9182 25.7722 26.555 26.1402 26.5589 26.5903L26.5604 26.7609C26.5643 27.2109 26.9339 27.5725 27.3859 27.5686L28.405 27.5598C28.857 27.5558 29.2202 27.1878 29.2163 26.7378L29.2148 26.5672C29.2108 26.1171 28.8412 25.7555 28.3892 25.7594Z" fill="#CF3C35"/>
</svg>
