<svg width="54" height="55" viewBox="0 0 54 55" fill="none" xmlns="http://www.w3.org/2000/svg">
<path d="M50.6441 32.1375C52.2023 32.0583 53.0735 32.5506 53.0778 34.1474C53.0821 36.5931 53.0835 39.0396 53.0821 41.4868C53.0821 43.2141 52.594 43.9804 50.7747 43.9847C50.6035 43.9847 50.5178 44.0696 50.5178 44.2394C50.5093 46.1429 50.5093 48.0907 50.5178 50.0827C50.5236 51.2813 50.4237 52.1368 50.2182 52.649C49.4733 54.5069 47.9472 54.8151 45.9759 54.8151C32.2602 54.8123 18.5445 54.8123 4.82875 54.8151C3.50598 54.8151 2.58418 54.7052 2.06335 54.4855C0.351026 53.7599 0 52.2916 0 50.4466C0 41.8607 0 33.2741 0 24.6868C0 23.3426 0.631419 22.3373 1.89426 21.6709C1.9599 21.6367 1.99272 21.5832 1.99272 21.5104C2.03981 18.471 3.88484 18.0365 6.5689 18.2442C6.64596 18.2499 6.68805 18.2142 6.69519 18.1371C7.03052 14.5427 7.38154 10.9518 7.74827 7.36447C7.85814 6.29284 8.0415 5.56225 8.29835 5.1727C9.00469 4.09821 10.0792 4.03186 11.372 4.16243C16.2749 4.659 19.6011 4.98862 21.3505 5.15129C21.8942 5.20052 22.9516 5.18554 23.2555 5.6072C23.7157 6.2429 23.1249 6.88716 22.4207 6.81867C18.4068 6.43197 14.3935 6.04027 10.381 5.64359C9.73028 5.57937 9.44133 6.21079 9.3814 6.80369C8.89053 11.5782 8.42321 16.3549 7.97943 21.1337C7.9723 21.2236 8.01368 21.2678 8.10358 21.2664L8.80991 21.2514C8.89553 21.25 8.9419 21.2072 8.94903 21.123C9.24584 18.0622 9.54835 15.0057 9.85657 11.9535C9.94004 11.1273 10.214 10.6864 10.9995 10.3011C11.8685 9.87303 12.6612 9.19595 13.3775 8.26986C13.7214 7.82609 14.2373 7.6363 14.925 7.70052C16.8899 7.88174 18.8534 8.06795 20.8154 8.25916C21.9156 8.36832 21.7658 9.92226 20.7084 9.81096C18.695 9.6012 16.6816 9.40428 14.6682 9.2202C14.6399 9.21771 14.6116 9.22299 14.5863 9.23545C14.561 9.24792 14.5397 9.26709 14.5248 9.29084C13.8099 10.4167 12.8039 11.2193 11.5667 11.7181C11.4897 11.748 11.4469 11.8044 11.4383 11.8871L10.5201 21.1679C10.5144 21.2307 10.5429 21.2621 10.6057 21.2621H14.1738C14.2694 21.2621 14.3443 21.2229 14.3985 21.1444C18.6907 14.8502 22.9537 8.59449 27.1874 2.37733C28.5295 0.408153 29.6018 -0.87609 31.9456 0.718512C37.0882 4.22307 42.2316 7.72905 47.3757 11.2365C49.1073 12.4158 48.6429 14.0318 47.6048 15.5558C47.0268 16.4006 46.4489 17.2453 45.871 18.09C45.8239 18.1571 45.8411 18.1942 45.9224 18.2013C48.2683 18.4068 49.1351 19.3614 49.0003 21.7587C48.996 21.8343 49.0238 21.895 49.0838 21.9406C50.0341 22.6769 50.5093 23.5788 50.5093 24.6461C50.5079 27.1033 50.5107 29.5605 50.5178 32.0177C50.5178 32.1004 50.5599 32.1404 50.6441 32.1375ZM45.9909 12.2018C40.9331 8.71079 35.8582 5.23263 30.7469 1.82082C30.3274 1.54043 29.681 1.50404 29.3985 1.91714C25.0335 8.31125 20.6756 14.7089 16.3249 21.1102C16.2963 21.153 16.3063 21.1822 16.3548 21.1979C16.9556 21.4034 17.4001 21.2942 17.6883 20.8704C20.7063 16.4241 23.7307 11.9828 26.7615 7.54641C27.2495 6.83151 27.6005 6.25146 28.2512 6.11448C28.9105 5.97321 29.9635 6.20437 30.8047 5.91542C31.7165 5.60292 32.6348 4.99504 33.5937 5.64573C36.2934 7.47363 38.9861 9.31224 41.6716 11.1616C42.5662 11.7758 42.6497 12.1633 42.6262 13.3105C42.6105 14.1795 42.7938 15.0014 43.1763 15.7763C43.5551 16.5468 43.4245 17.2189 42.9601 17.8803C42.2067 18.9462 41.4675 20.0271 40.7426 21.123C40.6798 21.2172 40.7048 21.2643 40.8175 21.2643L41.6994 21.26C41.7736 21.26 41.8321 21.2286 41.8749 21.1658C43.4873 18.8242 45.0912 16.4712 46.6865 14.1068C47.3757 13.0858 46.7465 12.724 45.9909 12.2018ZM29.1716 7.66199C28.9832 7.65771 28.6729 7.52072 28.5059 7.76259C25.458 12.2203 22.4129 16.6888 19.3707 21.1679C19.3645 21.1769 19.361 21.1873 19.3605 21.1981C19.36 21.2089 19.3625 21.2197 19.3677 21.2294C19.373 21.239 19.3808 21.2472 19.3904 21.2529C19.3999 21.2587 19.4109 21.2619 19.422 21.2621H23.157C23.2198 21.2621 23.2555 21.2307 23.2641 21.1679C24.2936 13.3383 34.94 13.3341 36.0851 21.1401C36.0965 21.2215 36.1436 21.2621 36.2264 21.2621H38.6236C38.6637 21.2621 38.7033 21.2521 38.7387 21.2331C38.7742 21.2141 38.8045 21.1865 38.827 21.153L41.8107 16.7245C41.8563 16.6574 41.8599 16.5882 41.8214 16.5168C41.1864 15.3496 40.9424 14.1046 41.0894 12.7818C41.0979 12.7062 41.0701 12.647 41.0059 12.6042L32.7075 6.94281C32.6433 6.9 32.577 6.89572 32.5085 6.92997C31.444 7.44938 30.3317 7.69338 29.1716 7.66199ZM34.5098 21.1423C33.7456 15.4552 25.732 15.421 24.8415 21.1487C24.8301 21.2243 24.8622 21.2621 24.9379 21.2621H34.407C34.4869 21.2621 34.5212 21.2222 34.5098 21.1423ZM6.18363 19.8088C5.72558 19.7039 5.27396 19.8045 4.82233 19.8088C3.99186 19.8145 3.58161 20.264 3.5916 21.1572C3.5916 21.2272 3.62656 21.2621 3.69648 21.2621H6.26925C6.34773 21.2621 6.38982 21.2229 6.39553 21.1444L6.49827 19.8709C6.50683 19.771 6.46403 19.7382 6.36985 19.7724L6.29493 19.8002C6.25783 19.8131 6.22073 19.8159 6.18363 19.8088ZM45.2182 19.7617C44.5868 19.7339 44.056 20.7527 43.8013 21.123C43.737 21.2158 43.7613 21.2621 43.874 21.2621H47.3072C47.3971 21.2621 47.4457 21.2172 47.4528 21.1273C47.5705 19.6761 46.1921 19.8045 45.2182 19.7617ZM48.9447 26.8422C49.0217 25.2797 49.2571 22.8139 46.9262 22.8139C32.7068 22.8125 18.4874 22.8132 4.26797 22.8161C1.20505 22.8161 1.53681 24.4663 1.55607 26.8379C1.55607 26.8646 1.56667 26.8902 1.58554 26.909C1.60441 26.9279 1.62999 26.9385 1.65667 26.9385L48.859 26.9235C48.881 26.9235 48.9022 26.9151 48.9181 26.9C48.934 26.8848 48.9436 26.8641 48.9447 26.8422ZM5.72344 47.6469C6.91779 47.6448 6.84716 49.1837 5.44947 49.188C4.19091 49.1937 2.9295 49.1958 1.66524 49.1944C1.59103 49.1944 1.55393 49.2315 1.55393 49.3057C1.53681 51.0865 1.22217 53.259 3.79922 53.259C18.0714 53.2619 32.3437 53.2619 46.6159 53.259C49.24 53.259 49.0517 51.1914 48.9468 49.2886C48.9439 49.2201 48.9076 49.1859 48.8376 49.1859C36.4433 49.213 24.0482 49.203 11.6524 49.1559C11.1772 49.1538 10.4901 49.3335 10.1584 48.8712C9.72814 48.2698 10.1926 47.6362 10.8775 47.6341C23.5159 47.5841 36.1586 47.572 48.8055 47.5977C48.9097 47.5977 48.9618 47.5456 48.9618 47.4414V44.066C48.9618 43.9904 48.9232 43.9526 48.8462 43.9526C46.7743 43.9511 44.7024 43.9483 42.6305 43.944C41.2563 43.9412 40.2546 43.837 39.6253 43.6315C34.2486 41.8657 34.3428 34.0832 39.7388 32.4158C40.388 32.216 41.4796 32.119 43.0136 32.1247C44.9542 32.1318 46.9006 32.1297 48.8526 32.1183C48.9254 32.1183 48.9618 32.0812 48.9618 32.007V28.5716C48.9618 28.5489 48.9525 28.5271 48.9361 28.5111C48.9196 28.495 48.8973 28.486 48.874 28.486H1.65881C1.63043 28.486 1.60321 28.4973 1.58314 28.5173C1.56307 28.5374 1.55179 28.5646 1.55179 28.593V47.4778C1.55179 47.5406 1.58319 47.5727 1.64597 47.5741C3.01298 47.6255 4.37213 47.6498 5.72344 47.6469ZM38.8805 34.5605C35.5778 37.1696 37.4036 42.3965 41.633 42.4008C44.885 42.4036 48.0749 42.4022 51.2028 42.3965C51.4211 42.3951 51.5303 42.2852 51.5303 42.0669V33.8477C51.5303 33.8208 51.52 33.795 51.5016 33.7758C51.4832 33.7566 51.4581 33.7455 51.4318 33.745C48.0685 33.6722 44.6988 33.6536 41.3227 33.6893C40.418 33.6979 39.6039 33.9883 38.8805 34.5605Z" fill="#CF3C35"/>
<path d="M44.8545 38.0298C44.8545 38.4438 44.7729 38.8538 44.6145 39.2363C44.456 39.6188 44.2238 39.9664 43.931 40.2591C43.6383 40.5519 43.2907 40.7841 42.9082 40.9426C42.5257 41.101 42.1157 41.1826 41.7016 41.1826C40.8655 41.1826 40.0635 40.8504 39.4723 40.2591C38.881 39.6679 38.5488 38.8659 38.5488 38.0298C38.5488 37.1936 38.881 36.3917 39.4723 35.8004C40.0635 35.2091 40.8655 34.877 41.7016 34.877C42.1157 34.877 42.5257 34.9585 42.9082 35.1169C43.2907 35.2754 43.6383 35.5076 43.931 35.8004C44.2238 36.0932 44.456 36.4407 44.6145 36.8232C44.7729 37.2058 44.8545 37.6157 44.8545 38.0298ZM43.2834 38.0319C43.2834 37.6118 43.1165 37.209 42.8195 36.9119C42.5224 36.6149 42.1196 36.448 41.6995 36.448C41.2794 36.448 40.8766 36.6149 40.5795 36.9119C40.2825 37.209 40.1156 37.6118 40.1156 38.0319C40.1156 38.452 40.2825 38.8549 40.5795 39.1519C40.8766 39.4489 41.2794 39.6158 41.6995 39.6158C42.1196 39.6158 42.5224 39.4489 42.8195 39.1519C43.1165 38.8549 43.2834 38.452 43.2834 38.0319Z" fill="#CF3C35"/>
</svg>
