<svg width="58" height="58" viewBox="0 0 58 58" fill="none" xmlns="http://www.w3.org/2000/svg">
<path d="M35.9126 45.4967C35.9464 46.6623 36.0388 47.9986 35.5501 49.007C35.0006 50.1434 34.0397 50.8329 32.6675 51.0754C32.5924 51.0889 32.5541 51.1338 32.5526 51.2102C32.5286 52.7583 32.5264 54.3102 32.5459 55.8658C32.5616 57.1909 31.7644 57.4941 30.5551 57.4963C29.36 57.4963 28.1657 57.4948 26.9722 57.4918C26.0015 57.4874 25.0962 57.1595 25.1075 56.0927C25.1225 54.4637 25.1203 52.8369 25.1007 51.2124C25.0992 51.1361 25.0609 51.0911 24.9859 51.0777C23.3464 50.7662 22.3135 49.8791 21.8871 48.4163C21.6439 47.5808 21.7362 46.4489 21.7295 45.4877C21.7295 45.4084 21.6897 45.3687 21.6101 45.3687C18.1015 45.3627 14.5944 45.3627 11.0887 45.3687C10.1294 45.3717 9.43199 45.2803 8.99661 45.0947C6.71081 44.129 7.17023 41.8292 7.14545 39.8798C7.14395 39.7929 7.09966 39.7503 7.01259 39.7518C4.9565 39.763 2.87339 40.1156 2.87339 37.3307C2.87189 26.8096 2.87114 16.29 2.87114 5.77187C2.87114 5.68802 2.82985 5.63936 2.74728 5.62589C-1.25229 4.93641 -0.734331 0.00224634 3.32379 0.00224634C20.0788 0.000749101 36.833 0 53.5864 0C54.8265 0 55.68 0.116784 56.147 0.350354C58.8133 1.6799 57.6963 5.25083 54.9016 5.63487C54.825 5.64535 54.7867 5.68952 54.7867 5.76738C54.7732 7.94137 54.7717 10.1124 54.7822 12.2804C54.7912 13.7559 53.1067 13.8053 53.0977 12.2849C53.0872 10.1004 53.0857 7.90918 53.0932 5.71123C53.0932 5.69943 53.091 5.68775 53.0865 5.67685C53.0821 5.66595 53.0757 5.65605 53.0675 5.64771C53.0594 5.63936 53.0497 5.63275 53.039 5.62823C53.0284 5.62372 53.0169 5.62139 53.0054 5.62139C41.2739 5.6169 29.5357 5.59969 17.7907 5.56974C16.9282 5.56749 16.7345 4.68712 17.2502 4.0987C17.2998 4.0418 17.3621 4.00961 17.4371 4.00213C17.5768 3.98566 17.7134 3.97742 17.847 3.97742C29.9643 3.94748 42.0816 3.93176 54.199 3.93026C54.7244 3.93026 55.0968 3.88235 55.316 3.78653C56.3519 3.33735 55.9848 1.68664 54.9354 1.68664C37.5288 1.68365 20.1223 1.68365 2.71575 1.68664C1.4839 1.68664 1.2069 3.89657 2.97924 3.91005C6.56444 3.9355 10.1496 3.94748 13.7348 3.94598C15.0973 3.94374 14.9397 5.61017 13.7484 5.61017C10.7292 5.61616 7.70245 5.6169 4.66824 5.61241C4.63957 5.61241 4.61208 5.624 4.59181 5.64464C4.57153 5.66528 4.56015 5.69327 4.56015 5.72246V37.8383C4.56015 37.8814 4.5774 37.9228 4.60817 37.9534C4.63893 37.9841 4.68074 38.0017 4.72454 38.0022L7.04411 38.0292C7.10417 38.0307 7.13344 38.0015 7.13194 37.9416C7.01033 32.9221 7.22878 27.9498 7.07789 23.2447C7.01484 21.2369 7.79178 19.3414 10.037 19.2134C10.9198 19.1625 13.0457 19.1684 16.4147 19.2313C16.4883 19.2328 16.5341 19.1976 16.5521 19.1258C19.3333 8.08062 33.8678 5.89539 39.7298 15.7255C39.7703 15.7929 39.8296 15.8266 39.9077 15.8266C41.5044 15.8446 44.3307 15.5346 45.6233 16.1163C46.7043 16.6029 47.1779 17.5829 47.0443 19.0561C47.0383 19.137 47.0751 19.1797 47.1547 19.1842C49.3782 19.286 50.5094 20.4381 50.5485 22.6405C50.5905 25.0271 50.583 30.135 50.5259 37.9641C50.5259 38.0285 50.5575 38.0599 50.6205 38.0584L52.9266 38.0022C52.9706 38.0011 53.0124 37.983 53.0431 37.952C53.0738 37.921 53.091 37.8794 53.091 37.8361C53.0925 30.8454 53.0925 23.8608 53.091 16.8822C53.091 15.2472 54.7777 15.447 54.7777 16.4083C54.7807 23.3345 54.7815 30.2608 54.78 37.187C54.78 40.147 52.8996 39.7136 50.6205 39.7563C50.5289 39.7578 50.4846 39.8049 50.4877 39.8978C50.5732 41.8247 50.8727 44.1626 48.641 45.1037C47.4384 45.6112 45.1481 45.3732 43.7586 45.3574C42.9885 45.3507 42.6552 43.6955 44.2451 43.6865C45.296 43.682 46.3485 43.6745 47.4024 43.6641C48.8887 43.6528 48.8752 42.3817 48.873 41.1554C48.8609 35.0063 48.8392 28.8563 48.8077 22.7057C48.8032 21.4457 48.4181 20.8888 47.1389 20.8888C34.9495 20.8858 22.7601 20.8858 10.5708 20.8888C9.5461 20.8888 8.84122 21.2593 8.84122 22.3441C8.83972 28.905 8.83897 35.4659 8.83897 42.0268C8.83897 43.0801 9.28712 43.6798 10.3546 43.6798C20.2604 43.6813 30.1663 43.682 40.0721 43.682C40.9369 43.682 41.2341 45.3574 39.6532 45.3597C38.4507 45.3612 37.2451 45.3642 36.0365 45.3687C35.9524 45.3702 35.9111 45.4128 35.9126 45.4967ZM37.9507 16.0265C32.6652 8.37932 20.9863 9.97163 18.3289 19.0561C18.3064 19.134 18.3357 19.1729 18.4168 19.1729L36.6265 19.1527C36.7046 19.1527 36.7384 19.1145 36.7279 19.0382C36.5672 17.8284 36.9666 16.8739 37.9259 16.1747C37.9489 16.1578 37.9644 16.1328 37.969 16.105C37.9737 16.0773 37.9671 16.049 37.9507 16.0265ZM44.7157 17.5604C43.5897 17.4945 41.9353 17.4833 39.7523 17.5267C39.2253 17.5379 38.8763 17.4414 38.5272 17.9332C38.4837 17.9961 38.4612 18.0665 38.4597 18.1443L38.4416 19.0651C38.4401 19.122 38.4679 19.1505 38.525 19.1505L45.272 19.1482C45.3305 19.1482 45.3576 19.119 45.3531 19.0606C45.3125 18.5935 45.4544 17.6031 44.7157 17.5604ZM23.4252 45.4742C23.4005 46.7566 23.1618 49.4045 25.2786 49.4067C27.5682 49.4097 29.8577 49.4097 32.1473 49.4067C34.5209 49.4045 34.2349 47.1384 34.2304 45.4787C34.2289 45.4039 34.1906 45.3664 34.1155 45.3664H23.5356C23.4635 45.3664 23.4267 45.4024 23.4252 45.4742ZM30.8562 51.2317C30.8563 51.2143 30.8528 51.197 30.8462 51.1809C30.8395 51.1648 30.8298 51.1502 30.8175 51.1379C30.8051 51.1256 30.7905 51.1158 30.7744 51.1091C30.7583 51.1024 30.741 51.099 30.7236 51.0989L26.9357 51.0923C26.9182 51.0923 26.901 51.0957 26.8848 51.1023C26.8687 51.109 26.854 51.1187 26.8417 51.131C26.8293 51.1433 26.8195 51.1578 26.8128 51.1739C26.8061 51.19 26.8026 51.2072 26.8026 51.2246L26.7949 55.6175C26.7949 55.6349 26.7983 55.6521 26.8049 55.6682C26.8116 55.6843 26.8213 55.699 26.8337 55.7113C26.846 55.7236 26.8606 55.7334 26.8767 55.7401C26.8928 55.7468 26.9101 55.7502 26.9275 55.7502L30.7154 55.7569C30.7329 55.7569 30.7502 55.7535 30.7663 55.7469C30.7824 55.7402 30.7971 55.7305 30.8094 55.7182C30.8218 55.7059 30.8316 55.6913 30.8383 55.6753C30.845 55.6592 30.8485 55.642 30.8485 55.6246L30.8562 51.2317Z" fill="#CF3C35"/>
<path d="M35.8062 40.201V24.3677C35.8062 24.3379 35.7943 24.3093 35.7732 24.2883C35.7521 24.2672 35.7234 24.2554 35.6936 24.2554H12.4393C12.3567 24.2554 12.3139 24.2973 12.3109 24.3811C12.2689 25.5804 12.2531 26.7535 12.2637 27.9004C12.2794 29.3175 10.5972 29.0548 10.5904 28.2283C10.5799 26.8673 10.5806 25.5071 10.5927 24.1476C10.6062 22.809 11.4259 22.5822 12.624 22.571C22.1109 22.4976 29.8946 22.4998 35.9751 22.5777C36.9584 22.5897 37.4584 23.1122 37.4749 24.1453C37.5515 29.0084 37.5853 33.8736 37.5763 38.7412C37.5717 40.4413 37.7947 41.9909 35.6012 41.9932C27.8753 42.0007 20.1502 42.0014 12.4258 41.9954C11.2232 41.9932 10.5882 41.5463 10.5882 40.3312C10.5821 37.5389 10.5814 34.7406 10.5859 31.9362C10.5859 31.8365 10.6148 31.7383 10.6692 31.6532C11.0386 31.0783 11.5002 30.9952 12.0542 31.4039C12.1203 31.4519 12.1601 31.5162 12.1736 31.5971C12.1946 31.7109 12.2074 31.8232 12.2119 31.934C12.3169 34.6994 12.3522 37.4648 12.3177 40.2302C12.3162 40.2856 12.3432 40.3133 12.3988 40.3133H35.6936C35.7686 40.3133 35.8062 40.2759 35.8062 40.201Z" fill="#CF3C35"/>
<path d="M18.6462 26.0477C18.6818 26.0532 18.7156 26.0671 18.745 26.0882C18.7743 26.1092 18.7983 26.1369 18.8151 26.169C19.815 28.1409 16.6465 27.6131 15.7907 27.6311C15.7066 27.6341 15.6631 27.6775 15.6601 27.7613C15.6376 28.6073 15.6376 29.4405 15.6601 30.261C15.6826 31.0717 14.0274 31.4131 13.9688 30.0386C13.9283 29.0684 13.6963 27.1931 14.721 26.3891C15.597 25.6996 17.5405 25.886 18.6462 26.0477Z" fill="#CF3C35"/>
<path d="M31.9774 25.9487C34.5222 26.0116 34.234 28.6886 34.1011 30.1911C34.0335 30.93 33.0517 31.2849 32.6148 30.656C32.3017 30.2046 32.4166 28.5674 32.4368 27.9453C32.4429 27.7267 32.3355 27.6181 32.1148 27.6196C31.2748 27.6286 28.9012 28.0149 29.0701 26.6314C29.1895 25.659 31.3244 25.9307 31.9774 25.9487Z" fill="#CF3C35"/>
<path d="M46.3095 26.3906H40.0219C39.5692 26.3906 39.2021 26.7566 39.2021 27.2081V27.253C39.2021 27.7045 39.5692 28.0705 40.0219 28.0705H46.3095C46.7622 28.0705 47.1292 27.7045 47.1292 27.253V27.2081C47.1292 26.7566 46.7622 26.3906 46.3095 26.3906Z" fill="#CF3C35"/>
<path d="M28.9202 32.2822C28.9202 33.5718 28.4065 34.8085 27.4921 35.7204C26.5778 36.6322 25.3376 37.1445 24.0446 37.1445C22.7515 37.1445 21.5113 36.6322 20.597 35.7204C19.6826 34.8085 19.1689 33.5718 19.1689 32.2822C19.1689 30.9927 19.6826 29.7559 20.597 28.8441C21.5113 27.9322 22.7515 27.4199 24.0446 27.4199C25.3376 27.4199 26.5778 27.9322 27.4921 28.8441C28.4065 29.7559 28.9202 30.9927 28.9202 32.2822ZM27.2289 32.289C27.2289 31.4455 26.8929 30.6366 26.2949 30.0403C25.6969 29.4439 24.8858 29.1088 24.04 29.1088C23.1943 29.1088 22.3832 29.4439 21.7852 30.0403C21.1872 30.6366 20.8512 31.4455 20.8512 32.289C20.8512 33.1324 21.1872 33.9413 21.7852 34.5377C22.3832 35.134 23.1943 35.4691 24.04 35.4691C24.8858 35.4691 25.6969 35.134 26.2949 34.5377C26.8929 33.9413 27.2289 33.1324 27.2289 32.289Z" fill="#CF3C35"/>
<path d="M46.3101 29.7617H40.018C39.5652 29.7617 39.1982 30.1277 39.1982 30.5792V30.6196C39.1982 31.0711 39.5652 31.4371 40.018 31.4371H46.3101C46.7628 31.4371 47.1298 31.0711 47.1298 30.6196V30.5792C47.1298 30.1277 46.7628 29.7617 46.3101 29.7617Z" fill="#CF3C35"/>
<path d="M15.8374 36.9239C16.3479 36.9464 17.0926 36.9486 18.0714 36.9306C19.2402 36.9082 19.4452 38.6061 17.9205 38.624C16.4342 38.642 14.7745 38.9025 14.1597 37.4876C13.921 36.9419 13.7723 34.3793 14.1664 33.892C14.529 33.4428 15.4141 33.5394 15.6032 34.175C15.8014 34.842 15.6257 36.0278 15.682 36.7757C15.6896 36.8715 15.7413 36.9209 15.8374 36.9239Z" fill="#CF3C35"/>
<path d="M32.4262 36.8182C32.4308 35.9401 31.9578 33.3259 33.5342 33.6673C33.8946 33.7459 34.0477 33.9166 34.077 34.2983C34.1513 35.3045 34.3269 37.1034 33.6581 37.8917C32.7866 38.9203 31.2147 38.6239 30.0076 38.6194C28.7442 38.6126 28.7194 36.9462 30.0706 36.9485C30.8093 36.95 31.554 36.947 32.3046 36.9395C32.3857 36.9395 32.4262 36.8991 32.4262 36.8182Z" fill="#CF3C35"/>
<path d="M47.1562 38.0072C47.1562 39.0591 46.7372 40.0679 45.9914 40.8117C45.2456 41.5555 44.234 41.9734 43.1792 41.9734C42.1244 41.9734 41.1128 41.5555 40.367 40.8117C39.6212 40.0679 39.2021 39.0591 39.2021 38.0072C39.2021 36.9553 39.6212 35.9465 40.367 35.2027C41.1128 34.4589 42.1244 34.041 43.1792 34.041C44.234 34.041 45.2456 34.4589 45.9914 35.2027C46.7372 35.9465 47.1562 36.9553 47.1562 38.0072ZM45.4763 38.0095C45.4763 37.4031 45.2347 36.8216 44.8048 36.3928C44.3748 35.964 43.7917 35.7232 43.1837 35.7232C42.5757 35.7232 41.9926 35.964 41.5626 36.3928C41.1327 36.8216 40.8912 37.4031 40.8912 38.0095C40.8912 38.6158 41.1327 39.1973 41.5626 39.6261C41.9926 40.0549 42.5757 40.2957 43.1837 40.2957C43.7917 40.2957 44.3748 40.0549 44.8048 39.6261C45.2347 39.1973 45.4763 38.6158 45.4763 38.0095Z" fill="#CF3C35"/>
</svg>
