<svg width="7" height="20" viewBox="0 0 7 20" fill="none" xmlns="http://www.w3.org/2000/svg">
<path fill-rule="evenodd" clip-rule="evenodd" d="M5.52689 15.0997L5.52689 13.5029C5.52689 13.0809 5.85665 12.7389 6.26344 12.7389C6.67023 12.7389 7 13.0809 7 13.5029V15.0997C7 17.8061 4.88496 20 2.27593 20H0.736557C0.329768 20 0 19.6579 0 19.236C0 18.814 0.329768 18.4719 0.736557 18.4719H2.27593C4.07138 18.4719 5.52689 16.9621 5.52689 15.0997ZM2.27592 1.52807H0.736557C0.329768 1.52807 0 1.186 0 0.764035C0 0.34207 0.329768 0 0.736557 0H2.27592C4.88496 0 7 2.19394 7 4.90031V6.49711C7 6.91907 6.67023 7.26115 6.26344 7.26115C5.85665 7.26115 5.52689 6.91907 5.52689 6.49711V4.90031C5.52689 3.03787 4.07138 1.52807 2.27592 1.52807Z" fill="#4B4B4B"/>
</svg>
