<svg width="14" height="14" viewBox="0 0 14 14" fill="none" xmlns="http://www.w3.org/2000/svg">
<path d="M11.9401 7.66683C11.7934 7.66683 11.6401 7.62016 11.4934 7.58683C11.1967 7.52047 10.9049 7.43359 10.6201 7.32683C10.3108 7.21432 9.97088 7.22016 9.66565 7.34323C9.36043 7.46631 9.1115 7.69792 8.96678 7.9935L8.82011 8.30016C8.17266 7.93297 7.57453 7.48493 7.04011 6.96683C6.52202 6.43241 6.07398 5.83428 5.70678 5.18683L6.01345 5.04683C6.30903 4.90211 6.54064 4.65318 6.66371 4.34796C6.78679 4.04273 6.79263 3.70277 6.68011 3.3935C6.57424 3.10618 6.48739 2.81221 6.42011 2.5135C6.38678 2.36683 6.36011 2.2135 6.34011 2.06683C6.25916 1.59724 6.0132 1.17199 5.64653 0.867656C5.27986 0.563321 4.81658 0.399902 4.34012 0.406829H2.33345C2.05161 0.40646 1.77288 0.465661 1.51553 0.580552C1.25817 0.695442 1.028 0.863428 0.840115 1.0735C0.648328 1.28927 0.505525 1.544 0.421517 1.82019C0.337509 2.09638 0.314287 2.38748 0.353448 2.6735C0.71584 5.44826 1.98359 8.02593 3.96011 10.0068C5.94101 11.9834 8.51869 13.2511 11.2934 13.6135C11.38 13.6201 11.4669 13.6201 11.5534 13.6135C12.0451 13.6142 12.5197 13.4338 12.8868 13.1068C13.0968 12.9189 13.2648 12.6888 13.3797 12.4314C13.4946 12.1741 13.5538 11.8953 13.5534 11.6135V9.6135C13.5499 9.15285 13.3874 8.70757 13.0934 8.35289C12.7995 7.99821 12.3921 7.75588 11.9401 7.66683ZM12.2668 11.6668C12.2666 11.7599 12.2469 11.8518 12.209 11.9368C12.1711 12.0217 12.1158 12.0978 12.0468 12.1602C11.9737 12.2267 11.8868 12.2762 11.7922 12.305C11.6977 12.3339 11.5979 12.3413 11.5001 12.3268C9.0123 12.0019 6.70028 10.8682 4.92011 9.10016C3.13843 7.31847 1.9948 4.99841 1.66678 2.50016C1.6523 2.40239 1.65974 2.30261 1.68856 2.20806C1.71739 2.11352 1.76688 2.02656 1.83345 1.9535C1.89653 1.8836 1.9737 1.82785 2.05988 1.78993C2.14606 1.75201 2.2393 1.73278 2.33345 1.7335H4.33345C4.48756 1.72973 4.63821 1.77949 4.75976 1.8743C4.88131 1.96911 4.96625 2.10311 5.00011 2.2535C5.00011 2.4335 5.06011 2.62016 5.10011 2.80016C5.17717 3.14941 5.27966 3.49254 5.40678 3.82683L4.47345 4.26683C4.31302 4.34047 4.18835 4.47473 4.12678 4.64016C4.0601 4.80247 4.0601 4.98452 4.12678 5.14683C5.08625 7.202 6.73828 8.85403 8.79345 9.8135C8.95576 9.88017 9.13781 9.88017 9.30011 9.8135C9.46555 9.75192 9.59981 9.62725 9.67345 9.46683L10.0934 8.5335C10.4374 8.65891 10.7893 8.76136 11.1468 8.84016C11.3201 8.88016 11.5068 8.9135 11.6868 8.94016C11.8372 8.97403 11.9712 9.05897 12.066 9.18052C12.1608 9.30207 12.2105 9.45272 12.2068 9.60683L12.2668 11.6668ZM8.33345 0.333496C8.18011 0.333496 8.02011 0.333496 7.86678 0.333496C7.68997 0.348525 7.52637 0.433176 7.41197 0.568828C7.29758 0.704479 7.24175 0.880018 7.25678 1.05683C7.27181 1.23364 7.35646 1.39724 7.49211 1.51164C7.62776 1.62603 7.8033 1.68186 7.98011 1.66683H8.33345C9.39431 1.66683 10.4117 2.08826 11.1619 2.8384C11.912 3.58855 12.3334 4.60596 12.3334 5.66683C12.3334 5.78683 12.3334 5.90016 12.3334 6.02016C12.3187 6.19604 12.3742 6.37059 12.488 6.50556C12.6017 6.64053 12.7643 6.7249 12.9401 6.74016H12.9934C13.1603 6.74084 13.3214 6.6789 13.4448 6.56657C13.5683 6.45425 13.6451 6.29971 13.6601 6.1335C13.6601 5.98016 13.6601 5.82016 13.6601 5.66683C13.6601 4.2535 13.0991 2.89795 12.1004 1.89795C11.1016 0.897946 9.74678 0.335263 8.33345 0.333496ZM9.66678 5.66683C9.66678 5.84364 9.73702 6.01321 9.86204 6.13823C9.98707 6.26326 10.1566 6.3335 10.3334 6.3335C10.5103 6.3335 10.6798 6.26326 10.8049 6.13823C10.9299 6.01321 11.0001 5.84364 11.0001 5.66683C11.0001 4.95959 10.7192 4.28131 10.2191 3.78121C9.71897 3.28111 9.04069 3.00016 8.33345 3.00016C8.15664 3.00016 7.98707 3.0704 7.86204 3.19543C7.73702 3.32045 7.66678 3.49002 7.66678 3.66683C7.66678 3.84364 7.73702 4.01321 7.86204 4.13823C7.98707 4.26326 8.15664 4.3335 8.33345 4.3335C8.68707 4.3335 9.02621 4.47397 9.27626 4.72402C9.52631 4.97407 9.66678 5.31321 9.66678 5.66683Z" fill="url(#paint0_linear_1305_1649)"/>
<defs>
<linearGradient id="paint0_linear_1305_1649" x1="6.99754" y1="0.333496" x2="6.99754" y2="13.6185" gradientUnits="userSpaceOnUse">
<stop stop-color="#FF6760"/>
<stop offset="1" stop-color="#CF3C35"/>
</linearGradient>
</defs>
</svg>
