<svg width="22" height="20" viewBox="0 0 22 20" fill="none" xmlns="http://www.w3.org/2000/svg">
<path d="M14.2675 12.5611L14.7126 16.0107C14.7785 16.508 14.8114 16.7567 14.913 16.97C15.0028 17.1588 15.1311 17.3267 15.2897 17.463C15.4689 17.617 15.7002 17.7141 16.1627 17.9083L16.863 18.2023C17.5476 18.4897 17.8898 18.6334 18.2177 18.6226C18.5065 18.613 18.7865 18.5202 19.0239 18.3553C19.2933 18.1681 19.4819 17.8484 19.8592 17.209L20.4406 16.2234C14.844 10.7089 7.06641 10.7662 1.55176 16.363L2.14797 17.34C2.53463 17.9738 2.72796 18.2907 3.00009 18.4738C3.23987 18.6352 3.52119 18.7239 3.81018 18.7292C4.13814 18.7352 4.47825 18.5864 5.15845 18.2889L5.66567 18.0671C6.19004 17.8378 6.45223 17.7231 6.64396 17.5401C6.81341 17.3784 6.94264 17.1792 7.02128 16.9586C7.11026 16.7089 7.10815 16.4228 7.10392 15.8505L7.07986 12.7968M3.85907 4C5.67399 2.14864 8.2031 1 11.0005 1C13.7979 1 16.327 2.14864 18.1419 4M15.4727 7C14.374 5.7725 12.7775 5 11.0005 5C9.22347 5 7.6269 5.7725 6.52825 7" stroke="#CF3C35" stroke-width="2" stroke-linecap="round" stroke-linejoin="round"/>
</svg>
