<svg width="64" height="64" viewBox="0 0 64 64" fill="none" xmlns="http://www.w3.org/2000/svg">
<path d="M44.7834 26.437L28.8033 17.2005C27.832 16.6397 26.7304 16.3444 25.6089 16.3441C24.4874 16.3438 23.3856 16.6386 22.4141 17.1988C21.4425 17.7591 20.6355 18.565 20.074 19.5359C19.5126 20.5067 19.2164 21.6081 19.2152 22.7296V41.2026C19.2164 42.3235 19.5123 43.4244 20.0732 44.3949C20.6342 45.3653 21.4405 46.1712 22.4112 46.7317C23.3829 47.2927 24.4852 47.5881 25.6073 47.5881C26.7293 47.5881 27.8316 47.2927 28.8033 46.7317L44.7834 37.4952C45.752 36.9333 46.5561 36.1268 47.115 35.1564C47.6739 34.1861 47.9681 33.0859 47.9681 31.9661C47.9681 30.8463 47.6739 29.7461 47.115 28.7757C46.5561 27.8054 45.752 26.9989 44.7834 26.437ZM41.5874 31.9661L25.6073 41.2026V22.7296L41.5874 31.9661ZM31.9993 0.00585938C25.6782 0.00585937 19.499 1.88029 14.2432 5.39213C8.98732 8.90396 4.8909 13.8955 2.4719 19.7354C0.0529104 25.5754 -0.580009 32.0015 0.653184 38.2012C1.88638 44.4009 4.93029 50.0956 9.40001 54.5654C13.8697 59.0351 19.5645 62.079 25.7642 63.3122C31.9638 64.5454 38.39 63.9125 44.2299 61.4935C50.0699 59.0745 55.0614 54.9781 58.5732 49.7222C62.0851 44.4664 63.9595 38.2872 63.9595 31.9661C63.9595 27.769 63.1328 23.613 61.5267 19.7354C59.9205 15.8578 57.5664 12.3346 54.5986 9.36679C51.6308 6.39901 48.1075 4.04484 44.2299 2.43869C40.3524 0.832535 36.1964 0.00585938 31.9993 0.00585938ZM31.9993 57.5343C26.9424 57.5343 21.999 56.0347 17.7944 53.2252C13.5897 50.4158 10.3126 46.4226 8.37738 41.7506C6.44219 37.0786 5.93585 31.9377 6.92241 26.978C7.90896 22.0182 10.3441 17.4624 13.9199 13.8866C17.4956 10.3109 22.0515 7.87574 27.0112 6.88919C31.9709 5.90264 37.1118 6.40897 41.7838 8.34416C46.4558 10.2794 50.449 13.5565 53.2585 17.7612C56.0679 21.9658 57.5675 26.9092 57.5675 31.9661C57.5675 38.7472 54.8737 45.2505 50.0787 50.0455C45.2838 54.8405 38.7804 57.5343 31.9993 57.5343Z" fill="white"/>
</svg>
