<svg width="18" height="15" viewBox="0 0 18 15" fill="none" xmlns="http://www.w3.org/2000/svg">
<path d="M17.6482 7.32346C15.9266 3.32631 12.688 0.846191 9.19367 0.846191C5.69935 0.846191 2.46071 3.32631 0.739121 7.32346C0.692192 7.43099 0.667969 7.54705 0.667969 7.66437C0.667969 7.7817 0.692192 7.89775 0.739121 8.00528C2.46071 12.0024 5.69935 14.4826 9.19367 14.4826C12.688 14.4826 15.9266 12.0024 17.6482 8.00528C17.6951 7.89775 17.7194 7.7817 17.7194 7.66437C17.7194 7.54705 17.6951 7.43099 17.6482 7.32346ZM9.19367 12.778C6.49196 12.778 3.93514 10.8263 2.46071 7.66437C3.93514 4.50244 6.49196 2.55074 9.19367 2.55074C11.8954 2.55074 14.4522 4.50244 15.9266 7.66437C14.4522 10.8263 11.8954 12.778 9.19367 12.778ZM9.19367 4.25528C8.51941 4.25528 7.8603 4.45522 7.29968 4.82982C6.73906 5.20441 6.3021 5.73684 6.04408 6.35977C5.78605 6.9827 5.71854 7.66815 5.85008 8.32945C5.98162 8.99075 6.3063 9.59819 6.78307 10.075C7.25984 10.5517 7.86729 10.8764 8.52859 11.008C9.18988 11.1395 9.87534 11.072 10.4983 10.814C11.1212 10.5559 11.6536 10.119 12.0282 9.55836C12.4028 8.99774 12.6028 8.33863 12.6028 7.66437C12.6028 6.76023 12.2436 5.89311 11.6043 5.25378C10.9649 4.61445 10.0978 4.25528 9.19367 4.25528ZM9.19367 9.36892C8.85654 9.36892 8.52698 9.26895 8.24667 9.08165C7.96636 8.89435 7.74788 8.62814 7.61887 8.31667C7.48986 8.00521 7.4561 7.66248 7.52187 7.33183C7.58764 7.00118 7.74999 6.69746 7.98837 6.45908C8.22676 6.22069 8.53048 6.05835 8.86113 5.99258C9.19178 5.92681 9.5345 5.96057 9.84597 6.08958C10.1574 6.21859 10.4236 6.43707 10.6109 6.71738C10.7982 6.99769 10.8982 7.32725 10.8982 7.66437C10.8982 8.11645 10.7186 8.55 10.399 8.86967C10.0793 9.18933 9.64574 9.36892 9.19367 9.36892Z" fill="url(#paint0_linear_1374_1318)"/>
<defs>
<linearGradient id="paint0_linear_1374_1318" x1="9.19367" y1="0.846191" x2="9.19367" y2="14.4826" gradientUnits="userSpaceOnUse">
<stop stop-color="#FF6760"/>
<stop offset="1" stop-color="#CF3C35"/>
</linearGradient>
</defs>
</svg>
