<svg width="24" height="24" viewBox="0 0 24 24" fill="none" xmlns="http://www.w3.org/2000/svg">
<path d="M20 13V10.4C20 8.15979 20 7.03969 19.564 6.18404C19.1805 5.43139 18.5686 4.81947 17.816 4.43597C16.9603 4 15.8402 4 13.6 4H10.4C8.15979 4 7.03969 4 6.18404 4.43597C5.43139 4.81947 4.81947 5.43139 4.43597 6.18404C4 7.03969 4 8.15979 4 10.4V13.6C4 15.8402 4 16.9603 4.43597 17.816C4.81947 18.5686 5.43139 19.1805 6.18404 19.564C7.03969 20 8.15979 20 10.4 20M15 19L17 21L21 17M15 15C14.7164 13.8589 13.481 13 12 13C10.519 13 9.28364 13.8589 9 15M12 9H12.01M13 9C13 9.55228 12.5523 10 12 10C11.4477 10 11 9.55228 11 9C11 8.44772 11.4477 8 12 8C12.5523 8 13 8.44772 13 9Z" stroke="#B9B9B9" stroke-width="2" stroke-linecap="round" stroke-linejoin="round"/>
</svg>
