<svg width="284" height="92" viewBox="0 0 284 92" fill="none" xmlns="http://www.w3.org/2000/svg">
<path d="M90.5977 18.9023C90.5977 18.3846 91.0254 17.9648 91.5531 17.9648H127.962C128.49 17.9648 128.917 18.3846 128.917 18.9023V26.5818C128.917 27.0996 128.49 27.5193 127.962 27.5193H115.512C114.984 27.5193 114.557 27.939 114.557 28.4567V67.2564C114.557 67.7741 114.129 68.1938 113.601 68.1938H105.427C104.899 68.1938 104.472 67.7741 104.472 67.2564V28.4567C104.472 27.939 104.044 27.5193 103.516 27.5193H91.5531C91.0254 27.5193 90.5977 27.0996 90.5977 26.5818V18.9023Z" fill="url(#paint0_linear_1445_5677)"/>
<path d="M0 18.9023C0 18.3846 0.427746 17.9648 0.955396 17.9648H31.0389C31.5666 17.9648 31.9943 18.3846 31.9943 18.9023V26.5818C31.9943 27.0996 31.5666 27.5193 31.0389 27.5193H11.0406C10.5129 27.5193 10.0852 27.939 10.0852 28.4567V37.9789C10.0852 38.4966 10.5129 38.9163 11.0406 38.9163H28.1177C28.6453 38.9163 29.0731 39.336 29.0731 39.8538V47.5333C29.0731 48.0511 28.6453 48.4708 28.1177 48.4708H11.0406C10.5129 48.4708 10.0852 48.8905 10.0852 49.4082V67.2564C10.0852 67.7741 9.65742 68.1938 9.12977 68.1938H0.955397C0.427746 68.1938 0 67.7741 0 67.2564V18.9023Z" fill="url(#paint1_linear_1445_5677)"/>
<path fill-rule="evenodd" clip-rule="evenodd" d="M159.133 69.2858C173.308 69.2858 184.8 57.7972 184.8 43.6253C184.8 29.4534 173.308 17.9648 159.133 17.9648C144.958 17.9648 133.467 29.4534 133.467 43.6253C133.467 57.7972 144.958 69.2858 159.133 69.2858ZM159.133 60.3046C168.347 60.3046 175.816 52.837 175.816 43.6253C175.816 34.4136 168.347 26.946 159.133 26.946C149.919 26.946 142.45 34.4136 142.45 43.6253C142.45 52.837 149.919 60.3046 159.133 60.3046Z" fill="url(#paint2_linear_1445_5677)"/>
<path d="M185.049 63.2544C185.049 61.844 185.559 60.6611 186.579 59.7056C187.645 58.7502 188.805 58.2725 190.057 58.2725C191.216 58.2725 192.306 58.7502 193.326 59.7056C194.392 60.6611 194.925 61.844 194.925 63.2544C194.925 64.7558 194.392 65.9615 193.326 66.8714C192.306 67.7359 191.216 68.1681 190.057 68.1681C188.805 68.1681 187.645 67.7359 186.579 66.8714C185.559 65.9615 185.049 64.7558 185.049 63.2544Z" fill="url(#paint3_linear_1445_5677)"/>
<path d="M217.448 17.9648C220.647 17.9648 223.499 18.3743 226.003 19.1933C228.507 19.9667 230.593 21.1042 232.263 22.6056C233.978 24.0615 235.277 25.8359 236.158 27.9287C237.039 29.9761 237.479 32.2965 237.479 34.8898C237.479 36.9372 237.154 38.9846 236.505 41.032C235.903 43.0793 234.882 44.9447 233.445 46.6281C232.054 48.3115 230.199 49.6764 227.881 50.7229C225.562 51.7238 222.687 52.2243 219.256 52.2243H212.978C212.45 52.2243 212.023 52.644 212.023 53.1617V67.2564C212.023 67.7741 211.595 68.1938 211.067 68.1938H202.893C202.365 68.1938 201.938 67.7741 201.938 67.2564V18.9023C201.938 18.3846 202.365 17.9648 202.893 17.9648H217.448ZM219.187 42.6699C220.717 42.6699 221.992 42.4196 223.012 41.9192C224.032 41.4187 224.82 40.7817 225.377 40.0083C225.98 39.2348 226.397 38.4386 226.629 37.6197C226.907 36.7552 227.046 35.959 227.046 35.2311C227.046 34.6851 226.953 34.0026 226.768 33.1837C226.629 32.3192 226.304 31.4548 225.794 30.5903C225.284 29.7259 224.496 28.9979 223.429 28.4065C222.409 27.815 221.018 27.5193 219.256 27.5193H212.978C212.45 27.5193 212.023 27.939 212.023 28.4567V41.7324C212.023 42.2502 212.45 42.6699 212.978 42.6699H219.187ZM228.109 48.8242C228.442 48.8166 228.756 48.9801 228.936 49.2556L240.362 66.7506C240.769 67.3745 240.313 68.1938 239.557 68.1938H230.062C229.742 68.1938 229.444 68.0366 229.267 67.7751L217.572 50.5016C217.156 49.8866 217.594 49.0627 218.346 49.0457L228.109 48.8242Z" fill="url(#paint4_linear_1445_5677)"/>
<path d="M252.632 49.6309C252.632 51.2234 253.119 52.7475 254.093 54.2034C255.066 55.6593 256.342 56.8423 257.918 57.7522C259.541 58.6622 261.303 59.1171 263.204 59.1171C265.291 59.1171 267.145 58.6622 268.768 57.7522C270.391 56.8423 271.666 55.6593 272.594 54.2034C273.567 52.7475 274.054 51.2234 274.054 49.6309V18.9023C274.054 18.3846 274.482 17.9648 275.01 17.9648H283.045C283.573 17.9648 284 18.3846 284 18.9023V49.8357C284 53.521 283.073 56.7968 281.218 59.6631C279.364 62.4839 276.86 64.7133 273.707 66.3512C270.553 67.9436 267.053 68.7398 263.204 68.7398C259.402 68.7398 255.924 67.9436 252.771 66.3512C249.664 64.7133 247.184 62.4839 245.329 59.6631C243.474 56.7968 242.547 53.521 242.547 49.8357V18.9023C242.547 18.3846 242.975 17.9648 243.502 17.9648H251.677C252.204 17.9648 252.632 18.3846 252.632 18.9023V49.6309Z" fill="url(#paint5_linear_1445_5677)"/>
<path fill-rule="evenodd" clip-rule="evenodd" d="M62.8832 69.2858C77.0584 69.2858 88.5496 57.7972 88.5496 43.6253C88.5496 29.4534 77.0584 17.9648 62.8832 17.9648C48.708 17.9648 37.2168 29.4534 37.2168 43.6253C37.2168 57.7972 48.708 69.2858 62.8832 69.2858ZM62.8832 60.3046C72.0971 60.3046 79.5664 52.837 79.5664 43.6253C79.5664 34.4136 72.0971 26.946 62.8832 26.946C53.6693 26.946 46.2 34.4136 46.2 43.6253C46.2 52.837 53.6693 60.3046 62.8832 60.3046Z" fill="url(#paint6_linear_1445_5677)"/>
<path fill-rule="evenodd" clip-rule="evenodd" d="M157.966 35.3645C157.966 35.0019 157.618 34.7407 157.282 34.8762C154.314 36.0717 152.191 39.2487 152.191 42.98C152.191 46.7113 154.314 49.8883 157.282 51.0839C157.618 51.2194 157.966 50.9582 157.966 50.5956C157.966 50.3609 157.815 50.1547 157.598 50.0667C155.006 49.0173 153.154 46.2405 153.154 42.98C153.154 39.7195 155.006 36.9427 157.598 35.8934C157.815 35.8053 157.966 35.5992 157.966 35.3645ZM161.816 50.5956C161.816 50.3609 161.968 50.1547 162.185 50.0667C164.777 49.0173 166.629 46.2405 166.629 42.98C166.629 39.7195 164.777 36.9427 162.185 35.8934C161.968 35.8053 161.816 35.5992 161.816 35.3645C161.816 35.0019 162.164 34.7407 162.501 34.8762C165.469 36.0717 167.591 39.2487 167.591 42.98C167.591 46.7113 165.469 49.8883 162.501 51.0839C162.164 51.2194 161.816 50.9582 161.816 50.5956Z" fill="black"/>
<path fill-rule="evenodd" clip-rule="evenodd" d="M199.031 1.28302C198.676 1.28302 198.389 0.995809 198.389 0.641512C198.389 0.287214 198.676 0 199.031 0H203.522C208.484 0 212.506 4.021 212.506 8.98116V13.4716C212.506 13.826 212.218 14.1133 211.864 14.1133C211.51 14.1133 211.222 13.826 211.222 13.4716V8.98116C211.222 4.7296 207.775 1.28302 203.522 1.28302H199.031ZM198.389 87.8871C198.389 87.5328 198.676 87.2456 199.031 87.2456H203.522C207.775 87.2456 211.222 83.799 211.222 79.5474V75.057C211.222 74.7026 211.51 74.4153 211.864 74.4153C212.218 74.4153 212.506 74.7026 212.506 75.057V79.5474C212.506 84.5076 208.484 88.5286 203.522 88.5286H199.031C198.676 88.5286 198.389 88.2414 198.389 87.8871ZM107.915 74.4153C108.269 74.4153 108.557 74.7026 108.557 75.057V79.5474C108.557 83.799 112.004 87.2456 116.257 87.2456H120.748C121.103 87.2456 121.39 87.5328 121.39 87.8871C121.39 88.2414 121.103 88.5286 120.748 88.5286H116.257C111.295 88.5286 107.273 84.5076 107.273 79.5474V75.057C107.273 74.7026 107.561 74.4153 107.915 74.4153ZM121.39 0.641512C121.39 0.995809 121.103 1.28302 120.748 1.28302H116.257C112.004 1.28302 108.557 4.7296 108.557 8.98116V13.4716C108.557 13.826 108.269 14.1133 107.915 14.1133C107.561 14.1133 107.273 13.826 107.273 13.4716V8.98116C107.273 4.021 111.295 0 116.257 0H120.748C121.103 0 121.39 0.287214 121.39 0.641512Z" fill="black"/>
<path fill-rule="evenodd" clip-rule="evenodd" d="M143.206 9.87761H135.506C135.293 9.87761 135.121 10.0499 135.121 10.2625V15.3946C135.121 15.6072 135.293 15.7795 135.506 15.7795H143.206C143.419 15.7795 143.591 15.6072 143.591 15.3946V10.2625C143.591 10.0499 143.419 9.87761 143.206 9.87761ZM135.506 8.97949C134.797 8.97949 134.223 9.55392 134.223 10.2625V15.3946C134.223 16.1032 134.797 16.6776 135.506 16.6776H143.206C143.915 16.6776 144.489 16.1032 144.489 15.3946V10.2625C144.489 9.55392 143.915 8.97949 143.206 8.97949H135.506Z" fill="black"/>
<path fill-rule="evenodd" clip-rule="evenodd" d="M143.206 71.4626H135.506C135.293 71.4626 135.121 71.6349 135.121 71.8475V76.9796C135.121 77.1921 135.293 77.3645 135.506 77.3645H143.206C143.419 77.3645 143.591 77.1921 143.591 76.9796V71.8475C143.591 71.6349 143.419 71.4626 143.206 71.4626ZM135.506 70.5645C134.797 70.5645 134.223 71.1389 134.223 71.8475V76.9796C134.223 77.6882 134.797 78.2626 135.506 78.2626H143.206C143.915 78.2626 144.489 77.6882 144.489 76.9796V71.8475C144.489 71.1389 143.915 70.5645 143.206 70.5645H135.506Z" fill="black"/>
<path fill-rule="evenodd" clip-rule="evenodd" d="M184.27 9.87761H176.57C176.358 9.87761 176.185 10.0499 176.185 10.2625V15.3946C176.185 15.6072 176.358 15.7795 176.57 15.7795H184.27C184.483 15.7795 184.655 15.6072 184.655 15.3946V10.2625C184.655 10.0499 184.483 9.87761 184.27 9.87761ZM176.57 8.97949C175.862 8.97949 175.287 9.55392 175.287 10.2625V15.3946C175.287 16.1032 175.862 16.6776 176.57 16.6776H184.27C184.979 16.6776 185.554 16.1032 185.554 15.3946V10.2625C185.554 9.55392 184.979 8.97949 184.27 8.97949H176.57Z" fill="black"/>
<path fill-rule="evenodd" clip-rule="evenodd" d="M184.27 71.4626H176.57C176.358 71.4626 176.185 71.6349 176.185 71.8475V76.9796C176.185 77.1921 176.358 77.3645 176.57 77.3645H184.27C184.483 77.3645 184.655 77.1921 184.655 76.9796V71.8475C184.655 71.6349 184.483 71.4626 184.27 71.4626ZM176.57 70.5645C175.862 70.5645 175.287 71.1389 175.287 71.8475V76.9796C175.287 77.6882 175.862 78.2626 176.57 78.2626H184.27C184.979 78.2626 185.554 77.6882 185.554 76.9796V71.8475C185.554 71.1389 184.979 70.5645 184.27 70.5645H176.57Z" fill="black"/>
<path fill-rule="evenodd" clip-rule="evenodd" d="M198.391 40.6696H190.692C190.479 40.6696 190.307 40.8419 190.307 41.0545V46.1866C190.307 46.3992 190.479 46.5715 190.692 46.5715H198.391C198.604 46.5715 198.776 46.3992 198.776 46.1866V41.0545C198.776 40.8419 198.604 40.6696 198.391 40.6696ZM190.692 39.7715C189.983 39.7715 189.408 40.3459 189.408 41.0545V46.1866C189.408 46.8952 189.983 47.4696 190.692 47.4696H198.391C199.1 47.4696 199.675 46.8952 199.675 46.1866V41.0545C199.675 40.3459 199.1 39.7715 198.391 39.7715H190.692Z" fill="black"/>
<path fill-rule="evenodd" clip-rule="evenodd" d="M129.089 40.6696H121.389C121.176 40.6696 121.004 40.8419 121.004 41.0545V46.1866C121.004 46.3992 121.176 46.5715 121.389 46.5715H129.089C129.301 46.5715 129.474 46.3992 129.474 46.1866V41.0545C129.474 40.8419 129.301 40.6696 129.089 40.6696ZM121.389 39.7715C120.68 39.7715 120.105 40.3459 120.105 41.0545V46.1866C120.105 46.8952 120.68 47.4696 121.389 47.4696H129.089C129.797 47.4696 130.372 46.8952 130.372 46.1866V41.0545C130.372 40.3459 129.797 39.7715 129.089 39.7715H121.389Z" fill="black"/>
<path fill-rule="evenodd" clip-rule="evenodd" d="M159.893 82.754C159.893 82.3996 160.18 82.1123 160.534 82.1123C160.889 82.1123 161.176 82.3996 161.176 82.754V90.4518C161.176 90.8062 160.889 91.0935 160.534 91.0935C160.18 91.0935 159.893 90.8062 159.893 90.4518V82.754ZM141.922 82.754C141.922 82.3996 141.635 82.1123 141.28 82.1123C140.926 82.1123 140.639 82.3996 140.639 82.754V90.4518C140.639 90.8062 140.926 91.0935 141.28 91.0935C141.635 91.0935 141.922 90.8062 141.922 90.4518V82.754ZM125.234 85.3194C125.234 84.965 125.522 84.6778 125.876 84.6778C126.23 84.6778 126.518 84.965 126.518 85.3194V90.4512C126.518 90.8056 126.23 91.0929 125.876 91.0929C125.522 91.0929 125.234 90.8056 125.234 90.4512V85.3194ZM129.084 85.3194C129.084 84.965 129.371 84.6778 129.726 84.6778C130.08 84.6778 130.367 84.965 130.367 85.3194V90.4512C130.367 90.8056 130.08 91.0929 129.726 91.0929C129.371 91.0929 129.084 90.8056 129.084 90.4512V85.3194ZM134.219 85.3194C134.219 84.965 133.932 84.6778 133.577 84.6778C133.223 84.6778 132.936 84.965 132.936 85.3194V90.4512C132.936 90.8056 133.223 91.0929 133.577 91.0929C133.932 91.0929 134.219 90.8056 134.219 90.4512V85.3194ZM136.787 85.3194C136.787 84.965 137.074 84.6778 137.429 84.6778C137.783 84.6778 138.07 84.965 138.07 85.3194V90.4512C138.07 90.8056 137.783 91.0929 137.429 91.0929C137.074 91.0929 136.787 90.8056 136.787 90.4512V85.3194ZM144.488 85.3194C144.488 84.965 144.776 84.6777 145.13 84.6777C145.484 84.6777 145.772 84.965 145.772 85.3194V90.4512C145.772 90.8056 145.484 91.0928 145.13 91.0928C144.776 91.0928 144.488 90.8056 144.488 90.4512V85.3194ZM149.621 85.3194C149.621 84.965 149.334 84.6777 148.98 84.6777C148.625 84.6777 148.338 84.965 148.338 85.3194V90.4512C148.338 90.8056 148.625 91.0928 148.98 91.0928C149.334 91.0928 149.621 90.8056 149.621 90.4512V85.3194ZM152.189 85.3194C152.189 84.965 152.477 84.6777 152.831 84.6777C153.185 84.6777 153.473 84.965 153.473 85.3194V90.4512C153.473 90.8056 153.185 91.0928 152.831 91.0928C152.477 91.0928 152.189 90.8056 152.189 90.4512V85.3194ZM157.324 85.3194C157.324 84.965 157.037 84.6777 156.683 84.6777C156.328 84.6777 156.041 84.965 156.041 85.3194V90.4512C156.041 90.8056 156.328 91.0928 156.683 91.0928C157.037 91.0928 157.324 90.8056 157.324 90.4512V85.3194ZM165.02 85.3194C165.02 84.965 164.732 84.6777 164.378 84.6777C164.024 84.6777 163.736 84.965 163.736 85.3194V90.4512C163.736 90.8056 164.024 91.0928 164.378 91.0928C164.732 91.0928 165.02 90.8056 165.02 90.4512V85.3194ZM167.586 85.3194C167.586 84.965 167.873 84.6777 168.228 84.6777C168.582 84.6777 168.869 84.965 168.869 85.3194V90.4512C168.869 90.8056 168.582 91.0928 168.228 91.0928C167.873 91.0928 167.586 90.8056 167.586 90.4512V85.3194ZM172.721 85.3194C172.721 84.965 172.433 84.6777 172.079 84.6777C171.725 84.6777 171.437 84.965 171.437 85.3194V90.4512C171.437 90.8056 171.725 91.0928 172.079 91.0928C172.433 91.0928 172.721 90.8056 172.721 90.4512V85.3194ZM175.285 85.3194C175.285 84.965 175.572 84.6777 175.927 84.6777C176.281 84.6777 176.568 84.965 176.568 85.3194V90.4512C176.568 90.8056 176.281 91.0928 175.927 91.0928C175.572 91.0928 175.285 90.8056 175.285 90.4512V85.3194ZM180.424 82.754C180.424 82.3996 180.137 82.1123 179.782 82.1123C179.428 82.1123 179.141 82.3996 179.141 82.754V90.4518C179.141 90.8062 179.428 91.0935 179.782 91.0935C180.137 91.0935 180.424 90.8062 180.424 90.4518V82.754ZM182.984 85.3204C182.984 84.966 183.272 84.6787 183.626 84.6787C183.98 84.6787 184.268 84.966 184.268 85.3204V90.4522C184.268 90.8066 183.98 91.0938 183.626 91.0938C183.272 91.0938 182.984 90.8066 182.984 90.4522V85.3204ZM188.117 85.3204C188.117 84.966 187.83 84.6787 187.476 84.6787C187.121 84.6787 186.834 84.966 186.834 85.3204V90.4522C186.834 90.8065 187.121 91.0938 187.476 91.0938C187.83 91.0938 188.117 90.8065 188.117 90.4522V85.3204ZM190.68 85.3204C190.68 84.966 190.967 84.6787 191.321 84.6787C191.676 84.6787 191.963 84.966 191.963 85.3204V90.4522C191.963 90.8065 191.676 91.0938 191.321 91.0938C190.967 91.0938 190.68 90.8065 190.68 90.4522V85.3204ZM195.82 85.3204C195.82 84.966 195.533 84.6787 195.179 84.6787C194.824 84.6787 194.537 84.966 194.537 85.3204V90.4522C194.537 90.8065 194.824 91.0938 195.179 91.0938C195.533 91.0938 195.82 90.8065 195.82 90.4522V85.3204Z" fill="black"/>
<defs>
<linearGradient id="paint0_linear_1445_5677" x1="109.758" y1="17.9648" x2="109.758" y2="68.1938" gradientUnits="userSpaceOnUse">
<stop stop-color="#4270FB"/>
<stop offset="1" stop-color="#3452AB"/>
</linearGradient>
<linearGradient id="paint1_linear_1445_5677" x1="15.9972" y1="17.9648" x2="15.9972" y2="68.1938" gradientUnits="userSpaceOnUse">
<stop stop-color="#4270FB"/>
<stop offset="1" stop-color="#3452AB"/>
</linearGradient>
<linearGradient id="paint2_linear_1445_5677" x1="159.133" y1="17.9648" x2="159.133" y2="69.2858" gradientUnits="userSpaceOnUse">
<stop stop-color="#4270FB"/>
<stop offset="1" stop-color="#3452AB"/>
</linearGradient>
<linearGradient id="paint3_linear_1445_5677" x1="189.987" y1="58.2725" x2="189.987" y2="68.1681" gradientUnits="userSpaceOnUse">
<stop stop-color="#4270FB"/>
<stop offset="1" stop-color="#3452AB"/>
</linearGradient>
<linearGradient id="paint4_linear_1445_5677" x1="221.226" y1="17.9648" x2="221.226" y2="68.1938" gradientUnits="userSpaceOnUse">
<stop stop-color="#4270FB"/>
<stop offset="1" stop-color="#3452AB"/>
</linearGradient>
<linearGradient id="paint5_linear_1445_5677" x1="263.274" y1="17.9648" x2="263.274" y2="68.7398" gradientUnits="userSpaceOnUse">
<stop stop-color="#4270FB"/>
<stop offset="1" stop-color="#3452AB"/>
</linearGradient>
<linearGradient id="paint6_linear_1445_5677" x1="62.8832" y1="17.9648" x2="62.8832" y2="69.2858" gradientUnits="userSpaceOnUse">
<stop stop-color="#4270FB"/>
<stop offset="1" stop-color="#3452AB"/>
</linearGradient>
</defs>
</svg>
