<svg width="81" height="98" viewBox="0 0 81 98" fill="none" xmlns="http://www.w3.org/2000/svg">
<g clip-path="url(#clip0_1305_56)">
<path d="M8.24707 59.0068C15.5063 68.13 26.7003 73.9862 39.2596 73.9862C53.9889 73.9862 66.8423 65.9353 73.6742 53.9951C70.089 52.356 67.5916 50.078 65.083 47.9722C60.1825 57.2343 50.4592 63.5406 39.2596 63.5406C30.2911 63.5406 22.266 59.4901 16.9104 53.1228C15.0234 55.1063 12.3207 57.2232 8.24707 59.0068Z" fill="#4C3933"/>
<path fill-rule="evenodd" clip-rule="evenodd" d="M9.48993 50.9224C8.34111 36.1096 13.8022 23.7026 24.913 15.685C26.8277 14.3015 28.1541 13.5126 30.2242 12.5291C31.151 12.0902 32.0556 11.6679 33.21 11.2456C34.6585 10.7123 34.8194 10.8567 35.8961 10.0677C25.6677 8.7787 12.7033 13.8404 8.08027 20.0744C3.89014 25.7251 3.87904 41.4768 8.36886 49.4277L9.22909 50.6334C9.26794 50.5612 9.39558 50.8335 9.48993 50.9224Z" fill="#4C3933"/>
<path fill-rule="evenodd" clip-rule="evenodd" d="M70.988 47.2774C75.5389 36.654 73.4632 26.5362 69.1011 17.2573C67.7025 20.491 73.2357 35.8261 55.1154 52.1446C51.8688 55.0672 48.944 55.8728 44.876 58.2009C54.3662 59.551 68.3685 53.3948 70.988 47.2774Z" fill="#4C3933"/>
<path fill-rule="evenodd" clip-rule="evenodd" d="M62.3695 42.1493C67.4587 36.3264 71.2104 20.019 65.7882 12.6126C61.5648 6.83416 50.8258 -0.399991 39.9814 0.0167229L40.5864 0.461218C40.6752 0.51678 41.0859 0.77792 41.208 0.850151C47.951 4.66169 53.1623 7.97874 57.5689 15.6741C62.0754 23.5472 63.9568 31.7592 62.3695 42.1493Z" fill="#4C3933"/>
<path fill-rule="evenodd" clip-rule="evenodd" d="M20.1455 49.3169C22.0602 54.2508 28.1706 60.746 32.0999 63.424C34.5474 65.0909 40.1194 68.119 42.8777 68.2968C46.9346 68.5635 55.3537 64.6408 58.223 62.8073C61.453 60.746 66.6144 55.8121 68.2516 52.2839C64.9383 53.6396 62.4409 56.1788 57.2962 57.6734C46.0355 60.946 34.4419 59.2958 24.7463 52.8506C23.0536 51.7283 21.6717 50.2614 20.1455 49.3169Z" fill="#4C3933"/>
<path fill-rule="evenodd" clip-rule="evenodd" d="M9.5625 17.1019C22.4992 8.4898 31.6953 6.17287 47.5123 12.0346C52.5128 13.8904 54.5828 16.224 57.8295 18.4687C56.2312 14.2849 51.708 9.08986 48.8554 6.9174C46.0971 4.8116 39.5761 -0.322314 34.4758 0.216636C23.5037 1.37788 12.7537 10.1233 9.5625 17.1019Z" fill="#4C3933"/>
<path fill-rule="evenodd" clip-rule="evenodd" d="M39.5425 68.5854C37.1949 66.9241 35.0415 66.9019 29.2808 62.4959C26.4337 60.3178 23.6144 56.9452 21.4555 53.7671C15.8668 45.5439 15.0732 39.0765 15.4173 27.6475C11.0218 35.115 6.98153 50 13.4637 57.0897C15.1786 58.9621 16.2831 60.0456 18.3698 61.6124C24.0917 65.9074 31.8226 68.9299 39.5425 68.5854Z" fill="#4C3933"/>
<path fill-rule="evenodd" clip-rule="evenodd" d="M52.712 42.2439C55.2927 42.0605 58.1398 38.1656 58.8945 36.9266C62.5297 41.3549 65.6986 44.2108 75.4608 50.3615C75.0168 51.3005 74.1899 53.0951 73.6793 53.9952C69.0951 51.9005 63.2567 48.3279 59.9379 45.8387L57.7457 47.1111L57.2074 45.372C55.4592 46.5388 53.0949 48.3168 51.3245 46.8611L44.8312 39.4769L41.135 43.2106L39.1815 38.5657C37.4943 40.4048 34.009 44.2885 32.777 45.8332L29.78 49.5503C28.5202 51.1227 25.7675 48.2112 24.047 47.4611L22.7761 49.6947L20.6006 48.139C18.8857 50.7393 15.3726 56.2455 8.23554 59.0069C7.62505 58.2401 6.69268 56.89 6.1377 56.0788C13.2415 51.7394 16.5104 44.4108 20.4563 38.4601C22.1102 40.1714 26.5833 44.2441 28.1484 44.3774C33.0933 38.6157 36.9893 34.9653 40.7632 29.5146C42.5502 30.3092 49.6152 40.0936 52.712 42.2439Z" fill="url(#paint0_linear_1305_56)"/>
<path d="M6.01048 91.8661C4.13464 91.8661 2.68058 91.4716 1.6483 90.6882C0.549435 89.8547 0 88.6324 0 87.0155C0 85.5431 0.532785 84.3652 1.59281 83.4818C2.65283 82.5984 4.12909 82.1594 6.01603 82.1594L5.93279 80.9648C6.43782 81.0204 6.90956 81.0482 7.348 81.0482C7.85303 81.0482 8.31922 81.0204 8.74656 80.9648L8.66331 82.1594C10.7501 82.1594 12.3151 82.665 13.364 83.6763C14.2409 84.5208 14.6793 85.632 14.6793 87.0155C14.6793 88.4657 14.141 89.638 13.0699 90.5326C11.9988 91.4271 10.5281 91.8716 8.66886 91.8716C8.66886 92.0717 8.67996 92.2772 8.69661 92.4773C8.71326 92.6773 8.73546 92.9106 8.75766 93.1662C8.54676 93.1329 8.26927 93.1107 7.94183 93.0996C7.60884 93.0884 7.42014 93.0829 7.37575 93.0829C6.87071 93.0829 6.39342 93.1107 5.94389 93.1662C5.96608 92.8606 5.98828 92.5773 6.00493 92.3161C6.00493 92.0494 6.01048 91.8994 6.01048 91.8661ZM8.65776 83.0317V90.9382C9.54574 90.9382 10.2561 90.5493 10.7945 89.777C11.2995 89.0491 11.5548 88.1268 11.5548 87.01C11.5548 85.9432 11.305 85.032 10.8111 84.2763C10.2617 83.4485 9.54019 83.0317 8.65776 83.0317ZM6.01048 90.9382V83.0317C5.14471 83.0317 4.44543 83.4262 3.91264 84.2208C3.37986 85.0153 3.11346 85.9432 3.11346 87.01C3.11346 88.1212 3.37431 89.0546 3.89599 89.8103C4.42323 90.5604 5.12251 90.9382 6.01048 90.9382Z" fill="url(#paint1_linear_1305_56)"/>
<path d="M18.3367 88.8824C18.3367 90.1769 18.4865 91.1159 18.7807 91.7049C19.0804 92.2938 19.5743 92.5883 20.2736 92.5883C20.9673 92.5883 21.4668 92.2883 21.7721 91.6938C22.0773 91.0993 22.2271 90.1603 22.2271 88.8768C22.2271 87.5711 22.0773 86.6265 21.7832 86.0376C21.4835 85.4486 20.984 85.1541 20.2736 85.1541C19.5799 85.1541 19.0804 85.4486 18.7807 86.032C18.4865 86.6154 18.3367 87.5655 18.3367 88.8824ZM15.8115 88.8824C15.8115 87.4544 16.2056 86.3487 16.9881 85.5598C17.7762 84.7708 18.875 84.3818 20.2902 84.3818C21.7166 84.3818 22.8154 84.7708 23.5924 85.5431C24.3694 86.321 24.7523 87.4322 24.7523 88.8824C24.7523 90.2992 24.3583 91.3993 23.5758 92.1883C22.7877 92.9773 21.6888 93.3662 20.2736 93.3662C18.8473 93.3662 17.7484 92.9773 16.9714 92.2049C16.2 91.4271 15.8115 90.3214 15.8115 88.8824Z" fill="url(#paint2_linear_1305_56)"/>
<path d="M25.4795 84.5986C25.929 84.5986 26.6616 84.6153 27.6828 84.6431C28.704 84.6709 29.3144 84.6875 29.5198 84.6875C30.1136 84.6875 30.9128 84.6709 31.9118 84.6431C32.9107 84.6153 33.4213 84.5986 33.4435 84.5986C33.3991 84.6986 33.3769 84.8931 33.3769 85.1709C33.3769 85.3709 33.3991 85.5765 33.4435 85.7766C33.2659 85.7766 32.8941 85.7488 32.3336 85.6988C31.773 85.6488 31.2402 85.621 30.7352 85.621C30.7352 86.1044 30.7296 86.4989 30.7185 86.7989C30.6741 88.0212 30.6519 88.7213 30.6519 88.888C30.6519 89.3269 30.6741 90.0659 30.7185 91.1049C30.7629 92.1439 30.7851 92.8274 30.7851 93.1552C30.38 93.1107 30.0859 93.0829 29.9027 93.0774C29.7196 93.0718 29.5697 93.0663 29.4587 93.0663C29.2922 93.0663 29.1313 93.0718 28.987 93.0774C28.8427 93.0829 28.5541 93.1107 28.1268 93.1552C28.1268 92.6607 28.149 91.9439 28.1934 90.9994C28.2378 90.0548 28.26 89.3547 28.26 88.8936C28.26 88.3657 28.2544 87.9435 28.2433 87.6268C28.1989 86.3655 28.1767 85.6988 28.1767 85.621C27.594 85.621 27.1666 85.6321 26.8947 85.6543C25.9623 85.7321 25.4906 85.771 25.4795 85.771C25.4906 85.7265 25.5017 85.6321 25.5128 85.4821C25.5239 85.3376 25.5294 85.232 25.5294 85.1598L25.4795 84.5986Z" fill="url(#paint3_linear_1305_56)"/>
<path d="M36.8289 88.8824C36.8289 90.1769 36.9787 91.1159 37.2729 91.7049C37.5726 92.2938 38.0665 92.5883 38.7658 92.5883C39.4595 92.5883 39.959 92.2883 40.2642 91.6938C40.5695 91.0993 40.7193 90.1603 40.7193 88.8768C40.7193 87.5711 40.5695 86.6265 40.2753 86.0376C39.9757 85.4486 39.4762 85.1541 38.7658 85.1541C38.0721 85.1541 37.5726 85.4486 37.2729 86.032C36.9787 86.6154 36.8289 87.5655 36.8289 88.8824ZM34.3037 88.8824C34.3037 87.4544 34.6977 86.3487 35.4803 85.5598C36.2684 84.7708 37.3672 84.3818 38.7824 84.3818C40.2087 84.3818 41.3076 84.7708 42.0846 85.5431C42.8616 86.321 43.2445 87.4322 43.2445 88.8824C43.2445 90.2992 42.8505 91.3993 42.0679 92.1883C41.2799 92.9773 40.181 93.3662 38.7658 93.3662C37.3395 93.3662 36.2406 92.9773 35.4636 92.2049C34.6922 91.4271 34.3037 90.3214 34.3037 88.8824Z" fill="url(#paint4_linear_1305_56)"/>
<path d="M45.1149 86.8599L44.7098 85.7153C45.731 84.8263 46.791 84.3818 47.8954 84.3818C48.9055 84.3818 49.6713 84.5874 50.1875 85.0041C50.6481 85.3764 50.8757 85.882 50.8757 86.521C50.8757 87.3877 50.3651 87.9989 49.3439 88.3601C48.7723 88.549 48.2062 88.7379 47.6457 88.9157C47.2183 89.0824 46.9131 89.3435 46.7188 89.6935C46.5745 89.9547 46.5024 90.2381 46.5024 90.5548C46.5024 91.0048 46.68 91.3882 47.0352 91.7104C47.3904 92.0327 47.7899 92.1883 48.2395 92.1883C48.7778 92.1883 49.244 92.0994 49.638 91.916C50.0321 91.7382 50.5038 91.3882 51.0533 90.8715L51.1865 90.9381L51.0533 91.9494C50.7036 92.3772 50.2208 92.7217 49.6047 92.9773C48.9887 93.2384 48.3838 93.3662 47.7844 93.3662C46.5745 93.3662 45.6422 93.1162 44.9873 92.6217C44.3934 92.1716 44.0938 91.5938 44.0938 90.8826C44.0938 90.3214 44.2436 89.8658 44.5377 89.5269C44.8374 89.1824 45.3092 88.8768 45.9585 88.6101C46.5523 88.4101 47.1517 88.2045 47.7622 88.0045C48.4559 87.6989 48.8056 87.2822 48.8056 86.7377C48.8056 86.3543 48.6946 86.0598 48.467 85.8431C48.1951 85.582 47.7844 85.4542 47.2183 85.4542C46.7355 85.4542 46.3137 85.5875 45.953 85.8598C45.6644 86.0765 45.3813 86.4098 45.1149 86.8599Z" fill="url(#paint5_linear_1305_56)"/>
<path d="M54.6433 88.8824C54.6433 90.1769 54.7932 91.1159 55.0873 91.7049C55.387 92.2938 55.881 92.5883 56.5802 92.5883C57.274 92.5883 57.7735 92.2883 58.0787 91.6938C58.3839 91.0993 58.5338 90.1603 58.5338 88.8768C58.5338 87.5711 58.3839 86.6265 58.0898 86.0376C57.7901 85.4486 57.2906 85.1541 56.5802 85.1541C55.8865 85.1541 55.387 85.4486 55.0873 86.032C54.7932 86.6154 54.6433 87.5655 54.6433 88.8824ZM52.1182 88.8824C52.1182 87.4544 52.5122 86.3487 53.2947 85.5598C54.0828 84.7708 55.1817 84.3818 56.5969 84.3818C58.0232 84.3818 59.1221 84.7708 59.899 85.5431C60.676 86.321 61.059 87.4322 61.059 88.8824C61.059 90.2992 60.6649 91.3993 59.8824 92.1883C59.0943 92.9773 57.9954 93.3662 56.5802 93.3662C55.1539 93.3662 54.0551 92.9773 53.2781 92.2049C52.5067 91.4271 52.1182 90.3214 52.1182 88.8824Z" fill="url(#paint6_linear_1305_56)"/>
<path d="M65.1714 88.9159C65.1714 90.0493 65.3101 90.8883 65.582 91.4273C65.8595 91.9662 66.298 92.2385 66.9029 92.2385C67.5189 92.2385 67.9685 91.9718 68.2515 91.4384C68.5346 90.905 68.6733 90.0604 68.6733 88.8992C68.6733 86.6712 68.0684 85.5599 66.853 85.5599C65.7319 85.5599 65.1714 86.6767 65.1714 88.9159ZM65.3045 84.5987C65.2712 84.7987 65.238 85.0099 65.2102 85.2321C65.1825 85.4488 65.1658 85.6099 65.1658 85.7099C65.8262 84.821 66.7031 84.3765 67.7909 84.3765C68.8121 84.3765 69.6334 84.7821 70.2606 85.5988C70.8821 86.4156 71.1929 87.5046 71.1929 88.877C71.1929 90.3049 70.8821 91.4106 70.2606 92.1885C69.639 92.9719 68.7621 93.3608 67.641 93.3608C67.025 93.3608 66.52 93.2608 66.1259 93.0663C65.7319 92.8719 65.4155 92.5496 65.1658 92.1162V93.7331C65.1658 94.172 65.188 94.911 65.2324 95.95C65.2768 96.989 65.299 97.6724 65.299 98.0002C64.8939 97.9558 64.5997 97.928 64.4166 97.9225C64.2334 97.9169 64.0836 97.9113 63.9726 97.9113C63.8061 97.9113 63.6451 97.9169 63.5008 97.9225C63.3566 97.928 63.068 97.9558 62.6406 98.0002C62.6406 97.5057 62.6628 96.789 62.7072 95.8444C62.7516 94.8999 62.7738 94.1998 62.7738 93.7386V88.8992C62.7738 88.3047 62.7627 87.7435 62.7405 87.2157C62.6739 85.6211 62.6406 84.7487 62.6406 84.6043C63.1235 84.6598 63.5674 84.6876 63.9726 84.6876C64.1391 84.6876 64.3056 84.6876 64.461 84.6765C64.6219 84.6709 64.8994 84.6432 65.3045 84.5987Z" fill="url(#paint7_linear_1305_56)"/>
<path d="M77.2263 88.4766C76.4049 88.6322 75.811 88.8822 75.4392 89.2267C75.0674 89.5712 74.8842 90.049 74.8842 90.6658C74.8842 91.677 75.2561 92.1826 75.9942 92.1826C76.8156 92.1826 77.2263 91.6381 77.2263 90.5491V88.4766ZM77.2929 92.0492C76.7878 92.9271 75.9831 93.3661 74.8842 93.3661C74.1294 93.3661 73.5412 93.1494 73.1138 92.7104C72.6865 92.2715 72.4756 91.6714 72.4756 90.9047C72.4756 89.8045 73.1027 89.0433 74.357 88.6266C74.912 88.4599 75.4725 88.2822 76.033 88.0932C76.5991 87.9099 76.9932 87.7321 77.2207 87.5598V87.2543C77.2207 86.7153 77.0653 86.2819 76.7601 85.9486C76.4493 85.6152 76.0275 85.4485 75.4892 85.4485C74.7122 85.4485 74.0517 85.9208 73.5023 86.8653L73.0972 85.7208C74.1294 84.8207 75.1895 84.3706 76.2772 84.3706C78.4916 84.3706 79.596 85.3429 79.596 87.2876L79.5294 90.7602C79.5294 91.4214 79.596 91.877 79.7237 92.1159C79.8513 92.3548 80.1122 92.4771 80.5062 92.4771C80.6172 92.4771 80.7227 92.4437 80.8281 92.3771L80.9946 92.816C80.6783 92.9827 80.3175 93.116 79.9068 93.2105C79.4961 93.3049 79.1632 93.355 78.9023 93.355C78.0476 93.3661 77.5093 92.9271 77.2929 92.0492Z" fill="url(#paint8_linear_1305_56)"/>
</g>
<defs>
<linearGradient id="paint0_linear_1305_56" x1="40.7993" y1="29.5146" x2="40.7993" y2="59.0069" gradientUnits="userSpaceOnUse">
<stop stop-color="#FF6760"/>
<stop offset="1" stop-color="#CF3C35"/>
</linearGradient>
<linearGradient id="paint1_linear_1305_56" x1="7.33967" y1="80.9648" x2="7.33967" y2="93.1662" gradientUnits="userSpaceOnUse">
<stop stop-color="#FF6760"/>
<stop offset="1" stop-color="#CF3C35"/>
</linearGradient>
<linearGradient id="paint2_linear_1305_56" x1="20.2819" y1="84.3818" x2="20.2819" y2="93.3662" gradientUnits="userSpaceOnUse">
<stop stop-color="#FF6760"/>
<stop offset="1" stop-color="#CF3C35"/>
</linearGradient>
<linearGradient id="paint3_linear_1305_56" x1="29.4615" y1="84.5986" x2="29.4615" y2="93.1552" gradientUnits="userSpaceOnUse">
<stop stop-color="#FF6760"/>
<stop offset="1" stop-color="#CF3C35"/>
</linearGradient>
<linearGradient id="paint4_linear_1305_56" x1="38.7741" y1="84.3818" x2="38.7741" y2="93.3662" gradientUnits="userSpaceOnUse">
<stop stop-color="#FF6760"/>
<stop offset="1" stop-color="#CF3C35"/>
</linearGradient>
<linearGradient id="paint5_linear_1305_56" x1="47.6401" y1="84.3818" x2="47.6401" y2="93.3662" gradientUnits="userSpaceOnUse">
<stop stop-color="#FF6760"/>
<stop offset="1" stop-color="#CF3C35"/>
</linearGradient>
<linearGradient id="paint6_linear_1305_56" x1="56.5886" y1="84.3818" x2="56.5886" y2="93.3662" gradientUnits="userSpaceOnUse">
<stop stop-color="#FF6760"/>
<stop offset="1" stop-color="#CF3C35"/>
</linearGradient>
<linearGradient id="paint7_linear_1305_56" x1="66.9168" y1="84.3765" x2="66.9168" y2="98.0002" gradientUnits="userSpaceOnUse">
<stop stop-color="#FF6760"/>
<stop offset="1" stop-color="#CF3C35"/>
</linearGradient>
<linearGradient id="paint8_linear_1305_56" x1="76.7351" y1="84.3706" x2="76.7351" y2="93.3661" gradientUnits="userSpaceOnUse">
<stop stop-color="#FF6760"/>
<stop offset="1" stop-color="#CF3C35"/>
</linearGradient>
<clipPath id="clip0_1305_56">
<rect width="81" height="98" fill="white"/>
</clipPath>
</defs>
</svg>
