<svg width="157" height="35" viewBox="0 0 157 35" fill="none" xmlns="http://www.w3.org/2000/svg">
<path d="M1.50781 27.9138C4.84756 32.2297 9.9976 35 15.7758 35C22.5523 35 28.4658 31.1915 31.6089 25.543C29.9595 24.7677 28.8105 23.69 27.6564 22.6938C25.4018 27.0754 20.9284 30.0586 15.7758 30.0586C11.6496 30.0586 7.9575 28.1425 5.49355 25.1304C4.62542 26.0687 3.38195 27.0701 1.50781 27.9138Z" fill="#4C3933"/>
<path fill-rule="evenodd" clip-rule="evenodd" d="M2.08006 24.0894C1.55153 17.0821 4.06399 11.2129 9.17574 7.42011C10.0566 6.76564 10.6669 6.39241 11.6193 5.92718C12.0457 5.71954 12.4619 5.51978 12.993 5.32002C13.6594 5.06769 13.7334 5.13603 14.2288 4.7628C9.52299 4.15301 3.55844 6.54748 1.43152 9.49654C-0.496238 12.1696 -0.501345 19.6211 1.56429 23.3824L1.96006 23.9527C1.97793 23.9186 2.03666 24.0474 2.08006 24.0894Z" fill="#4C3933"/>
<path fill-rule="evenodd" clip-rule="evenodd" d="M30.3728 22.3653C32.4665 17.3398 31.5115 12.5535 29.5046 8.16406C28.8612 9.69379 31.4068 16.9482 23.0703 24.6678C21.5766 26.0503 20.231 26.4314 18.3594 27.5327C22.7256 28.1714 29.1676 25.2592 30.3728 22.3653Z" fill="#4C3933"/>
<path fill-rule="evenodd" clip-rule="evenodd" d="M26.4075 19.9393C28.7489 17.1847 30.475 9.47037 27.9804 5.96672C26.0373 3.23319 21.0966 -0.188988 16.1074 0.00814188L16.3857 0.218414C16.4266 0.244698 16.6155 0.368232 16.6717 0.402401C19.774 2.20548 22.1716 3.77463 24.1989 7.41497C26.2722 11.1394 27.1378 15.0242 26.4075 19.9393Z" fill="#4C3933"/>
<path fill-rule="evenodd" clip-rule="evenodd" d="M6.98242 23.3298C7.86332 25.6639 10.6745 28.7364 12.4823 30.0033C13.6083 30.7919 16.1718 32.2243 17.4408 32.3084C19.3073 32.4346 23.1807 30.579 24.5008 29.7116C25.9868 28.7364 28.3614 26.4024 29.1146 24.7334C27.5903 25.3747 26.4413 26.5759 24.0744 27.2829C18.8937 28.8311 13.5598 28.0504 9.09913 25.0015C8.32036 24.4706 7.68459 23.7767 6.98242 23.3298Z" fill="#4C3933"/>
<path fill-rule="evenodd" clip-rule="evenodd" d="M2.11328 8.09032C8.06507 4.0163 12.2959 2.92026 19.5729 5.69322C21.8734 6.5711 22.8258 7.67503 24.3195 8.7369C23.5842 6.75772 21.5032 4.30017 20.1908 3.27247C18.9218 2.2763 15.9216 -0.152337 13.5751 0.102618C8.52722 0.651953 3.58144 4.78905 2.11328 8.09032Z" fill="#4C3933"/>
<path fill-rule="evenodd" clip-rule="evenodd" d="M15.9071 32.4451C14.827 31.6592 13.8363 31.6487 11.186 29.5644C9.87614 28.5341 8.57905 26.9386 7.58581 25.4352C5.01462 21.5452 4.64949 18.4857 4.8078 13.0791C2.78557 16.6117 0.926752 23.6531 3.90903 27.007C4.69801 27.8927 5.20612 28.4053 6.16617 29.1465C8.79864 31.1782 12.3554 32.6081 15.9071 32.4451Z" fill="#4C3933"/>
<path fill-rule="evenodd" clip-rule="evenodd" d="M21.9646 19.9841C23.1519 19.8973 24.4617 18.0548 24.809 17.4687C26.4814 19.5635 27.9394 20.9145 32.4306 23.8242C32.2264 24.2684 31.8459 25.1173 31.611 25.5431C29.502 24.5522 26.8159 22.8622 25.289 21.6846L24.2804 22.2865L24.0328 21.4639C23.2285 22.0158 22.1408 22.8569 21.3262 22.1683L18.3389 18.6751L16.6384 20.4414L15.7396 18.2441C14.9634 19.1141 13.3599 20.9513 12.793 21.682L11.4143 23.4404C10.8347 24.1842 9.5682 22.807 8.77668 22.4521L8.19197 23.5087L7.19106 22.7728C6.40209 24.0029 4.78584 26.6076 1.50226 27.9139C1.2214 27.5512 0.792441 26.9125 0.537109 26.5288C3.80536 24.476 5.30927 21.0091 7.12468 18.1941C7.88557 19.0037 9.94354 20.9303 10.6636 20.9934C12.9386 18.2677 14.731 16.5409 16.4673 13.9624C17.2894 14.3383 20.5398 18.9669 21.9646 19.9841Z" fill="url(#paint0_linear_1305_2462)"/>
<path d="M47.6246 25.5167C44.8884 25.5167 42.7674 24.9251 41.2617 23.7501C39.6589 22.5001 38.8574 20.6667 38.8574 18.2417C38.8574 16.0334 39.6346 14.2667 41.1808 12.9417C42.727 11.6167 44.8803 10.9584 47.6327 10.9584L47.5113 9.16675C48.248 9.25008 48.9361 9.29174 49.5756 9.29174C50.3123 9.29174 50.9923 9.25008 51.6156 9.16675L51.4942 10.9584C54.538 10.9584 56.8209 11.7167 58.3509 13.2334C59.6299 14.5001 60.2695 16.1667 60.2695 18.2417C60.2695 20.4167 59.4842 22.1751 57.9218 23.5167C56.3594 24.8584 54.2142 25.5251 51.5023 25.5251C51.5023 25.8251 51.5185 26.1334 51.5427 26.4334C51.567 26.7334 51.5994 27.0834 51.6318 27.4667C51.3242 27.4167 50.9194 27.3834 50.4418 27.3667C49.9561 27.3501 49.6808 27.3417 49.6161 27.3417C48.8794 27.3417 48.1832 27.3834 47.5275 27.4667C47.5599 27.0084 47.5922 26.5834 47.6165 26.1917C47.6165 25.7917 47.6246 25.5667 47.6246 25.5167ZM51.4861 12.2667V24.1251C52.7813 24.1251 53.8175 23.5417 54.6028 22.3834C55.3394 21.2917 55.7118 19.9084 55.7118 18.2334C55.7118 16.6334 55.3475 15.2667 54.6271 14.1334C53.8256 12.8917 52.7732 12.2667 51.4861 12.2667ZM47.6246 24.1251V12.2667C46.3618 12.2667 45.3418 12.8584 44.5646 14.0501C43.7875 15.2417 43.3989 16.6334 43.3989 18.2334C43.3989 19.9001 43.7794 21.3001 44.5403 22.4334C45.3094 23.5584 46.3294 24.1251 47.6246 24.1251Z" fill="url(#paint1_linear_1305_2462)"/>
<path d="M65.6043 21.0419C65.6043 22.9835 65.8228 24.3919 66.2519 25.2752C66.689 26.1585 67.4095 26.6002 68.4295 26.6002C69.4414 26.6002 70.17 26.1502 70.6152 25.2585C71.0605 24.3669 71.2791 22.9585 71.2791 21.0335C71.2791 19.0752 71.0605 17.6585 70.6314 16.7752C70.1943 15.8919 69.4657 15.4502 68.4295 15.4502C67.4176 15.4502 66.689 15.8919 66.2519 16.7669C65.8228 17.6419 65.6043 19.0669 65.6043 21.0419ZM61.9209 21.0419C61.9209 18.9002 62.4957 17.2419 63.6371 16.0585C64.7866 14.8752 66.3895 14.2919 68.4538 14.2919C70.5343 14.2919 72.1372 14.8752 73.2705 16.0335C74.4038 17.2002 74.9624 18.8669 74.9624 21.0419C74.9624 23.1669 74.3877 24.8169 73.2462 26.0002C72.0967 27.1835 70.4938 27.7668 68.4295 27.7668C66.349 27.7668 64.7462 27.1835 63.6128 26.0252C62.4876 24.8585 61.9209 23.2002 61.9209 21.0419Z" fill="url(#paint2_linear_1305_2462)"/>
<path d="M76.0228 14.6168C76.6786 14.6168 77.7471 14.6418 79.2367 14.6834C80.7262 14.7251 81.6167 14.7501 81.9162 14.7501C82.7824 14.7501 83.9481 14.7251 85.4053 14.6834C86.8624 14.6418 87.6072 14.6168 87.6396 14.6168C87.5748 14.7668 87.5424 15.0584 87.5424 15.4751C87.5424 15.7751 87.5748 16.0834 87.6396 16.3834C87.3805 16.3834 86.8382 16.3418 86.0205 16.2668C85.2029 16.1918 84.4258 16.1501 83.6891 16.1501C83.6891 16.8751 83.681 17.4668 83.6648 17.9168C83.6 19.7501 83.5677 20.8001 83.5677 21.0501C83.5677 21.7084 83.6 22.8168 83.6648 24.3751C83.7296 25.9334 83.7619 26.9584 83.7619 27.4501C83.171 27.3834 82.7419 27.3418 82.4748 27.3334C82.2076 27.3251 81.9891 27.3168 81.8272 27.3168C81.5843 27.3168 81.3495 27.3251 81.1391 27.3334C80.9286 27.3418 80.5076 27.3834 79.8843 27.4501C79.8843 26.7084 79.9167 25.6334 79.9814 24.2168C80.0462 22.8001 80.0786 21.7501 80.0786 21.0584C80.0786 20.2668 80.0705 19.6334 80.0543 19.1584C79.9895 17.2668 79.9572 16.2668 79.9572 16.1501C79.1072 16.1501 78.4838 16.1668 78.0871 16.2001C76.7271 16.3168 76.039 16.3751 76.0228 16.3751C76.039 16.3084 76.0552 16.1668 76.0714 15.9418C76.0876 15.7251 76.0957 15.5668 76.0957 15.4584L76.0228 14.6168Z" fill="url(#paint3_linear_1305_2462)"/>
<path d="M92.5778 21.0419C92.5778 22.9835 92.7964 24.3919 93.2255 25.2752C93.6626 26.1585 94.3831 26.6002 95.4031 26.6002C96.415 26.6002 97.1436 26.1502 97.5888 25.2585C98.0341 24.3669 98.2526 22.9585 98.2526 21.0335C98.2526 19.0752 98.0341 17.6585 97.605 16.7752C97.1679 15.8919 96.4393 15.4502 95.4031 15.4502C94.3912 15.4502 93.6626 15.8919 93.2255 16.7669C92.7964 17.6419 92.5778 19.0669 92.5778 21.0419ZM88.8945 21.0419C88.8945 18.9002 89.4692 17.2419 90.6107 16.0585C91.7602 14.8752 93.3631 14.2919 95.4274 14.2919C97.5079 14.2919 99.1107 14.8752 100.244 16.0335C101.377 17.2002 101.936 18.8669 101.936 21.0419C101.936 23.1669 101.361 24.8169 100.22 26.0002C99.0703 27.1835 97.4674 27.7668 95.4031 27.7668C93.3226 27.7668 91.7197 27.1835 90.5864 26.0252C89.4612 24.8585 88.8945 23.2002 88.8945 21.0419Z" fill="url(#paint4_linear_1305_2462)"/>
<path d="M104.664 18.0085L104.073 16.2919C105.563 14.9585 107.109 14.2919 108.72 14.2919C110.193 14.2919 111.31 14.6002 112.063 15.2252C112.735 15.7835 113.067 16.5419 113.067 17.5002C113.067 18.8002 112.322 19.7169 110.833 20.2585C109.999 20.5419 109.173 20.8252 108.355 21.0919C107.732 21.3419 107.287 21.7335 107.004 22.2585C106.793 22.6502 106.688 23.0752 106.688 23.5502C106.688 24.2252 106.947 24.8002 107.465 25.2835C107.983 25.7669 108.566 26.0002 109.222 26.0002C110.007 26.0002 110.687 25.8668 111.262 25.5918C111.836 25.3252 112.525 24.8002 113.326 24.0252L113.52 24.1252L113.326 25.6419C112.816 26.2835 112.112 26.8002 111.213 27.1835C110.315 27.5752 109.432 27.7668 108.558 27.7668C106.793 27.7668 105.433 27.3918 104.478 26.6502C103.612 25.9752 103.174 25.1085 103.174 24.0419C103.174 23.2002 103.393 22.5169 103.822 22.0085C104.259 21.4919 104.947 21.0335 105.895 20.6335C106.761 20.3335 107.635 20.0252 108.525 19.7252C109.537 19.2669 110.047 18.6419 110.047 17.8252C110.047 17.2502 109.885 16.8085 109.554 16.4835C109.157 16.0919 108.558 15.9002 107.732 15.9002C107.028 15.9002 106.413 16.1002 105.886 16.5085C105.465 16.8335 105.053 17.3335 104.664 18.0085Z" fill="url(#paint5_linear_1305_2462)"/>
<path d="M118.564 21.0419C118.564 22.9835 118.782 24.3919 119.211 25.2752C119.649 26.1585 120.369 26.6002 121.389 26.6002C122.401 26.6002 123.13 26.1502 123.575 25.2585C124.02 24.3669 124.239 22.9585 124.239 21.0335C124.239 19.0752 124.02 17.6585 123.591 16.7752C123.154 15.8919 122.425 15.4502 121.389 15.4502C120.377 15.4502 119.649 15.8919 119.211 16.7669C118.782 17.6419 118.564 19.0669 118.564 21.0419ZM114.88 21.0419C114.88 18.9002 115.455 17.2419 116.597 16.0585C117.746 14.8752 119.349 14.2919 121.413 14.2919C123.494 14.2919 125.097 14.8752 126.23 16.0335C127.363 17.2002 127.922 18.8669 127.922 21.0419C127.922 23.1669 127.347 24.8169 126.206 26.0002C125.056 27.1835 123.453 27.7668 121.389 27.7668C119.309 27.7668 117.706 27.1835 116.572 26.0252C115.447 24.8585 114.88 23.2002 114.88 21.0419Z" fill="url(#paint6_linear_1305_2462)"/>
<path d="M133.921 21.0916C133.921 22.7916 134.123 24.05 134.52 24.8583C134.924 25.6666 135.564 26.075 136.446 26.075C137.345 26.075 138.001 25.675 138.413 24.875C138.826 24.075 139.029 22.8083 139.029 21.0666C139.029 17.725 138.146 16.0583 136.373 16.0583C134.738 16.0583 133.921 17.7333 133.921 21.0916ZM134.115 14.6166C134.066 14.9166 134.018 15.2333 133.977 15.5666C133.937 15.8916 133.912 16.1333 133.912 16.2833C134.876 14.95 136.155 14.2833 137.742 14.2833C139.231 14.2833 140.429 14.8916 141.344 16.1166C142.251 17.3416 142.704 18.975 142.704 21.0333C142.704 23.175 142.251 24.8333 141.344 26C140.437 27.175 139.158 27.7583 137.523 27.7583C136.624 27.7583 135.888 27.6083 135.313 27.3166C134.738 27.025 134.277 26.5416 133.912 25.8916V28.3166C133.912 28.975 133.945 30.0833 134.01 31.6416C134.074 33.2 134.107 34.225 134.107 34.7166C133.516 34.65 133.087 34.6083 132.82 34.6C132.552 34.5916 132.334 34.5833 132.172 34.5833C131.929 34.5833 131.694 34.5916 131.484 34.6C131.273 34.6083 130.852 34.65 130.229 34.7166C130.229 33.975 130.261 32.9 130.326 31.4833C130.391 30.0666 130.423 29.0166 130.423 28.325V21.0666C130.423 20.175 130.407 19.3333 130.375 18.5416C130.278 16.15 130.229 14.8417 130.229 14.625C130.933 14.7083 131.581 14.75 132.172 14.75C132.415 14.75 132.658 14.75 132.884 14.7333C133.119 14.725 133.524 14.6833 134.115 14.6166Z" fill="url(#paint7_linear_1305_2462)"/>
<path d="M151.503 20.4335C150.305 20.6668 149.439 21.0418 148.897 21.5585C148.354 22.0752 148.087 22.7918 148.087 23.7168C148.087 25.2335 148.629 25.9918 149.706 25.9918C150.904 25.9918 151.503 25.1752 151.503 23.5418V20.4335ZM151.6 25.7918C150.864 27.1085 149.69 27.7668 148.087 27.7668C146.986 27.7668 146.128 27.4418 145.505 26.7835C144.881 26.1252 144.574 25.2252 144.574 24.0752C144.574 22.4252 145.489 21.2835 147.318 20.6585C148.128 20.4085 148.945 20.1418 149.763 19.8585C150.589 19.5835 151.163 19.3168 151.495 19.0585V18.6002C151.495 17.7918 151.269 17.1418 150.823 16.6418C150.37 16.1418 149.755 15.8918 148.969 15.8918C147.836 15.8918 146.873 16.6002 146.071 18.0168L145.48 16.3002C146.986 14.9502 148.532 14.2752 150.119 14.2752C153.349 14.2752 154.96 15.7335 154.96 18.6502L154.863 23.8585C154.863 24.8502 154.96 25.5335 155.146 25.8918C155.332 26.2502 155.713 26.4335 156.288 26.4335C156.45 26.4335 156.603 26.3835 156.757 26.2835L157 26.9418C156.539 27.1918 156.012 27.3918 155.413 27.5335C154.814 27.6752 154.329 27.7502 153.948 27.7502C152.701 27.7668 151.916 27.1085 151.6 25.7918Z" fill="url(#paint8_linear_1305_2462)"/>
<defs>
<linearGradient id="paint0_linear_1305_2462" x1="16.4839" y1="13.9624" x2="16.4839" y2="27.9139" gradientUnits="userSpaceOnUse">
<stop stop-color="#FF6760"/>
<stop offset="1" stop-color="#CF3C35"/>
</linearGradient>
<linearGradient id="paint1_linear_1305_2462" x1="97.9287" y1="9.16675" x2="97.9287" y2="34.7166" gradientUnits="userSpaceOnUse">
<stop stop-color="#FF6760"/>
<stop offset="1" stop-color="#CF3C35"/>
</linearGradient>
<linearGradient id="paint2_linear_1305_2462" x1="97.9287" y1="9.16675" x2="97.9287" y2="34.7166" gradientUnits="userSpaceOnUse">
<stop stop-color="#FF6760"/>
<stop offset="1" stop-color="#CF3C35"/>
</linearGradient>
<linearGradient id="paint3_linear_1305_2462" x1="97.9287" y1="9.16675" x2="97.9287" y2="34.7166" gradientUnits="userSpaceOnUse">
<stop stop-color="#FF6760"/>
<stop offset="1" stop-color="#CF3C35"/>
</linearGradient>
<linearGradient id="paint4_linear_1305_2462" x1="97.9287" y1="9.16675" x2="97.9287" y2="34.7166" gradientUnits="userSpaceOnUse">
<stop stop-color="#FF6760"/>
<stop offset="1" stop-color="#CF3C35"/>
</linearGradient>
<linearGradient id="paint5_linear_1305_2462" x1="97.9287" y1="9.16675" x2="97.9287" y2="34.7166" gradientUnits="userSpaceOnUse">
<stop stop-color="#FF6760"/>
<stop offset="1" stop-color="#CF3C35"/>
</linearGradient>
<linearGradient id="paint6_linear_1305_2462" x1="97.9287" y1="9.16675" x2="97.9287" y2="34.7166" gradientUnits="userSpaceOnUse">
<stop stop-color="#FF6760"/>
<stop offset="1" stop-color="#CF3C35"/>
</linearGradient>
<linearGradient id="paint7_linear_1305_2462" x1="97.9287" y1="9.16675" x2="97.9287" y2="34.7166" gradientUnits="userSpaceOnUse">
<stop stop-color="#FF6760"/>
<stop offset="1" stop-color="#CF3C35"/>
</linearGradient>
<linearGradient id="paint8_linear_1305_2462" x1="97.9287" y1="9.16675" x2="97.9287" y2="34.7166" gradientUnits="userSpaceOnUse">
<stop stop-color="#FF6760"/>
<stop offset="1" stop-color="#CF3C35"/>
</linearGradient>
</defs>
</svg>
