<svg width="20" height="18" viewBox="0 0 20 18" fill="none" xmlns="http://www.w3.org/2000/svg">
<path d="M1 2.6C1 2.03995 1 1.75992 1.10899 1.54601C1.20487 1.35785 1.35785 1.20487 1.54601 1.10899C1.75992 1 2.03995 1 2.6 1H17.4C17.9601 1 18.2401 1 18.454 1.10899C18.6422 1.20487 18.7951 1.35785 18.891 1.54601C19 1.75992 19 2.03995 19 2.6V5.4C19 5.96005 19 6.24008 18.891 6.45399C18.7951 6.64215 18.6422 6.79513 18.454 6.89101C18.2401 7 17.9601 7 17.4 7H2.6C2.03995 7 1.75992 7 1.54601 6.89101C1.35785 6.79513 1.20487 6.64215 1.10899 6.45399C1 6.24008 1 5.96005 1 5.4V2.6Z" stroke="#B9B9B9" stroke-width="2" stroke-linecap="round" stroke-linejoin="round"/>
<path d="M1 12.6C1 12.0399 1 11.7599 1.10899 11.546C1.20487 11.3578 1.35785 11.2049 1.54601 11.109C1.75992 11 2.03995 11 2.6 11H17.4C17.9601 11 18.2401 11 18.454 11.109C18.6422 11.2049 18.7951 11.3578 18.891 11.546C19 11.7599 19 12.0399 19 12.6V15.4C19 15.9601 19 16.2401 18.891 16.454C18.7951 16.6422 18.6422 16.7951 18.454 16.891C18.2401 17 17.9601 17 17.4 17H2.6C2.03995 17 1.75992 17 1.54601 16.891C1.35785 16.7951 1.20487 16.6422 1.10899 16.454C1 16.2401 1 15.9601 1 15.4V12.6Z" stroke="#B9B9B9" stroke-width="2" stroke-linecap="round" stroke-linejoin="round"/>
</svg>
