<svg width="18" height="18" viewBox="0 0 18 18" fill="none" xmlns="http://www.w3.org/2000/svg">
<path d="M11 2.6C11 2.03995 11 1.75992 11.109 1.54601C11.2049 1.35785 11.3578 1.20487 11.546 1.10899C11.7599 1 12.0399 1 12.6 1H15.4C15.9601 1 16.2401 1 16.454 1.10899C16.6422 1.20487 16.7951 1.35785 16.891 1.54601C17 1.75992 17 2.03995 17 2.6V5.4C17 5.96005 17 6.24008 16.891 6.45399C16.7951 6.64215 16.6422 6.79513 16.454 6.89101C16.2401 7 15.9601 7 15.4 7H12.6C12.0399 7 11.7599 7 11.546 6.89101C11.3578 6.79513 11.2049 6.64215 11.109 6.45399C11 6.24008 11 5.96005 11 5.4V2.6Z" stroke="#4B4B4B" stroke-width="2" stroke-linecap="round" stroke-linejoin="round"/>
<path d="M1 2.6C1 2.03995 1 1.75992 1.10899 1.54601C1.20487 1.35785 1.35785 1.20487 1.54601 1.10899C1.75992 1 2.03995 1 2.6 1H5.4C5.96005 1 6.24008 1 6.45399 1.10899C6.64215 1.20487 6.79513 1.35785 6.89101 1.54601C7 1.75992 7 2.03995 7 2.6V5.4C7 5.96005 7 6.24008 6.89101 6.45399C6.79513 6.64215 6.64215 6.79513 6.45399 6.89101C6.24008 7 5.96005 7 5.4 7H2.6C2.03995 7 1.75992 7 1.54601 6.89101C1.35785 6.79513 1.20487 6.64215 1.10899 6.45399C1 6.24008 1 5.96005 1 5.4V2.6Z" stroke="#4B4B4B" stroke-width="2" stroke-linecap="round" stroke-linejoin="round"/>
<path d="M1 12.6C1 12.0399 1 11.7599 1.10899 11.546C1.20487 11.3578 1.35785 11.2049 1.54601 11.109C1.75992 11 2.03995 11 2.6 11H5.4C5.96005 11 6.24008 11 6.45399 11.109C6.64215 11.2049 6.79513 11.3578 6.89101 11.546C7 11.7599 7 12.0399 7 12.6V15.4C7 15.9601 7 16.2401 6.89101 16.454C6.79513 16.6422 6.64215 16.7951 6.45399 16.891C6.24008 17 5.96005 17 5.4 17H2.6C2.03995 17 1.75992 17 1.54601 16.891C1.35785 16.7951 1.20487 16.6422 1.10899 16.454C1 16.2401 1 15.9601 1 15.4V12.6Z" stroke="#4B4B4B" stroke-width="2" stroke-linecap="round" stroke-linejoin="round"/>
<path d="M11 12.6C11 12.0399 11 11.7599 11.109 11.546C11.2049 11.3578 11.3578 11.2049 11.546 11.109C11.7599 11 12.0399 11 12.6 11H15.4C15.9601 11 16.2401 11 16.454 11.109C16.6422 11.2049 16.7951 11.3578 16.891 11.546C17 11.7599 17 12.0399 17 12.6V15.4C17 15.9601 17 16.2401 16.891 16.454C16.7951 16.6422 16.6422 16.7951 16.454 16.891C16.2401 17 15.9601 17 15.4 17H12.6C12.0399 17 11.7599 17 11.546 16.891C11.3578 16.7951 11.2049 16.6422 11.109 16.454C11 16.2401 11 15.9601 11 15.4V12.6Z" stroke="#4B4B4B" stroke-width="2" stroke-linecap="round" stroke-linejoin="round"/>
</svg>
