<svg width="6" height="16" viewBox="0 0 6 16" fill="none" xmlns="http://www.w3.org/2000/svg">
<path fill-rule="evenodd" clip-rule="evenodd" d="M4.19382 11.4867L4.19382 10.3207C4.19382 10.0126 4.43462 9.76277 4.73167 9.76277C5.02872 9.76277 5.26953 10.0126 5.26953 10.3207V11.4867C5.26953 13.463 3.72506 15.0651 1.81986 15.0651H0.695761C0.398711 15.0651 0.157903 14.8153 0.157903 14.5072C0.157903 14.199 0.398711 13.9493 0.695761 13.9493H1.81986C3.13096 13.9493 4.19382 12.8467 4.19382 11.4867ZM1.81986 1.5763H0.695761C0.398711 1.5763 0.157903 1.32651 0.157903 1.01837C0.157903 0.71024 0.398711 0.460449 0.695761 0.460449H1.81986C3.72506 0.460449 5.26953 2.06254 5.26953 4.03882V5.20485C5.26953 5.51298 5.02872 5.76277 4.73167 5.76277C4.43462 5.76277 4.19382 5.51298 4.19382 5.20485V4.03882C4.19382 2.6788 3.13096 1.5763 1.81986 1.5763Z" fill="#4B4B4B"/>
</svg>
