<svg width="7" height="20" viewBox="0 0 7 20" fill="none" xmlns="http://www.w3.org/2000/svg">
<path fill-rule="evenodd" clip-rule="evenodd" d="M1.47311 15.0997L1.47311 13.5029C1.47311 13.0809 1.14335 12.7389 0.736558 12.7389C0.329768 12.7389 0 13.0809 0 13.5029V15.0997C0 17.8061 2.11504 20 4.72407 20H6.26344C6.67023 20 7 19.6579 7 19.236C7 18.814 6.67023 18.4719 6.26344 18.4719H4.72407C2.92862 18.4719 1.47311 16.9621 1.47311 15.0997ZM4.72408 1.52807H6.26344C6.67023 1.52807 7 1.186 7 0.764035C7 0.34207 6.67023 0 6.26344 0H4.72408C2.11504 0 0 2.19394 0 4.90031V6.49711C0 6.91907 0.329767 7.26115 0.736557 7.26115C1.14335 7.26115 1.47311 6.91907 1.47311 6.49711V4.90031C1.47311 3.03787 2.92862 1.52807 4.72408 1.52807Z" fill="#4B4B4B"/>
</svg>
