<svg width="6" height="16" viewBox="0 0 6 16" fill="none" xmlns="http://www.w3.org/2000/svg">
<path fill-rule="evenodd" clip-rule="evenodd" d="M1.08939 11.4867L1.08939 10.3207C1.08939 10.0126 0.848581 9.76277 0.55153 9.76277C0.254479 9.76277 0.0136719 10.0126 0.0136719 10.3207V11.4867C0.0136719 13.463 1.55814 15.0651 3.46334 15.0651H4.58744C4.88449 15.0651 5.1253 14.8153 5.1253 14.5072C5.1253 14.199 4.88449 13.9493 4.58744 13.9493H3.46334C2.15224 13.9493 1.08939 12.8467 1.08939 11.4867ZM3.46335 1.5763H4.58744C4.88449 1.5763 5.1253 1.32651 5.1253 1.01837C5.1253 0.71024 4.88449 0.460449 4.58744 0.460449H3.46335C1.55814 0.460449 0.0136719 2.06254 0.0136719 4.03882V5.20485C0.0136719 5.51298 0.254479 5.76277 0.55153 5.76277C0.848581 5.76277 1.08939 5.51298 1.08939 5.20485V4.03882C1.08939 2.6788 2.15224 1.5763 3.46335 1.5763Z" fill="#4B4B4B"/>
</svg>
