<svg width="19" height="18" viewBox="0 0 19 18" fill="none" xmlns="http://www.w3.org/2000/svg">
<path d="M15.4545 0.140625H3.52264C2.84453 0.140625 2.19419 0.410003 1.7147 0.8895C1.2352 1.369 0.96582 2.01933 0.96582 2.69744V11.2202C0.96582 11.8983 1.2352 12.5486 1.7147 13.0281C2.19419 13.5076 2.84453 13.777 3.52264 13.777H13.4005L16.5539 16.9389C16.6335 17.0179 16.728 17.0804 16.8318 17.1228C16.9356 17.1652 17.0468 17.1867 17.159 17.1861C17.2708 17.189 17.3817 17.1656 17.4829 17.1179C17.6385 17.054 17.7717 16.9454 17.8658 16.8058C17.9598 16.6663 18.0104 16.5021 18.0113 16.3338V2.69744C18.0113 2.01933 17.7419 1.369 17.2624 0.8895C16.7829 0.410003 16.1326 0.140625 15.4545 0.140625ZM16.3067 14.2798L14.355 12.3196C14.2754 12.2406 14.1809 12.1781 14.0771 12.1357C13.9733 12.0933 13.8621 12.0718 13.7499 12.0724H3.52264C3.2966 12.0724 3.07982 11.9827 2.91999 11.8228C2.76016 11.663 2.67037 11.4462 2.67037 11.2202V2.69744C2.67037 2.47141 2.76016 2.25463 2.91999 2.0948C3.07982 1.93496 3.2966 1.84517 3.52264 1.84517H15.4545C15.6805 1.84517 15.8973 1.93496 16.0571 2.0948C16.2169 2.25463 16.3067 2.47141 16.3067 2.69744V14.2798Z" fill="url(#paint0_linear_1374_1315)"/>
<defs>
<linearGradient id="paint0_linear_1374_1315" x1="9.48855" y1="0.140625" x2="9.48855" y2="17.1863" gradientUnits="userSpaceOnUse">
<stop stop-color="#FF6760"/>
<stop offset="1" stop-color="#CF3C35"/>
</linearGradient>
</defs>
</svg>
