<svg width="14" height="12" viewBox="0 0 14 12" fill="none" xmlns="http://www.w3.org/2000/svg">
<path d="M11.6663 0.666504H2.33301C1.80257 0.666504 1.29387 0.877218 0.918794 1.25229C0.543722 1.62736 0.333008 2.13607 0.333008 2.6665V9.33317C0.333008 9.8636 0.543722 10.3723 0.918794 10.7474C1.29387 11.1225 1.80257 11.3332 2.33301 11.3332H11.6663C12.1968 11.3332 12.7055 11.1225 13.0806 10.7474C13.4556 10.3723 13.6663 9.8636 13.6663 9.33317V2.6665C13.6663 2.13607 13.4556 1.62736 13.0806 1.25229C12.7055 0.877218 12.1968 0.666504 11.6663 0.666504ZM11.393 1.99984L7.47301 5.91984C7.41103 5.98232 7.3373 6.03192 7.25606 6.06576C7.17482 6.09961 7.08768 6.11704 6.99967 6.11704C6.91167 6.11704 6.82453 6.09961 6.74329 6.06576C6.66205 6.03192 6.58832 5.98232 6.52634 5.91984L2.60634 1.99984H11.393ZM12.333 9.33317C12.333 9.50998 12.2628 9.67955 12.1377 9.80457C12.0127 9.9296 11.8432 9.99984 11.6663 9.99984H2.33301C2.1562 9.99984 1.98663 9.9296 1.8616 9.80457C1.73658 9.67955 1.66634 9.50998 1.66634 9.33317V2.93984L5.58634 6.85984C5.96134 7.23437 6.46967 7.44474 6.99967 7.44474C7.52968 7.44474 8.03801 7.23437 8.41301 6.85984L12.333 2.93984V9.33317Z" fill="url(#paint0_linear_1305_2366)"/>
<defs>
<linearGradient id="paint0_linear_1305_2366" x1="6.99967" y1="0.666504" x2="6.99967" y2="11.3332" gradientUnits="userSpaceOnUse">
<stop stop-color="#FF6760"/>
<stop offset="1" stop-color="#CF3C35"/>
</linearGradient>
</defs>
</svg>
