<svg width="22" height="20" viewBox="0 0 22 20" fill="none" xmlns="http://www.w3.org/2000/svg">
<path d="M10.1075 0.766565C10.4773 0.0345039 11.5227 0.0345057 11.8925 0.766567L14.3444 5.61933C14.4898 5.90718 14.7651 6.10722 15.0839 6.15659L20.4568 6.98883C21.2673 7.11438 21.5903 8.10857 21.0084 8.68656L17.1508 12.518C16.922 12.7452 16.8168 13.0689 16.8683 13.3873L17.7371 18.7544C17.8682 19.5641 17.0225 20.1785 16.293 19.8036L11.457 17.3188C11.1702 17.1714 10.8298 17.1714 10.543 17.3188L5.70702 19.8036C4.9775 20.1785 4.13179 19.564 4.26285 18.7544L5.13166 13.3873C5.1832 13.0689 5.07803 12.7452 4.84921 12.518L0.991617 8.68656C0.409681 8.10857 0.732712 7.11438 1.54324 6.98883L6.91615 6.15659C7.23485 6.10723 7.51019 5.90718 7.65562 5.61933L10.1075 0.766565Z" fill="#B9B9B9"/>
</svg>
