<svg width="16" height="16" viewBox="0 0 16 16" fill="none" xmlns="http://www.w3.org/2000/svg">
<g clip-path="url(#clip0_1305_1644)">
<path d="M14.9997 3.66683C15.1765 3.66683 15.3461 3.59659 15.4711 3.47157C15.5961 3.34654 15.6663 3.17697 15.6663 3.00016V1.00016C15.6663 0.823352 15.5961 0.653783 15.4711 0.528758C15.3461 0.403734 15.1765 0.333496 14.9997 0.333496H12.9997C12.8229 0.333496 12.6533 0.403734 12.5283 0.528758C12.4032 0.653783 12.333 0.823352 12.333 1.00016C12.333 1.08857 12.2979 1.17335 12.2354 1.23587C12.1729 1.29838 12.0881 1.3335 11.9997 1.3335C11.9113 1.3335 11.8265 1.29838 11.764 1.23587C11.7015 1.17335 11.6663 1.08857 11.6663 1.00016C11.6663 0.823352 11.5961 0.653783 11.4711 0.528758C11.3461 0.403734 11.1765 0.333496 10.9997 0.333496H8.99967C8.82286 0.333496 8.65329 0.403734 8.52827 0.528758C8.40325 0.653783 8.33301 0.823352 8.33301 1.00016C8.33301 1.08857 8.29789 1.17335 8.23538 1.23587C8.17286 1.29838 8.08808 1.3335 7.99967 1.3335C7.91127 1.3335 7.82648 1.29838 7.76397 1.23587C7.70146 1.17335 7.66634 1.08857 7.66634 1.00016C7.66634 0.823352 7.5961 0.653783 7.47108 0.528758C7.34606 0.403734 7.17649 0.333496 6.99967 0.333496H4.99967C4.82286 0.333496 4.65329 0.403734 4.52827 0.528758C4.40325 0.653783 4.33301 0.823352 4.33301 1.00016C4.33301 1.08857 4.29789 1.17335 4.23538 1.23587C4.17286 1.29838 4.08808 1.3335 3.99967 1.3335C3.91127 1.3335 3.82648 1.29838 3.76397 1.23587C3.70146 1.17335 3.66634 1.08857 3.66634 1.00016C3.66634 0.823352 3.5961 0.653783 3.47108 0.528758C3.34605 0.403734 3.17649 0.333496 2.99967 0.333496H0.999674C0.822863 0.333496 0.653294 0.403734 0.52827 0.528758C0.403246 0.653783 0.333008 0.823352 0.333008 1.00016V3.00016C0.333008 3.17697 0.403246 3.34654 0.52827 3.47157C0.653294 3.59659 0.822863 3.66683 0.999674 3.66683C1.08808 3.66683 1.17286 3.70195 1.23538 3.76446C1.29789 3.82697 1.33301 3.91176 1.33301 4.00016C1.33301 4.08857 1.29789 4.17335 1.23538 4.23587C1.17286 4.29838 1.08808 4.3335 0.999674 4.3335C0.822863 4.3335 0.653294 4.40373 0.52827 4.52876C0.403246 4.65378 0.333008 4.82335 0.333008 5.00016V7.00016C0.333008 7.17697 0.403246 7.34654 0.52827 7.47157C0.653294 7.59659 0.822863 7.66683 0.999674 7.66683C1.08808 7.66683 1.17286 7.70195 1.23538 7.76446C1.29789 7.82697 1.33301 7.91176 1.33301 8.00016C1.33301 8.08857 1.29789 8.17335 1.23538 8.23587C1.17286 8.29838 1.08808 8.3335 0.999674 8.3335C0.822863 8.3335 0.653294 8.40373 0.52827 8.52876C0.403246 8.65378 0.333008 8.82335 0.333008 9.00016V11.0002C0.333008 11.177 0.403246 11.3465 0.52827 11.4716C0.653294 11.5966 0.822863 11.6668 0.999674 11.6668C1.08808 11.6668 1.17286 11.7019 1.23538 11.7645C1.29789 11.827 1.33301 11.9118 1.33301 12.0002C1.33301 12.0886 1.29789 12.1734 1.23538 12.2359C1.17286 12.2984 1.08808 12.3335 0.999674 12.3335C0.822863 12.3335 0.653294 12.4037 0.52827 12.5288C0.403246 12.6538 0.333008 12.8234 0.333008 13.0002V15.0002C0.333008 15.177 0.403246 15.3465 0.52827 15.4716C0.653294 15.5966 0.822863 15.6668 0.999674 15.6668H2.99967C3.17649 15.6668 3.34605 15.5966 3.47108 15.4716C3.5961 15.3465 3.66634 15.177 3.66634 15.0002C3.66634 14.9118 3.70146 14.827 3.76397 14.7645C3.82648 14.7019 3.91127 14.6668 3.99967 14.6668C4.08808 14.6668 4.17286 14.7019 4.23538 14.7645C4.29789 14.827 4.33301 14.9118 4.33301 15.0002C4.33301 15.177 4.40325 15.3465 4.52827 15.4716C4.65329 15.5966 4.82286 15.6668 4.99967 15.6668H6.99967C7.17649 15.6668 7.34606 15.5966 7.47108 15.4716C7.5961 15.3465 7.66634 15.177 7.66634 15.0002C7.66634 14.9118 7.70146 14.827 7.76397 14.7645C7.82648 14.7019 7.91127 14.6668 7.99967 14.6668C8.08808 14.6668 8.17286 14.7019 8.23538 14.7645C8.29789 14.827 8.33301 14.9118 8.33301 15.0002C8.33301 15.177 8.40325 15.3465 8.52827 15.4716C8.65329 15.5966 8.82286 15.6668 8.99967 15.6668H10.9997C11.1765 15.6668 11.3461 15.5966 11.4711 15.4716C11.5961 15.3465 11.6663 15.177 11.6663 15.0002C11.6663 14.9118 11.7015 14.827 11.764 14.7645C11.8265 14.7019 11.9113 14.6668 11.9997 14.6668C12.0881 14.6668 12.1729 14.7019 12.2354 14.7645C12.2979 14.827 12.333 14.9118 12.333 15.0002C12.333 15.177 12.4032 15.3465 12.5283 15.4716C12.6533 15.5966 12.8229 15.6668 12.9997 15.6668H14.9997C15.1765 15.6668 15.3461 15.5966 15.4711 15.4716C15.5961 15.3465 15.6663 15.177 15.6663 15.0002V13.0002C15.6663 12.8234 15.5961 12.6538 15.4711 12.5288C15.3461 12.4037 15.1765 12.3335 14.9997 12.3335C14.9113 12.3335 14.8265 12.2984 14.764 12.2359C14.7015 12.1734 14.6663 12.0886 14.6663 12.0002C14.6663 11.9118 14.7015 11.827 14.764 11.7645C14.8265 11.7019 14.9113 11.6668 14.9997 11.6668C15.1765 11.6668 15.3461 11.5966 15.4711 11.4716C15.5961 11.3465 15.6663 11.177 15.6663 11.0002V9.00016C15.6663 8.82335 15.5961 8.65378 15.4711 8.52876C15.3461 8.40373 15.1765 8.3335 14.9997 8.3335C14.9113 8.3335 14.8265 8.29838 14.764 8.23587C14.7015 8.17335 14.6663 8.08857 14.6663 8.00016C14.6663 7.91176 14.7015 7.82697 14.764 7.76446C14.8265 7.70195 14.9113 7.66683 14.9997 7.66683C15.1765 7.66683 15.3461 7.59659 15.4711 7.47157C15.5961 7.34654 15.6663 7.17697 15.6663 7.00016V5.00016C15.6663 4.82335 15.5961 4.65378 15.4711 4.52876C15.3461 4.40373 15.1765 4.3335 14.9997 4.3335C14.9113 4.3335 14.8265 4.29838 14.764 4.23587C14.7015 4.17335 14.6663 4.08857 14.6663 4.00016C14.6663 3.91176 14.7015 3.82697 14.764 3.76446C14.8265 3.70195 14.9113 3.66683 14.9997 3.66683ZM14.333 2.4735C14.0363 2.60345 13.7839 2.81705 13.6066 3.08819C13.4294 3.35932 13.335 3.67623 13.335 4.00016C13.335 4.32409 13.4294 4.641 13.6066 4.91214C13.7839 5.18327 14.0363 5.39688 14.333 5.52683V6.4735C14.0363 6.60345 13.7839 6.81706 13.6066 7.08819C13.4294 7.35932 13.335 7.67623 13.335 8.00016C13.335 8.32409 13.4294 8.641 13.6066 8.91214C13.7839 9.18327 14.0363 9.39688 14.333 9.52683V10.4735C14.0363 10.6034 13.7839 10.8171 13.6066 11.0882C13.4294 11.3593 13.335 11.6762 13.335 12.0002C13.335 12.3241 13.4294 12.641 13.6066 12.9121C13.7839 13.1833 14.0363 13.3969 14.333 13.5268V14.3335H13.5263C13.3964 14.0368 13.1828 13.7844 12.9116 13.6071C12.6405 13.4299 12.3236 13.3355 11.9997 13.3355C11.6757 13.3355 11.3588 13.4299 11.0877 13.6071C10.8166 13.7844 10.603 14.0368 10.473 14.3335H9.52634C9.39639 14.0368 9.18278 13.7844 8.91165 13.6071C8.64052 13.4299 8.32361 13.3355 7.99967 13.3355C7.67574 13.3355 7.35883 13.4299 7.0877 13.6071C6.81657 13.7844 6.60296 14.0368 6.47301 14.3335H5.52634C5.39639 14.0368 5.18278 13.7844 4.91165 13.6071C4.64052 13.4299 4.32361 13.3355 3.99967 13.3355C3.67574 13.3355 3.35883 13.4299 3.0877 13.6071C2.81657 13.7844 2.60296 14.0368 2.47301 14.3335H1.66634V13.5268C1.96306 13.3969 2.21548 13.1833 2.39273 12.9121C2.56998 12.641 2.66438 12.3241 2.66438 12.0002C2.66438 11.6762 2.56998 11.3593 2.39273 11.0882C2.21548 10.8171 1.96306 10.6034 1.66634 10.4735V9.52683C1.96306 9.39688 2.21548 9.18327 2.39273 8.91214C2.56998 8.641 2.66438 8.32409 2.66438 8.00016C2.66438 7.67623 2.56998 7.35932 2.39273 7.08819C2.21548 6.81706 1.96306 6.60345 1.66634 6.4735V5.52683C1.96306 5.39688 2.21548 5.18327 2.39273 4.91214C2.56998 4.641 2.66438 4.32409 2.66438 4.00016C2.66438 3.67623 2.56998 3.35932 2.39273 3.08819C2.21548 2.81705 1.96306 2.60345 1.66634 2.4735V1.66683H2.47301C2.60296 1.96355 2.81657 2.21597 3.0877 2.39322C3.35883 2.57047 3.67574 2.66487 3.99967 2.66487C4.32361 2.66487 4.64052 2.57047 4.91165 2.39322C5.18278 2.21597 5.39639 1.96355 5.52634 1.66683H6.47301C6.60296 1.96355 6.81657 2.21597 7.0877 2.39322C7.35883 2.57047 7.67574 2.66487 7.99967 2.66487C8.32361 2.66487 8.64052 2.57047 8.91165 2.39322C9.18278 2.21597 9.39639 1.96355 9.52634 1.66683H10.473C10.603 1.96355 10.8166 2.21597 11.0877 2.39322C11.3588 2.57047 11.6757 2.66487 11.9997 2.66487C12.3236 2.66487 12.6405 2.57047 12.9116 2.39322C13.1828 2.21597 13.3964 1.96355 13.5263 1.66683H14.333V2.4735ZM7.99967 3.3335C6.762 3.3335 5.57501 3.82516 4.69984 4.70033C3.82467 5.5755 3.33301 6.76249 3.33301 8.00016C3.33301 9.23784 3.82467 10.4248 4.69984 11.3C5.57501 12.1752 6.762 12.6668 7.99967 12.6668C8.81927 12.6686 9.62459 12.4523 10.333 12.0402C10.4127 11.9985 10.4831 11.9411 10.54 11.8715C10.5969 11.8019 10.6392 11.7215 10.6643 11.6352C10.6893 11.5488 10.6966 11.4583 10.6858 11.3691C10.675 11.2798 10.6462 11.1937 10.6012 11.1158C10.5562 11.038 10.4959 10.97 10.424 10.9161C10.352 10.8621 10.2699 10.8233 10.1826 10.8019C10.0953 10.7805 10.0045 10.777 9.91579 10.7916C9.82707 10.8062 9.74222 10.8386 9.66634 10.8868C9.03087 11.2537 8.29208 11.4007 7.56458 11.3049C6.83707 11.2091 6.1615 10.876 5.64264 10.3571C5.12378 9.83822 4.79063 9.16264 4.69485 8.43513C4.59908 7.70763 4.74604 6.96885 5.11294 6.33337C5.47984 5.6979 6.04618 5.20126 6.72411 4.92046C7.40205 4.63966 8.15369 4.59041 8.86247 4.78034C9.57124 4.97027 10.1975 5.38877 10.6442 5.97093C11.0909 6.55309 11.333 7.26638 11.333 8.00016V8.3335C11.333 8.40616 11.3187 8.47811 11.2909 8.54525C11.2631 8.61238 11.2223 8.67338 11.1709 8.72476C11.1196 8.77614 11.0586 8.8169 10.9914 8.84471C10.9243 8.87252 10.8523 8.88683 10.7797 8.88683C10.6323 8.88684 10.4909 8.82876 10.386 8.72517C10.2812 8.62159 10.2214 8.48086 10.2197 8.3335V6.44683C10.2162 6.31022 10.1708 6.17798 10.0897 6.06801C10.0086 5.95804 9.89566 5.87565 9.76617 5.83201C9.63668 5.78836 9.4969 5.78556 9.36576 5.82398C9.23463 5.8624 9.11847 5.9402 9.03301 6.04683C8.71618 5.87318 8.36096 5.78151 7.99967 5.78016C7.41089 5.78016 6.84623 6.01405 6.4299 6.43039C6.01357 6.84672 5.77967 7.41138 5.77967 8.00016C5.77967 8.58894 6.01357 9.15361 6.4299 9.56994C6.84623 9.98627 7.41089 10.2202 7.99967 10.2202C8.53239 10.2202 9.04681 10.0259 9.44634 9.6735C9.7114 9.93385 10.0472 10.1105 10.4119 10.1813C10.7766 10.2522 11.1542 10.2142 11.4974 10.0721C11.8407 9.92992 12.1346 9.68992 12.3424 9.38196C12.5503 9.074 12.6629 8.71169 12.6663 8.34016V8.00016C12.6663 6.76249 12.1747 5.5755 11.2995 4.70033C10.4243 3.82516 9.23735 3.3335 7.99967 3.3335ZM7.99967 8.88683C7.82431 8.88683 7.65288 8.83483 7.50707 8.7374C7.36126 8.63997 7.24761 8.50149 7.1805 8.33948C7.11339 8.17746 7.09583 7.99918 7.13004 7.82718C7.16426 7.65519 7.2487 7.4972 7.37271 7.3732C7.49671 7.24919 7.6547 7.16475 7.82669 7.13053C7.99869 7.09632 8.17697 7.11388 8.33899 7.18099C8.50101 7.2481 8.63948 7.36175 8.73691 7.50756C8.83434 7.65337 8.88634 7.8248 8.88634 8.00016C8.88723 8.11685 8.8649 8.23255 8.82066 8.34052C8.77641 8.4485 8.71113 8.5466 8.62862 8.62911C8.54611 8.71162 8.44801 8.7769 8.34003 8.82114C8.23206 8.86539 8.11636 8.88772 7.99967 8.88683Z" fill="url(#paint0_linear_1305_1644)"/>
</g>
<defs>
<linearGradient id="paint0_linear_1305_1644" x1="7.99967" y1="0.333496" x2="7.99967" y2="15.6668" gradientUnits="userSpaceOnUse">
<stop stop-color="#FF6760"/>
<stop offset="1" stop-color="#CF3C35"/>
</linearGradient>
<clipPath id="clip0_1305_1644">
<rect width="16" height="16" fill="white"/>
</clipPath>
</defs>
</svg>
