<svg width="17" height="20" viewBox="0 0 17 20" fill="none" xmlns="http://www.w3.org/2000/svg">
<path fill-rule="evenodd" clip-rule="evenodd" d="M8.5 2C6.7396 2 5.31252 3.34314 5.31252 5C5.31252 6.65685 6.7396 8 8.5 8C10.2604 8 11.6875 6.65685 11.6875 5C11.6875 3.34314 10.2604 2 8.5 2ZM3.18753 5C3.18753 2.23858 5.566 0 8.5 0C11.434 0 13.8125 2.23858 13.8125 5C13.8125 7.76142 11.434 10 8.5 10C5.566 10 3.18753 7.76142 3.18753 5ZM5.60259 11.1917C5.44504 11.0835 5.25466 11.0151 5.04815 11.0022C5.01887 11.0003 4.98956 10.9996 4.96031 11L4.87692 11C4.29904 10.9998 3.87063 10.9996 3.49293 11.064C1.7488 11.3612 0.383775 12.6459 0.0680261 14.2874C-0.000350043 14.6429 -0.00019084 15.0461 2.34675e-05 15.59L4.7993e-05 15.6841L4.46787e-05 17.4319C1.32673e-05 17.6843 -1.68095e-05 17.9301 0.0180524 18.1382C0.0378963 18.3668 0.0847175 18.6366 0.231658 18.908C0.435388 19.2843 0.76047 19.5903 1.16031 19.782C1.4487 19.9203 1.73529 19.9644 1.97817 19.983C2.19922 20.0001 2.46024 20 2.72824 20H14.2714C14.5394 20 14.8008 20.0001 15.0218 19.983C15.2647 19.9644 15.5513 19.9203 15.8397 19.782C16.2395 19.5903 16.5646 19.2843 16.7683 18.908C16.9153 18.6366 16.9621 18.3668 16.9819 18.1382C17 17.9301 17 17.6843 17 17.4319L17 15.6787L17 15.5854C17.0002 15.0458 17.0003 14.6457 16.933 14.293C16.619 12.647 15.2501 11.3586 13.5012 11.063C13.1264 10.9996 12.7014 10.9998 12.1281 11L12.0397 11C11.8326 10.9971 11.6224 11.0512 11.4369 11.1673C10.5961 11.6934 9.58769 12 8.5 12C7.42927 12 6.4354 11.7029 5.60259 11.1917ZM4.66796 13.0004C4.18648 13.0019 4.00938 13.0085 3.87148 13.032C2.99941 13.1806 2.3169 13.8229 2.15902 14.6437C2.12932 14.7982 2.12504 15.0048 2.12504 15.6841V17.4C2.12504 17.6965 2.12586 17.8588 2.13598 17.9754L2.1372 17.9885L2.15121 17.9897C2.27508 17.9992 2.44747 18 2.76253 18H14.2375C14.5525 18 14.7249 17.9992 14.8488 17.9897L14.8628 17.9885L14.864 17.9754C14.8741 17.8588 14.875 17.6965 14.875 17.4V15.6787C14.875 15.0048 14.8707 14.7997 14.8415 14.6465C14.6845 13.8235 14 13.1793 13.1256 13.0315C12.9884 13.0083 12.8122 13.0018 12.3321 13.0004C11.2123 13.635 9.90009 14 8.5 14C7.09993 14 5.78769 13.635 4.66796 13.0004Z" fill="#CF3C35"/>
</svg>
